<mxfile host="Electron" modified="2024-05-14T08:45:48.899Z" agent="Mozilla/5.0 (Windows NT 10.0; Win64; x64) AppleWebKit/537.36 (KHTML, like Gecko) draw.io/24.2.5 Chrome/120.0.6099.109 Electron/28.1.0 Safari/537.36" etag="YImvg4-cQkPAfb_tFA4R" version="24.2.5" type="device">
  <diagram name="Page-1" id="52a04d89-c75d-2922-d76d-85b35f80e030">
    <mxGraphModel dx="3587" dy="2258" grid="0" gridSize="10" guides="1" tooltips="1" connect="1" arrows="1" fold="1" page="0" pageScale="1" pageWidth="1100" pageHeight="850" background="none" math="0" shadow="0">
      <root>
        <mxCell id="0" />
        <mxCell id="1" parent="0" />
        <mxCell id="HDfJIpf2rJyifLne6ltG-106" value="2.1 DFD Quản lý sản phẩm" style="swimlane;whiteSpace=wrap;rounded=1;shadow=0;comic=0;strokeColor=default;strokeWidth=1;align=center;verticalAlign=middle;swimlaneFillColor=#ffffff;fontFamily=Verdana;fontSize=12;fontColor=default;fontStyle=0;labelBackgroundColor=none;fillColor=#e0e0e0;" parent="1" vertex="1">
          <mxGeometry x="-42" y="-78" width="1396" height="784" as="geometry" />
        </mxCell>
        <mxCell id="HDfJIpf2rJyifLne6ltG-18" value="" style="edgeStyle=orthogonalEdgeStyle;rounded=0;orthogonalLoop=1;jettySize=auto;fontFamily=Verdana;fontSize=12;fontColor=default;fontStyle=0;labelBackgroundColor=none;" parent="1" source="21ea969265ad0168-30" target="1fdf3b25b50cf41e-17" edge="1">
          <mxGeometry relative="1" as="geometry">
            <Array as="points">
              <mxPoint x="849" y="145.5" />
              <mxPoint x="849" y="145.5" />
            </Array>
          </mxGeometry>
        </mxCell>
        <mxCell id="HDfJIpf2rJyifLne6ltG-19" value="danh sách sản phẩm" style="edgeLabel;align=center;verticalAlign=middle;resizable=0;points=[];rounded=1;shadow=0;comic=0;strokeColor=default;strokeWidth=1;swimlaneFillColor=#ffffff;fontFamily=Verdana;fontSize=12;fontColor=default;fontStyle=0;labelBackgroundColor=none;fillColor=#e0e0e0;" parent="HDfJIpf2rJyifLne6ltG-18" vertex="1" connectable="0">
          <mxGeometry x="0.4435" y="1" relative="1" as="geometry">
            <mxPoint x="50" y="-14" as="offset" />
          </mxGeometry>
        </mxCell>
        <mxCell id="HDfJIpf2rJyifLne6ltG-27" value="" style="edgeStyle=orthogonalEdgeStyle;rounded=0;orthogonalLoop=1;jettySize=auto;fontFamily=Verdana;fontSize=12;fontColor=default;fontStyle=0;labelBackgroundColor=none;" parent="1" source="21ea969265ad0168-30" target="HDfJIpf2rJyifLne6ltG-4" edge="1">
          <mxGeometry relative="1" as="geometry">
            <Array as="points">
              <mxPoint x="1044" y="259.5" />
            </Array>
          </mxGeometry>
        </mxCell>
        <mxCell id="21ea969265ad0168-30" value="Sản phẩm" style="rounded=0;shadow=0;comic=0;labelBackgroundColor=none;strokeWidth=2;fontFamily=Verdana;fontSize=12;align=center;shape=mxgraph.ios7ui.horLines;fixDash=0;" parent="1" vertex="1">
          <mxGeometry x="963" y="132.5" width="135" height="50" as="geometry" />
        </mxCell>
        <mxCell id="HDfJIpf2rJyifLne6ltG-16" value="" style="edgeStyle=orthogonalEdgeStyle;rounded=0;orthogonalLoop=1;jettySize=auto;fontFamily=Verdana;fontSize=12;fontColor=default;fontStyle=0;labelBackgroundColor=none;" parent="1" source="1fdf3b25b50cf41e-17" target="21ea969265ad0168-30" edge="1">
          <mxGeometry relative="1" as="geometry">
            <Array as="points">
              <mxPoint x="851" y="167.5" />
              <mxPoint x="851" y="167.5" />
            </Array>
          </mxGeometry>
        </mxCell>
        <mxCell id="HDfJIpf2rJyifLne6ltG-17" value="thông tin sản phẩm" style="edgeLabel;align=center;verticalAlign=middle;resizable=0;points=[];rounded=1;shadow=0;comic=0;strokeColor=default;strokeWidth=1;swimlaneFillColor=#ffffff;fontFamily=Verdana;fontSize=12;fontColor=default;fontStyle=0;labelBackgroundColor=none;fillColor=#e0e0e0;" parent="HDfJIpf2rJyifLne6ltG-16" vertex="1" connectable="0">
          <mxGeometry x="-0.1043" y="-3" relative="1" as="geometry">
            <mxPoint x="7" y="7" as="offset" />
          </mxGeometry>
        </mxCell>
        <mxCell id="HDfJIpf2rJyifLne6ltG-20" value="" style="edgeStyle=orthogonalEdgeStyle;rounded=0;orthogonalLoop=1;jettySize=auto;fontFamily=Verdana;fontSize=12;fontColor=default;fontStyle=0;labelBackgroundColor=none;" parent="1" source="1fdf3b25b50cf41e-17" target="1fdf3b25b50cf41e-25" edge="1">
          <mxGeometry relative="1" as="geometry">
            <Array as="points">
              <mxPoint x="253" y="147" />
            </Array>
          </mxGeometry>
        </mxCell>
        <mxCell id="HDfJIpf2rJyifLne6ltG-21" value="thông tin kết quả thêm sản phẩm" style="edgeLabel;align=center;verticalAlign=middle;resizable=0;points=[];rounded=1;shadow=0;comic=0;strokeColor=default;strokeWidth=1;swimlaneFillColor=#ffffff;fontFamily=Verdana;fontSize=12;fontColor=default;fontStyle=0;labelBackgroundColor=none;fillColor=#e0e0e0;" parent="HDfJIpf2rJyifLne6ltG-20" vertex="1" connectable="0">
          <mxGeometry x="-0.2156" y="-1" relative="1" as="geometry">
            <mxPoint x="42" y="-11" as="offset" />
          </mxGeometry>
        </mxCell>
        <mxCell id="1fdf3b25b50cf41e-17" value="3.1" style="swimlane;fontStyle=0;childLayout=stackLayout;horizontal=1;startSize=26;fillColor=#e0e0e0;horizontalStack=0;resizeParent=1;resizeLast=0;collapsible=1;marginBottom=0;swimlaneFillColor=#ffffff;align=center;rounded=1;shadow=0;comic=0;labelBackgroundColor=none;strokeWidth=1;fontFamily=Verdana;fontSize=12" parent="1" vertex="1">
          <mxGeometry x="583" y="125" width="150" height="65" as="geometry" />
        </mxCell>
        <mxCell id="1fdf3b25b50cf41e-18" value="Thêm sản phẩm" style="text;strokeColor=none;fillColor=none;spacingLeft=4;spacingRight=4;whiteSpace=wrap;overflow=hidden;rotatable=0;points=[[0,0.5],[1,0.5]];portConstraint=eastwest;align=center;" parent="1fdf3b25b50cf41e-17" vertex="1">
          <mxGeometry y="26" width="150" height="26" as="geometry" />
        </mxCell>
        <mxCell id="HDfJIpf2rJyifLne6ltG-13" value="" style="edgeStyle=orthogonalEdgeStyle;rounded=0;orthogonalLoop=1;jettySize=auto;fontFamily=Verdana;fontSize=12;fontColor=default;fontStyle=0;labelBackgroundColor=none;" parent="1" source="1fdf3b25b50cf41e-25" target="1fdf3b25b50cf41e-17" edge="1">
          <mxGeometry relative="1" as="geometry">
            <Array as="points">
              <mxPoint x="284" y="172" />
            </Array>
          </mxGeometry>
        </mxCell>
        <mxCell id="HDfJIpf2rJyifLne6ltG-15" value="thông tin sản phẩm" style="edgeLabel;align=center;verticalAlign=middle;resizable=0;points=[];rounded=1;shadow=0;comic=0;strokeColor=default;strokeWidth=1;swimlaneFillColor=#ffffff;fontFamily=Verdana;fontSize=12;fontColor=default;fontStyle=0;labelBackgroundColor=none;fillColor=#e0e0e0;" parent="HDfJIpf2rJyifLne6ltG-13" vertex="1" connectable="0">
          <mxGeometry x="0.3411" y="-3" relative="1" as="geometry">
            <mxPoint x="10" y="6" as="offset" />
          </mxGeometry>
        </mxCell>
        <mxCell id="HDfJIpf2rJyifLne6ltG-23" value="" style="edgeStyle=orthogonalEdgeStyle;rounded=0;orthogonalLoop=1;jettySize=auto;fontFamily=Verdana;fontSize=12;fontColor=default;fontStyle=0;labelBackgroundColor=none;" parent="1" source="1fdf3b25b50cf41e-25" target="HDfJIpf2rJyifLne6ltG-4" edge="1">
          <mxGeometry relative="1" as="geometry">
            <Array as="points">
              <mxPoint x="337" y="326" />
              <mxPoint x="337" y="242" />
            </Array>
          </mxGeometry>
        </mxCell>
        <mxCell id="HDfJIpf2rJyifLne6ltG-30" value="" style="edgeStyle=orthogonalEdgeStyle;rounded=0;orthogonalLoop=1;jettySize=auto;fontFamily=Verdana;fontSize=12;fontColor=default;fontStyle=0;labelBackgroundColor=none;" parent="1" source="1fdf3b25b50cf41e-25" target="HDfJIpf2rJyifLne6ltG-6" edge="1">
          <mxGeometry relative="1" as="geometry">
            <Array as="points">
              <mxPoint x="449" y="344" />
              <mxPoint x="449" y="344" />
            </Array>
          </mxGeometry>
        </mxCell>
        <mxCell id="HDfJIpf2rJyifLne6ltG-38" value="" style="edgeStyle=orthogonalEdgeStyle;rounded=0;orthogonalLoop=1;jettySize=auto;fontFamily=Verdana;fontSize=12;fontColor=default;fontStyle=0;labelBackgroundColor=none;" parent="1" source="1fdf3b25b50cf41e-25" target="HDfJIpf2rJyifLne6ltG-8" edge="1">
          <mxGeometry relative="1" as="geometry">
            <Array as="points">
              <mxPoint x="291" y="425" />
            </Array>
          </mxGeometry>
        </mxCell>
        <mxCell id="HDfJIpf2rJyifLne6ltG-47" value="chọn sản phẩm muốn xem" style="edgeLabel;align=center;verticalAlign=middle;resizable=0;points=[];rounded=1;shadow=0;comic=0;strokeColor=default;strokeWidth=1;swimlaneFillColor=#ffffff;fontFamily=Verdana;fontSize=12;fontColor=default;fontStyle=0;labelBackgroundColor=none;fillColor=#e0e0e0;" parent="HDfJIpf2rJyifLne6ltG-38" vertex="1" connectable="0">
          <mxGeometry x="-0.2182" y="3" relative="1" as="geometry">
            <mxPoint x="61" y="-5" as="offset" />
          </mxGeometry>
        </mxCell>
        <mxCell id="HDfJIpf2rJyifLne6ltG-48" value="" style="edgeStyle=orthogonalEdgeStyle;rounded=0;orthogonalLoop=1;jettySize=auto;fontFamily=Verdana;fontSize=12;fontColor=default;fontStyle=0;labelBackgroundColor=none;" parent="1" source="1fdf3b25b50cf41e-25" target="HDfJIpf2rJyifLne6ltG-10" edge="1">
          <mxGeometry relative="1" as="geometry">
            <Array as="points">
              <mxPoint x="253" y="524" />
            </Array>
          </mxGeometry>
        </mxCell>
        <mxCell id="HDfJIpf2rJyifLne6ltG-54" value="nội dung tìm kiếm" style="edgeLabel;align=center;verticalAlign=middle;resizable=0;points=[];rounded=1;shadow=0;comic=0;strokeColor=default;strokeWidth=1;swimlaneFillColor=#ffffff;fontFamily=Verdana;fontSize=12;fontColor=default;fontStyle=0;labelBackgroundColor=none;fillColor=#e0e0e0;" parent="HDfJIpf2rJyifLne6ltG-48" vertex="1" connectable="0">
          <mxGeometry x="0.3041" y="-1" relative="1" as="geometry">
            <mxPoint x="1" y="-8" as="offset" />
          </mxGeometry>
        </mxCell>
        <mxCell id="1fdf3b25b50cf41e-25" value="Nhân viên" style="whiteSpace=wrap;rounded=0;shadow=0;comic=0;labelBackgroundColor=none;strokeWidth=1;fontFamily=Verdana;fontSize=12;align=center;" parent="1" vertex="1">
          <mxGeometry x="193" y="319.5" width="120" height="50" as="geometry" />
        </mxCell>
        <mxCell id="HDfJIpf2rJyifLne6ltG-24" value="" style="edgeStyle=orthogonalEdgeStyle;rounded=0;orthogonalLoop=1;jettySize=auto;fontFamily=Verdana;fontSize=12;fontColor=default;fontStyle=0;labelBackgroundColor=none;" parent="1" source="HDfJIpf2rJyifLne6ltG-4" target="21ea969265ad0168-30" edge="1">
          <mxGeometry relative="1" as="geometry">
            <Array as="points">
              <mxPoint x="1019" y="238" />
            </Array>
          </mxGeometry>
        </mxCell>
        <mxCell id="HDfJIpf2rJyifLne6ltG-28" value="" style="edgeStyle=orthogonalEdgeStyle;rounded=0;orthogonalLoop=1;jettySize=auto;fontFamily=Verdana;fontSize=12;fontColor=default;fontStyle=0;labelBackgroundColor=none;" parent="1" source="HDfJIpf2rJyifLne6ltG-4" target="1fdf3b25b50cf41e-25" edge="1">
          <mxGeometry relative="1" as="geometry">
            <Array as="points">
              <mxPoint x="364" y="265" />
              <mxPoint x="364" y="333" />
            </Array>
          </mxGeometry>
        </mxCell>
        <mxCell id="HDfJIpf2rJyifLne6ltG-4" value="3.2" style="swimlane;fontStyle=0;childLayout=stackLayout;horizontal=1;startSize=26;fillColor=#e0e0e0;horizontalStack=0;resizeParent=1;resizeLast=0;collapsible=1;marginBottom=0;swimlaneFillColor=#ffffff;align=center;rounded=1;shadow=0;comic=0;labelBackgroundColor=none;strokeWidth=1;fontFamily=Verdana;fontSize=12" parent="1" vertex="1">
          <mxGeometry x="583" y="217" width="150" height="65" as="geometry" />
        </mxCell>
        <mxCell id="HDfJIpf2rJyifLne6ltG-5" value="Chỉnh sửa sản phẩm" style="text;strokeColor=none;fillColor=none;spacingLeft=4;spacingRight=4;whiteSpace=wrap;overflow=hidden;rotatable=0;points=[[0,0.5],[1,0.5]];portConstraint=eastwest;align=center;" parent="HDfJIpf2rJyifLne6ltG-4" vertex="1">
          <mxGeometry y="26" width="150" height="26" as="geometry" />
        </mxCell>
        <mxCell id="HDfJIpf2rJyifLne6ltG-34" value="" style="edgeStyle=orthogonalEdgeStyle;rounded=0;orthogonalLoop=1;jettySize=auto;fontFamily=Verdana;fontSize=12;fontColor=default;fontStyle=0;labelBackgroundColor=none;" parent="1" source="HDfJIpf2rJyifLne6ltG-6" target="1fdf3b25b50cf41e-25" edge="1">
          <mxGeometry relative="1" as="geometry">
            <Array as="points">
              <mxPoint x="446" y="355" />
              <mxPoint x="446" y="355" />
            </Array>
          </mxGeometry>
        </mxCell>
        <mxCell id="HDfJIpf2rJyifLne6ltG-6" value="3.3" style="swimlane;fontStyle=0;childLayout=stackLayout;horizontal=1;startSize=26;fillColor=#e0e0e0;horizontalStack=0;resizeParent=1;resizeLast=0;collapsible=1;marginBottom=0;swimlaneFillColor=#ffffff;align=center;rounded=1;shadow=0;comic=0;labelBackgroundColor=none;strokeWidth=1;fontFamily=Verdana;fontSize=12" parent="1" vertex="1">
          <mxGeometry x="583" y="310" width="150" height="65" as="geometry" />
        </mxCell>
        <mxCell id="HDfJIpf2rJyifLne6ltG-7" value="Xóa sản phẩm" style="text;strokeColor=none;fillColor=none;spacingLeft=4;spacingRight=4;whiteSpace=wrap;overflow=hidden;rotatable=0;points=[[0,0.5],[1,0.5]];portConstraint=eastwest;align=center;" parent="HDfJIpf2rJyifLne6ltG-6" vertex="1">
          <mxGeometry y="26" width="150" height="26" as="geometry" />
        </mxCell>
        <mxCell id="HDfJIpf2rJyifLne6ltG-42" value="" style="edgeStyle=orthogonalEdgeStyle;rounded=0;orthogonalLoop=1;jettySize=auto;fontFamily=Verdana;fontSize=12;fontColor=default;fontStyle=0;labelBackgroundColor=none;" parent="1" source="HDfJIpf2rJyifLne6ltG-8" target="HDfJIpf2rJyifLne6ltG-12" edge="1">
          <mxGeometry relative="1" as="geometry">
            <Array as="points">
              <mxPoint x="871" y="421" />
              <mxPoint x="871" y="421" />
            </Array>
          </mxGeometry>
        </mxCell>
        <mxCell id="HDfJIpf2rJyifLne6ltG-8" value="3.4" style="swimlane;fontStyle=0;childLayout=stackLayout;horizontal=1;startSize=26;fillColor=#e0e0e0;horizontalStack=0;resizeParent=1;resizeLast=0;collapsible=1;marginBottom=0;swimlaneFillColor=#ffffff;align=center;rounded=1;shadow=0;comic=0;labelBackgroundColor=none;strokeWidth=1;fontFamily=Verdana;fontSize=12" parent="1" vertex="1">
          <mxGeometry x="583" y="402" width="150" height="65" as="geometry" />
        </mxCell>
        <mxCell id="HDfJIpf2rJyifLne6ltG-9" value="Xem chi tiết sản phẩm" style="text;strokeColor=none;fillColor=none;spacingLeft=4;spacingRight=4;whiteSpace=wrap;overflow=hidden;rotatable=0;points=[[0,0.5],[1,0.5]];portConstraint=eastwest;align=center;" parent="HDfJIpf2rJyifLne6ltG-8" vertex="1">
          <mxGeometry y="26" width="150" height="26" as="geometry" />
        </mxCell>
        <mxCell id="HDfJIpf2rJyifLne6ltG-49" value="" style="edgeStyle=orthogonalEdgeStyle;rounded=0;orthogonalLoop=1;jettySize=auto;fontFamily=Verdana;fontSize=12;fontColor=default;fontStyle=0;labelBackgroundColor=none;" parent="1" source="HDfJIpf2rJyifLne6ltG-10" target="HDfJIpf2rJyifLne6ltG-12" edge="1">
          <mxGeometry relative="1" as="geometry">
            <Array as="points">
              <mxPoint x="1021" y="526" />
            </Array>
          </mxGeometry>
        </mxCell>
        <mxCell id="HDfJIpf2rJyifLne6ltG-53" value="" style="edgeStyle=orthogonalEdgeStyle;rounded=0;orthogonalLoop=1;jettySize=auto;fontFamily=Verdana;fontSize=12;fontColor=default;fontStyle=0;labelBackgroundColor=none;" parent="1" source="HDfJIpf2rJyifLne6ltG-10" target="1fdf3b25b50cf41e-25" edge="1">
          <mxGeometry relative="1" as="geometry">
            <Array as="points">
              <mxPoint x="236" y="542" />
            </Array>
          </mxGeometry>
        </mxCell>
        <mxCell id="HDfJIpf2rJyifLne6ltG-56" value="kết quả tìm kiếm" style="edgeLabel;align=center;verticalAlign=middle;resizable=0;points=[];rounded=1;shadow=0;comic=0;strokeColor=default;strokeWidth=1;swimlaneFillColor=#ffffff;fontFamily=Verdana;fontSize=12;fontColor=default;fontStyle=0;labelBackgroundColor=none;fillColor=#e0e0e0;" parent="HDfJIpf2rJyifLne6ltG-53" vertex="1" connectable="0">
          <mxGeometry x="-0.3031" y="3" relative="1" as="geometry">
            <mxPoint x="15" y="6" as="offset" />
          </mxGeometry>
        </mxCell>
        <mxCell id="HDfJIpf2rJyifLne6ltG-10" value="3.5" style="swimlane;fontStyle=0;childLayout=stackLayout;horizontal=1;startSize=26;fillColor=#e0e0e0;horizontalStack=0;resizeParent=1;resizeLast=0;collapsible=1;marginBottom=0;swimlaneFillColor=#ffffff;align=center;rounded=1;shadow=0;comic=0;labelBackgroundColor=none;strokeWidth=1;fontFamily=Verdana;fontSize=12" parent="1" vertex="1">
          <mxGeometry x="583" y="494" width="150" height="65" as="geometry" />
        </mxCell>
        <mxCell id="HDfJIpf2rJyifLne6ltG-11" value="Tìm kiếm sản phẩm" style="text;strokeColor=none;fillColor=none;spacingLeft=4;spacingRight=4;whiteSpace=wrap;overflow=hidden;rotatable=0;points=[[0,0.5],[1,0.5]];portConstraint=eastwest;align=center;" parent="HDfJIpf2rJyifLne6ltG-10" vertex="1">
          <mxGeometry y="26" width="150" height="26" as="geometry" />
        </mxCell>
        <mxCell id="HDfJIpf2rJyifLne6ltG-33" value="" style="edgeStyle=orthogonalEdgeStyle;rounded=0;orthogonalLoop=1;jettySize=auto;fontFamily=Verdana;fontSize=12;fontColor=default;fontStyle=0;labelBackgroundColor=none;" parent="1" source="HDfJIpf2rJyifLne6ltG-12" target="HDfJIpf2rJyifLne6ltG-6" edge="1">
          <mxGeometry relative="1" as="geometry">
            <Array as="points">
              <mxPoint x="1022" y="355" />
            </Array>
          </mxGeometry>
        </mxCell>
        <mxCell id="HDfJIpf2rJyifLne6ltG-43" value="" style="edgeStyle=orthogonalEdgeStyle;rounded=0;orthogonalLoop=1;jettySize=auto;fontFamily=Verdana;fontSize=12;fontColor=default;fontStyle=0;labelBackgroundColor=none;" parent="1" source="HDfJIpf2rJyifLne6ltG-12" target="HDfJIpf2rJyifLne6ltG-8" edge="1">
          <mxGeometry relative="1" as="geometry">
            <Array as="points">
              <mxPoint x="904" y="435" />
              <mxPoint x="904" y="435" />
            </Array>
          </mxGeometry>
        </mxCell>
        <mxCell id="HDfJIpf2rJyifLne6ltG-52" value="" style="edgeStyle=orthogonalEdgeStyle;rounded=0;orthogonalLoop=1;jettySize=auto;fontFamily=Verdana;fontSize=12;fontColor=default;fontStyle=0;labelBackgroundColor=none;" parent="1" source="HDfJIpf2rJyifLne6ltG-12" target="HDfJIpf2rJyifLne6ltG-10" edge="1">
          <mxGeometry relative="1" as="geometry">
            <Array as="points">
              <mxPoint x="1037" y="543" />
            </Array>
          </mxGeometry>
        </mxCell>
        <mxCell id="HDfJIpf2rJyifLne6ltG-12" value="Sản phẩm" style="rounded=0;shadow=0;comic=0;labelBackgroundColor=none;strokeWidth=2;fontFamily=Verdana;fontSize=12;align=center;shape=mxgraph.ios7ui.horLines;" parent="1" vertex="1">
          <mxGeometry x="963" y="402" width="135" height="50" as="geometry" />
        </mxCell>
        <mxCell id="HDfJIpf2rJyifLne6ltG-25" value="thông tin sản phẩm" style="edgeLabel;align=center;verticalAlign=middle;resizable=0;points=[];rounded=1;shadow=0;comic=0;strokeColor=default;strokeWidth=1;swimlaneFillColor=#ffffff;fontFamily=Verdana;fontSize=12;fontColor=default;fontStyle=0;labelBackgroundColor=none;fillColor=#e0e0e0;" parent="1" vertex="1" connectable="0">
          <mxGeometry x="449" y="229.5" as="geometry" />
        </mxCell>
        <mxCell id="HDfJIpf2rJyifLne6ltG-26" value="thông tin sản phẩm" style="edgeLabel;align=center;verticalAlign=middle;resizable=0;points=[];rounded=1;shadow=0;comic=0;strokeColor=default;strokeWidth=1;swimlaneFillColor=#ffffff;fontFamily=Verdana;fontSize=12;fontColor=default;fontStyle=0;labelBackgroundColor=none;fillColor=#e0e0e0;" parent="1" vertex="1" connectable="0">
          <mxGeometry x="871" y="229.5" as="geometry" />
        </mxCell>
        <mxCell id="HDfJIpf2rJyifLne6ltG-29" value="thông tin kết quả sửa sản phẩm" style="edgeLabel;align=center;verticalAlign=middle;resizable=0;points=[];rounded=1;shadow=0;comic=0;strokeColor=default;strokeWidth=1;swimlaneFillColor=#ffffff;fontFamily=Verdana;fontSize=12;fontColor=default;fontStyle=0;labelBackgroundColor=none;fillColor=#e0e0e0;" parent="1" vertex="1" connectable="0">
          <mxGeometry x="472" y="275" as="geometry" />
        </mxCell>
        <mxCell id="HDfJIpf2rJyifLne6ltG-32" value="" style="edgeStyle=orthogonalEdgeStyle;rounded=0;orthogonalLoop=1;jettySize=auto;fontFamily=Verdana;fontSize=12;fontColor=default;fontStyle=0;labelBackgroundColor=none;" parent="1" source="HDfJIpf2rJyifLne6ltG-7" target="HDfJIpf2rJyifLne6ltG-12" edge="1">
          <mxGeometry relative="1" as="geometry">
            <Array as="points">
              <mxPoint x="1035" y="342" />
            </Array>
          </mxGeometry>
        </mxCell>
        <mxCell id="HDfJIpf2rJyifLne6ltG-35" value="thông tin sản phẩm" style="edgeLabel;align=center;verticalAlign=middle;resizable=0;points=[];rounded=1;shadow=0;comic=0;strokeColor=default;strokeWidth=1;swimlaneFillColor=#ffffff;fontFamily=Verdana;fontSize=12;fontColor=default;fontStyle=0;labelBackgroundColor=none;fillColor=#e0e0e0;" parent="1" vertex="1" connectable="0">
          <mxGeometry x="449" y="335" as="geometry" />
        </mxCell>
        <mxCell id="HDfJIpf2rJyifLne6ltG-36" value="thông tin sản phẩm" style="edgeLabel;align=center;verticalAlign=middle;resizable=0;points=[];rounded=1;shadow=0;comic=0;strokeColor=default;strokeWidth=1;swimlaneFillColor=#ffffff;fontFamily=Verdana;fontSize=12;fontColor=default;fontStyle=0;labelBackgroundColor=none;fillColor=#e0e0e0;" parent="1" vertex="1" connectable="0">
          <mxGeometry x="885" y="335" as="geometry" />
        </mxCell>
        <mxCell id="HDfJIpf2rJyifLne6ltG-37" value="thông tin kết quả xóa sản phẩm" style="edgeLabel;align=center;verticalAlign=middle;resizable=0;points=[];rounded=1;shadow=0;comic=0;strokeColor=default;strokeWidth=1;swimlaneFillColor=#ffffff;fontFamily=Verdana;fontSize=12;fontColor=default;fontStyle=0;labelBackgroundColor=none;fillColor=#e0e0e0;" parent="1" vertex="1" connectable="0">
          <mxGeometry x="456" y="364" as="geometry" />
        </mxCell>
        <mxCell id="HDfJIpf2rJyifLne6ltG-41" value="" style="edgeStyle=orthogonalEdgeStyle;rounded=0;orthogonalLoop=1;jettySize=auto;fontFamily=Verdana;fontSize=12;fontColor=default;fontStyle=0;labelBackgroundColor=none;" parent="1" source="HDfJIpf2rJyifLne6ltG-9" target="1fdf3b25b50cf41e-25" edge="1">
          <mxGeometry relative="1" as="geometry">
            <Array as="points">
              <mxPoint x="271" y="441" />
            </Array>
          </mxGeometry>
        </mxCell>
        <mxCell id="HDfJIpf2rJyifLne6ltG-44" value="thông tin sản phẩm" style="edgeLabel;align=center;verticalAlign=middle;resizable=0;points=[];rounded=1;shadow=0;comic=0;strokeColor=default;strokeWidth=1;swimlaneFillColor=#ffffff;fontFamily=Verdana;fontSize=12;fontColor=default;fontStyle=0;labelBackgroundColor=none;fillColor=#e0e0e0;" parent="1" vertex="1" connectable="0">
          <mxGeometry x="842" y="446" as="geometry" />
        </mxCell>
        <mxCell id="HDfJIpf2rJyifLne6ltG-46" value="thông tin sản phẩm" style="edgeLabel;align=center;verticalAlign=middle;resizable=0;points=[];rounded=1;shadow=0;comic=0;strokeColor=default;strokeWidth=1;swimlaneFillColor=#ffffff;fontFamily=Verdana;fontSize=12;fontColor=default;fontStyle=0;labelBackgroundColor=none;fillColor=#e0e0e0;" parent="1" vertex="1" connectable="0">
          <mxGeometry x="432" y="452" as="geometry" />
        </mxCell>
        <mxCell id="HDfJIpf2rJyifLne6ltG-55" value="danh sách sản phẩm" style="edgeLabel;align=center;verticalAlign=middle;resizable=0;points=[];rounded=1;shadow=0;comic=0;strokeColor=default;strokeWidth=1;swimlaneFillColor=#ffffff;fontFamily=Verdana;fontSize=12;fontColor=default;fontStyle=0;labelBackgroundColor=none;fillColor=#e0e0e0;" parent="1" vertex="1" connectable="0">
          <mxGeometry x="871.0031034482759" y="551.0027586206896" as="geometry" />
        </mxCell>
        <mxCell id="HDfJIpf2rJyifLne6ltG-108" value="2.3 DFD Quản lý hóa đơn" style="swimlane;whiteSpace=wrap;rounded=1;shadow=0;comic=0;strokeColor=default;strokeWidth=1;align=center;verticalAlign=middle;swimlaneFillColor=#ffffff;fontFamily=Verdana;fontSize=12;fontColor=default;fontStyle=0;labelBackgroundColor=none;fillColor=#e0e0e0;" parent="1" vertex="1">
          <mxGeometry x="-40" y="815" width="1396" height="784" as="geometry" />
        </mxCell>
        <mxCell id="HDfJIpf2rJyifLne6ltG-158" value="2.2 DFD Quản lý phiếu nhập" style="swimlane;whiteSpace=wrap;rounded=1;shadow=0;comic=0;strokeColor=default;strokeWidth=1;align=center;verticalAlign=middle;swimlaneFillColor=#ffffff;fontFamily=Verdana;fontSize=12;fontColor=default;fontStyle=0;labelBackgroundColor=none;fillColor=#e0e0e0;" parent="1" vertex="1">
          <mxGeometry x="1567" y="-72" width="1396" height="784" as="geometry" />
        </mxCell>
        <mxCell id="HDfJIpf2rJyifLne6ltG-169" value="" style="edgeStyle=orthogonalEdgeStyle;rounded=0;orthogonalLoop=1;jettySize=auto;fontFamily=Verdana;fontSize=12;fontColor=default;fontStyle=0;labelBackgroundColor=none;" parent="HDfJIpf2rJyifLne6ltG-158" source="HDfJIpf2rJyifLne6ltG-160" target="HDfJIpf2rJyifLne6ltG-163" edge="1">
          <mxGeometry relative="1" as="geometry">
            <Array as="points">
              <mxPoint x="726" y="305" />
              <mxPoint x="1113" y="305" />
            </Array>
          </mxGeometry>
        </mxCell>
        <mxCell id="HDfJIpf2rJyifLne6ltG-170" value="thông tin sự cố (nếu có)" style="edgeLabel;align=center;verticalAlign=middle;resizable=0;points=[];rounded=1;shadow=0;comic=0;strokeColor=default;strokeWidth=1;swimlaneFillColor=#ffffff;fontFamily=Verdana;fontSize=12;fontColor=default;fontStyle=0;labelBackgroundColor=none;fillColor=#e0e0e0;" parent="HDfJIpf2rJyifLne6ltG-169" vertex="1" connectable="0">
          <mxGeometry x="-0.1096" y="1" relative="1" as="geometry">
            <mxPoint x="25" y="-7" as="offset" />
          </mxGeometry>
        </mxCell>
        <mxCell id="HDfJIpf2rJyifLne6ltG-172" value="" style="edgeStyle=orthogonalEdgeStyle;rounded=0;orthogonalLoop=1;jettySize=auto;fontFamily=Verdana;fontSize=12;fontColor=default;fontStyle=0;labelBackgroundColor=none;" parent="HDfJIpf2rJyifLne6ltG-158" source="HDfJIpf2rJyifLne6ltG-160" target="HDfJIpf2rJyifLne6ltG-162" edge="1">
          <mxGeometry relative="1" as="geometry">
            <Array as="points">
              <mxPoint x="670" y="342" />
              <mxPoint x="991" y="342" />
            </Array>
          </mxGeometry>
        </mxCell>
        <mxCell id="HDfJIpf2rJyifLne6ltG-173" value="thông tin phiếu nhập" style="edgeLabel;align=center;verticalAlign=middle;resizable=0;points=[];rounded=1;shadow=0;comic=0;strokeColor=default;strokeWidth=1;swimlaneFillColor=#ffffff;fontFamily=Verdana;fontSize=12;fontColor=default;fontStyle=0;labelBackgroundColor=none;fillColor=#e0e0e0;" parent="HDfJIpf2rJyifLne6ltG-172" vertex="1" connectable="0">
          <mxGeometry x="-0.0215" y="3" relative="1" as="geometry">
            <mxPoint x="15" y="-6" as="offset" />
          </mxGeometry>
        </mxCell>
        <mxCell id="HDfJIpf2rJyifLne6ltG-160" value="4.1" style="swimlane;fontStyle=0;childLayout=stackLayout;horizontal=1;startSize=26;fillColor=#e0e0e0;horizontalStack=0;resizeParent=1;resizeLast=0;collapsible=1;marginBottom=0;swimlaneFillColor=#ffffff;align=center;rounded=1;shadow=0;comic=0;labelBackgroundColor=none;strokeWidth=1;fontFamily=Verdana;fontSize=12" parent="HDfJIpf2rJyifLne6ltG-158" vertex="1">
          <mxGeometry x="582" y="218" width="150" height="65" as="geometry" />
        </mxCell>
        <mxCell id="HDfJIpf2rJyifLne6ltG-161" value="Tạo phiếu nhập" style="text;strokeColor=none;fillColor=none;spacingLeft=4;spacingRight=4;whiteSpace=wrap;overflow=hidden;rotatable=0;points=[[0,0.5],[1,0.5]];portConstraint=eastwest;align=center;" parent="HDfJIpf2rJyifLne6ltG-160" vertex="1">
          <mxGeometry y="26" width="150" height="26" as="geometry" />
        </mxCell>
        <mxCell id="HDfJIpf2rJyifLne6ltG-178" value="" style="edgeStyle=orthogonalEdgeStyle;rounded=0;orthogonalLoop=1;jettySize=auto;fontFamily=Verdana;fontSize=12;fontColor=default;fontStyle=0;labelBackgroundColor=none;" parent="HDfJIpf2rJyifLne6ltG-158" source="HDfJIpf2rJyifLne6ltG-159" target="HDfJIpf2rJyifLne6ltG-174" edge="1">
          <mxGeometry relative="1" as="geometry" />
        </mxCell>
        <mxCell id="HDfJIpf2rJyifLne6ltG-180" value="chọn phiếu nhập muốn xem" style="edgeLabel;align=center;verticalAlign=middle;resizable=0;points=[];rounded=1;shadow=0;comic=0;strokeColor=default;strokeWidth=1;swimlaneFillColor=#ffffff;fontFamily=Verdana;fontSize=12;fontColor=default;fontStyle=0;labelBackgroundColor=none;fillColor=#e0e0e0;" parent="HDfJIpf2rJyifLne6ltG-178" vertex="1" connectable="0">
          <mxGeometry x="-0.0888" y="1" relative="1" as="geometry">
            <mxPoint x="10" y="-8" as="offset" />
          </mxGeometry>
        </mxCell>
        <mxCell id="HDfJIpf2rJyifLne6ltG-185" value="" style="edgeStyle=orthogonalEdgeStyle;rounded=0;orthogonalLoop=1;jettySize=auto;fontFamily=Verdana;fontSize=12;fontColor=default;fontStyle=0;labelBackgroundColor=none;" parent="HDfJIpf2rJyifLne6ltG-158" source="HDfJIpf2rJyifLne6ltG-159" target="HDfJIpf2rJyifLne6ltG-176" edge="1">
          <mxGeometry relative="1" as="geometry">
            <Array as="points">
              <mxPoint x="313" y="529" />
            </Array>
          </mxGeometry>
        </mxCell>
        <mxCell id="HDfJIpf2rJyifLne6ltG-189" value="nội dung tìm kiếm" style="edgeLabel;align=center;verticalAlign=middle;resizable=0;points=[];rounded=1;shadow=0;comic=0;strokeColor=default;strokeWidth=1;swimlaneFillColor=#ffffff;fontFamily=Verdana;fontSize=12;fontColor=default;fontStyle=0;labelBackgroundColor=none;fillColor=#e0e0e0;" parent="HDfJIpf2rJyifLne6ltG-185" vertex="1" connectable="0">
          <mxGeometry x="0.5553" y="-2" relative="1" as="geometry">
            <mxPoint x="-35" y="-13" as="offset" />
          </mxGeometry>
        </mxCell>
        <mxCell id="HDfJIpf2rJyifLne6ltG-193" value="" style="edgeStyle=orthogonalEdgeStyle;rounded=0;orthogonalLoop=1;jettySize=auto;fontFamily=Verdana;fontSize=12;fontColor=default;fontStyle=0;labelBackgroundColor=none;" parent="HDfJIpf2rJyifLne6ltG-158" source="HDfJIpf2rJyifLne6ltG-159" target="HDfJIpf2rJyifLne6ltG-160" edge="1">
          <mxGeometry relative="1" as="geometry">
            <Array as="points">
              <mxPoint x="300" y="251" />
            </Array>
          </mxGeometry>
        </mxCell>
        <mxCell id="HDfJIpf2rJyifLne6ltG-194" value="thông tin phiếu nhập" style="edgeLabel;align=center;verticalAlign=middle;resizable=0;points=[];rounded=1;shadow=0;comic=0;strokeColor=default;strokeWidth=1;swimlaneFillColor=#ffffff;fontFamily=Verdana;fontSize=12;fontColor=default;fontStyle=0;labelBackgroundColor=none;fillColor=#e0e0e0;" parent="HDfJIpf2rJyifLne6ltG-193" vertex="1" connectable="0">
          <mxGeometry x="0.2956" y="3" relative="1" as="geometry">
            <mxPoint x="8" y="-9" as="offset" />
          </mxGeometry>
        </mxCell>
        <mxCell id="HDfJIpf2rJyifLne6ltG-159" value="Nhân viên" style="whiteSpace=wrap;rounded=0;shadow=0;comic=0;labelBackgroundColor=none;strokeWidth=1;fontFamily=Verdana;fontSize=12;align=center;" parent="HDfJIpf2rJyifLne6ltG-158" vertex="1">
          <mxGeometry x="240" y="375" width="120" height="50" as="geometry" />
        </mxCell>
        <mxCell id="HDfJIpf2rJyifLne6ltG-181" value="" style="edgeStyle=orthogonalEdgeStyle;rounded=0;orthogonalLoop=1;jettySize=auto;fontFamily=Verdana;fontSize=12;fontColor=default;fontStyle=0;labelBackgroundColor=none;" parent="HDfJIpf2rJyifLne6ltG-158" source="HDfJIpf2rJyifLne6ltG-162" target="HDfJIpf2rJyifLne6ltG-174" edge="1">
          <mxGeometry relative="1" as="geometry">
            <Array as="points">
              <mxPoint x="800" y="414" />
              <mxPoint x="800" y="414" />
            </Array>
          </mxGeometry>
        </mxCell>
        <mxCell id="HDfJIpf2rJyifLne6ltG-187" value="" style="edgeStyle=orthogonalEdgeStyle;rounded=0;orthogonalLoop=1;jettySize=auto;fontFamily=Verdana;fontSize=12;fontColor=default;fontStyle=0;labelBackgroundColor=none;" parent="HDfJIpf2rJyifLne6ltG-158" source="HDfJIpf2rJyifLne6ltG-162" target="HDfJIpf2rJyifLne6ltG-176" edge="1">
          <mxGeometry relative="1" as="geometry">
            <Array as="points">
              <mxPoint x="1018" y="552" />
            </Array>
          </mxGeometry>
        </mxCell>
        <mxCell id="HDfJIpf2rJyifLne6ltG-190" value="danh sách kết quả" style="edgeLabel;align=center;verticalAlign=middle;resizable=0;points=[];rounded=1;shadow=0;comic=0;strokeColor=default;strokeWidth=1;swimlaneFillColor=#ffffff;fontFamily=Verdana;fontSize=12;fontColor=default;fontStyle=0;labelBackgroundColor=none;fillColor=#e0e0e0;" parent="HDfJIpf2rJyifLne6ltG-187" vertex="1" connectable="0">
          <mxGeometry x="0.2033" y="1" relative="1" as="geometry">
            <mxPoint x="-15" y="7" as="offset" />
          </mxGeometry>
        </mxCell>
        <mxCell id="HDfJIpf2rJyifLne6ltG-162" value="Phiếu nhập" style="rounded=0;shadow=0;comic=0;labelBackgroundColor=none;strokeWidth=2;fontFamily=Verdana;fontSize=12;align=center;shape=mxgraph.ios7ui.horLines;fixDash=0;" parent="HDfJIpf2rJyifLne6ltG-158" vertex="1">
          <mxGeometry x="936" y="382.5" width="135" height="50" as="geometry" />
        </mxCell>
        <mxCell id="HDfJIpf2rJyifLne6ltG-165" value="" style="edgeStyle=orthogonalEdgeStyle;rounded=0;orthogonalLoop=1;jettySize=auto;fontFamily=Verdana;fontSize=12;fontColor=default;fontStyle=0;labelBackgroundColor=none;" parent="HDfJIpf2rJyifLne6ltG-158" source="HDfJIpf2rJyifLne6ltG-163" target="HDfJIpf2rJyifLne6ltG-160" edge="1">
          <mxGeometry relative="1" as="geometry">
            <Array as="points">
              <mxPoint x="885" y="248" />
              <mxPoint x="885" y="248" />
            </Array>
          </mxGeometry>
        </mxCell>
        <mxCell id="HDfJIpf2rJyifLne6ltG-166" value="hàng, phiếu nhập hàng" style="edgeLabel;align=center;verticalAlign=middle;resizable=0;points=[];rounded=1;shadow=0;comic=0;strokeColor=default;strokeWidth=1;swimlaneFillColor=#ffffff;fontFamily=Verdana;fontSize=12;fontColor=default;fontStyle=0;labelBackgroundColor=none;fillColor=#e0e0e0;" parent="HDfJIpf2rJyifLne6ltG-165" vertex="1" connectable="0">
          <mxGeometry x="0.0769" relative="1" as="geometry">
            <mxPoint x="14" y="10" as="offset" />
          </mxGeometry>
        </mxCell>
        <mxCell id="HDfJIpf2rJyifLne6ltG-167" value="" style="edgeStyle=orthogonalEdgeStyle;rounded=0;orthogonalLoop=1;jettySize=auto;fontFamily=Verdana;fontSize=12;fontColor=default;fontStyle=0;labelBackgroundColor=none;" parent="HDfJIpf2rJyifLne6ltG-158" source="HDfJIpf2rJyifLne6ltG-160" target="HDfJIpf2rJyifLne6ltG-163" edge="1">
          <mxGeometry relative="1" as="geometry">
            <Array as="points">
              <mxPoint x="896" y="233" />
              <mxPoint x="896" y="233" />
            </Array>
          </mxGeometry>
        </mxCell>
        <mxCell id="HDfJIpf2rJyifLne6ltG-163" value="Nhà cung cấp" style="whiteSpace=wrap;rounded=0;shadow=0;comic=0;labelBackgroundColor=none;strokeWidth=1;fontFamily=Verdana;fontSize=12;align=center;" parent="HDfJIpf2rJyifLne6ltG-158" vertex="1">
          <mxGeometry x="1053" y="218" width="120" height="50" as="geometry" />
        </mxCell>
        <mxCell id="HDfJIpf2rJyifLne6ltG-168" value="thông tin đơn hàng &amp; thanh toán" style="text;align=center;verticalAlign=middle;resizable=0;points=[];autosize=1;strokeColor=none;fillColor=none;fontFamily=Verdana;fontSize=12;fontColor=default;fontStyle=0;labelBackgroundColor=none;" parent="HDfJIpf2rJyifLne6ltG-158" vertex="1">
          <mxGeometry x="784" y="210" width="216" height="26" as="geometry" />
        </mxCell>
        <mxCell id="HDfJIpf2rJyifLne6ltG-179" value="" style="edgeStyle=orthogonalEdgeStyle;rounded=0;orthogonalLoop=1;jettySize=auto;fontFamily=Verdana;fontSize=12;fontColor=default;fontStyle=0;labelBackgroundColor=none;" parent="HDfJIpf2rJyifLne6ltG-158" source="HDfJIpf2rJyifLne6ltG-174" target="HDfJIpf2rJyifLne6ltG-162" edge="1">
          <mxGeometry relative="1" as="geometry">
            <Array as="points">
              <mxPoint x="886" y="400" />
              <mxPoint x="886" y="400" />
            </Array>
          </mxGeometry>
        </mxCell>
        <mxCell id="HDfJIpf2rJyifLne6ltG-174" value="4.2" style="swimlane;fontStyle=0;childLayout=stackLayout;horizontal=1;startSize=26;fillColor=#e0e0e0;horizontalStack=0;resizeParent=1;resizeLast=0;collapsible=1;marginBottom=0;swimlaneFillColor=#ffffff;align=center;rounded=1;shadow=0;comic=0;labelBackgroundColor=none;strokeWidth=1;fontFamily=Verdana;fontSize=12" parent="HDfJIpf2rJyifLne6ltG-158" vertex="1">
          <mxGeometry x="582" y="367.5" width="150" height="65" as="geometry" />
        </mxCell>
        <mxCell id="HDfJIpf2rJyifLne6ltG-175" value="Xem chi tiết phiếu nhập" style="text;strokeColor=none;fillColor=none;spacingLeft=4;spacingRight=4;whiteSpace=wrap;overflow=hidden;rotatable=0;points=[[0,0.5],[1,0.5]];portConstraint=eastwest;align=center;" parent="HDfJIpf2rJyifLne6ltG-174" vertex="1">
          <mxGeometry y="26" width="150" height="26" as="geometry" />
        </mxCell>
        <mxCell id="HDfJIpf2rJyifLne6ltG-186" value="" style="edgeStyle=orthogonalEdgeStyle;rounded=0;orthogonalLoop=1;jettySize=auto;fontFamily=Verdana;fontSize=12;fontColor=default;fontStyle=0;labelBackgroundColor=none;" parent="HDfJIpf2rJyifLne6ltG-158" source="HDfJIpf2rJyifLne6ltG-176" target="HDfJIpf2rJyifLne6ltG-162" edge="1">
          <mxGeometry relative="1" as="geometry">
            <Array as="points">
              <mxPoint x="991" y="528" />
            </Array>
          </mxGeometry>
        </mxCell>
        <mxCell id="HDfJIpf2rJyifLne6ltG-188" value="" style="edgeStyle=orthogonalEdgeStyle;rounded=0;orthogonalLoop=1;jettySize=auto;fontFamily=Verdana;fontSize=12;fontColor=default;fontStyle=0;labelBackgroundColor=none;" parent="HDfJIpf2rJyifLne6ltG-158" source="HDfJIpf2rJyifLne6ltG-176" target="HDfJIpf2rJyifLne6ltG-159" edge="1">
          <mxGeometry relative="1" as="geometry">
            <Array as="points">
              <mxPoint x="289" y="551" />
            </Array>
          </mxGeometry>
        </mxCell>
        <mxCell id="HDfJIpf2rJyifLne6ltG-176" value="4.3" style="swimlane;fontStyle=0;childLayout=stackLayout;horizontal=1;startSize=26;fillColor=#e0e0e0;horizontalStack=0;resizeParent=1;resizeLast=0;collapsible=1;marginBottom=0;swimlaneFillColor=#ffffff;align=center;rounded=1;shadow=0;comic=0;labelBackgroundColor=none;strokeWidth=1;fontFamily=Verdana;fontSize=12" parent="HDfJIpf2rJyifLne6ltG-158" vertex="1">
          <mxGeometry x="582" y="503" width="150" height="65" as="geometry" />
        </mxCell>
        <mxCell id="HDfJIpf2rJyifLne6ltG-177" value="Tìm kiếm phiếu nhập" style="text;strokeColor=none;fillColor=none;spacingLeft=4;spacingRight=4;whiteSpace=wrap;overflow=hidden;rotatable=0;points=[[0,0.5],[1,0.5]];portConstraint=eastwest;align=center;" parent="HDfJIpf2rJyifLne6ltG-176" vertex="1">
          <mxGeometry y="26" width="150" height="26" as="geometry" />
        </mxCell>
        <mxCell id="HDfJIpf2rJyifLne6ltG-182" value="thông tin phiếu nhập" style="edgeLabel;align=center;verticalAlign=middle;resizable=0;points=[];rounded=1;shadow=0;comic=0;strokeColor=default;strokeWidth=1;swimlaneFillColor=#ffffff;fontFamily=Verdana;fontSize=12;fontColor=default;fontStyle=0;labelBackgroundColor=none;fillColor=#e0e0e0;" parent="HDfJIpf2rJyifLne6ltG-158" vertex="1" connectable="0">
          <mxGeometry x="834.0000000000005" y="425.0044827586205" as="geometry" />
        </mxCell>
        <mxCell id="HDfJIpf2rJyifLne6ltG-183" value="" style="edgeStyle=orthogonalEdgeStyle;rounded=0;orthogonalLoop=1;jettySize=auto;fontFamily=Verdana;fontSize=12;fontColor=default;fontStyle=0;labelBackgroundColor=none;" parent="HDfJIpf2rJyifLne6ltG-158" source="HDfJIpf2rJyifLne6ltG-175" target="HDfJIpf2rJyifLne6ltG-159" edge="1">
          <mxGeometry relative="1" as="geometry">
            <Array as="points">
              <mxPoint x="471" y="415" />
              <mxPoint x="471" y="415" />
            </Array>
          </mxGeometry>
        </mxCell>
        <mxCell id="HDfJIpf2rJyifLne6ltG-184" value="thông tin phiếu nhập" style="edgeLabel;align=center;verticalAlign=middle;resizable=0;points=[];rounded=1;shadow=0;comic=0;strokeColor=default;strokeWidth=1;swimlaneFillColor=#ffffff;fontFamily=Verdana;fontSize=12;fontColor=default;fontStyle=0;labelBackgroundColor=none;fillColor=#e0e0e0;" parent="HDfJIpf2rJyifLne6ltG-158" vertex="1" connectable="0">
          <mxGeometry x="471.00000000000045" y="425.0044827586205" as="geometry" />
        </mxCell>
        <mxCell id="HDfJIpf2rJyifLne6ltG-191" value="danh sách kết quả" style="edgeLabel;align=center;verticalAlign=middle;resizable=0;points=[];rounded=1;shadow=0;comic=0;strokeColor=default;strokeWidth=1;swimlaneFillColor=#ffffff;fontFamily=Verdana;fontSize=12;fontColor=default;fontStyle=0;labelBackgroundColor=none;fillColor=#e0e0e0;" parent="HDfJIpf2rJyifLne6ltG-158" vertex="1" connectable="0">
          <mxGeometry x="442.00103448275854" y="560.0044827586205" as="geometry" />
        </mxCell>
        <mxCell id="HDfJIpf2rJyifLne6ltG-263" value="" style="group;" parent="1" vertex="1" connectable="0">
          <mxGeometry x="220" y="959" width="826" height="454" as="geometry" />
        </mxCell>
        <mxCell id="HDfJIpf2rJyifLne6ltG-234" value="" style="edgeStyle=orthogonalEdgeStyle;rounded=0;orthogonalLoop=1;jettySize=auto;fontFamily=Verdana;fontSize=12;fontColor=default;fontStyle=0;labelBackgroundColor=none;" parent="HDfJIpf2rJyifLne6ltG-263" source="HDfJIpf2rJyifLne6ltG-117" target="HDfJIpf2rJyifLne6ltG-230" edge="1">
          <mxGeometry relative="1" as="geometry">
            <Array as="points">
              <mxPoint x="450" y="80" />
              <mxPoint x="450" y="80" />
            </Array>
          </mxGeometry>
        </mxCell>
        <mxCell id="HDfJIpf2rJyifLne6ltG-235" value="thông tin hóa đơn, hàng" style="edgeLabel;align=center;verticalAlign=middle;resizable=0;points=[];rounded=1;shadow=0;comic=0;strokeColor=default;strokeWidth=1;swimlaneFillColor=#ffffff;fontFamily=Verdana;fontSize=12;fontColor=default;fontStyle=0;labelBackgroundColor=none;fillColor=#e0e0e0;" parent="HDfJIpf2rJyifLne6ltG-234" vertex="1" connectable="0">
          <mxGeometry x="0.0876" y="1" relative="1" as="geometry">
            <mxPoint x="80" y="-1" as="offset" />
          </mxGeometry>
        </mxCell>
        <mxCell id="HDfJIpf2rJyifLne6ltG-237" value="" style="edgeStyle=orthogonalEdgeStyle;rounded=0;orthogonalLoop=1;jettySize=auto;fontFamily=Verdana;fontSize=12;fontColor=default;fontStyle=0;labelBackgroundColor=none;" parent="HDfJIpf2rJyifLne6ltG-263" source="HDfJIpf2rJyifLne6ltG-117" target="HDfJIpf2rJyifLne6ltG-236" edge="1">
          <mxGeometry relative="1" as="geometry" />
        </mxCell>
        <mxCell id="HDfJIpf2rJyifLne6ltG-117" value="5.1" style="swimlane;fontStyle=0;childLayout=stackLayout;horizontal=1;startSize=26;fillColor=#e0e0e0;horizontalStack=0;resizeParent=1;resizeLast=0;collapsible=1;marginBottom=0;swimlaneFillColor=#ffffff;align=center;rounded=1;shadow=0;comic=0;labelBackgroundColor=none;strokeWidth=1;fontFamily=Verdana;fontSize=12" parent="HDfJIpf2rJyifLne6ltG-263" vertex="1">
          <mxGeometry x="363" y="112" width="150" height="65" as="geometry" />
        </mxCell>
        <mxCell id="HDfJIpf2rJyifLne6ltG-118" value="Tạo hóa đơn" style="text;strokeColor=none;fillColor=none;spacingLeft=4;spacingRight=4;whiteSpace=wrap;overflow=hidden;rotatable=0;points=[[0,0.5],[1,0.5]];portConstraint=eastwest;align=center;" parent="HDfJIpf2rJyifLne6ltG-117" vertex="1">
          <mxGeometry y="26" width="150" height="26" as="geometry" />
        </mxCell>
        <mxCell id="HDfJIpf2rJyifLne6ltG-229" value="" style="edgeStyle=orthogonalEdgeStyle;rounded=0;orthogonalLoop=1;jettySize=auto;fontFamily=Verdana;fontSize=12;fontColor=default;fontStyle=0;labelBackgroundColor=none;" parent="HDfJIpf2rJyifLne6ltG-263" source="HDfJIpf2rJyifLne6ltG-127" target="HDfJIpf2rJyifLne6ltG-117" edge="1">
          <mxGeometry relative="1" as="geometry">
            <Array as="points">
              <mxPoint x="61" y="145" />
            </Array>
          </mxGeometry>
        </mxCell>
        <mxCell id="HDfJIpf2rJyifLne6ltG-238" value="thông tin hóa đơn" style="edgeLabel;align=center;verticalAlign=middle;resizable=0;points=[];rounded=1;shadow=0;comic=0;strokeColor=default;strokeWidth=1;swimlaneFillColor=#ffffff;fontFamily=Verdana;fontSize=12;fontColor=default;fontStyle=0;labelBackgroundColor=none;fillColor=#e0e0e0;" parent="HDfJIpf2rJyifLne6ltG-229" vertex="1" connectable="0">
          <mxGeometry x="0.104" y="2" relative="1" as="geometry">
            <mxPoint x="16" y="-7" as="offset" />
          </mxGeometry>
        </mxCell>
        <mxCell id="HDfJIpf2rJyifLne6ltG-240" value="" style="edgeStyle=orthogonalEdgeStyle;rounded=0;orthogonalLoop=1;jettySize=auto;fontFamily=Verdana;fontSize=12;fontColor=default;fontStyle=0;labelBackgroundColor=none;" parent="HDfJIpf2rJyifLne6ltG-263" source="HDfJIpf2rJyifLne6ltG-127" target="HDfJIpf2rJyifLne6ltG-130" edge="1">
          <mxGeometry relative="1" as="geometry">
            <Array as="points">
              <mxPoint x="87" y="237" />
            </Array>
          </mxGeometry>
        </mxCell>
        <mxCell id="HDfJIpf2rJyifLne6ltG-244" value="thông tin hóa đơn muốn hủy" style="edgeLabel;align=center;verticalAlign=middle;resizable=0;points=[];rounded=1;shadow=0;comic=0;strokeColor=default;strokeWidth=1;swimlaneFillColor=#ffffff;fontFamily=Verdana;fontSize=12;fontColor=default;fontStyle=0;labelBackgroundColor=none;fillColor=#e0e0e0;" parent="HDfJIpf2rJyifLne6ltG-240" vertex="1" connectable="0">
          <mxGeometry x="-0.1406" y="1" relative="1" as="geometry">
            <mxPoint x="40" y="-6" as="offset" />
          </mxGeometry>
        </mxCell>
        <mxCell id="HDfJIpf2rJyifLne6ltG-247" value="" style="edgeStyle=orthogonalEdgeStyle;rounded=0;orthogonalLoop=1;jettySize=auto;fontFamily=Verdana;fontSize=12;fontColor=default;fontStyle=0;labelBackgroundColor=none;" parent="HDfJIpf2rJyifLne6ltG-263" source="HDfJIpf2rJyifLne6ltG-127" target="HDfJIpf2rJyifLne6ltG-133" edge="1">
          <mxGeometry relative="1" as="geometry">
            <Array as="points">
              <mxPoint x="183" y="308" />
              <mxPoint x="183" y="308" />
            </Array>
          </mxGeometry>
        </mxCell>
        <mxCell id="HDfJIpf2rJyifLne6ltG-249" value="chọn hóa đơn muốn xem" style="edgeLabel;align=center;verticalAlign=middle;resizable=0;points=[];rounded=1;shadow=0;comic=0;strokeColor=default;strokeWidth=1;swimlaneFillColor=#ffffff;fontFamily=Verdana;fontSize=12;fontColor=default;fontStyle=0;labelBackgroundColor=none;fillColor=#e0e0e0;" parent="HDfJIpf2rJyifLne6ltG-247" vertex="1" connectable="0">
          <mxGeometry x="-0.5503" y="2" relative="1" as="geometry">
            <mxPoint x="54" y="-9" as="offset" />
          </mxGeometry>
        </mxCell>
        <mxCell id="HDfJIpf2rJyifLne6ltG-256" value="" style="edgeStyle=orthogonalEdgeStyle;rounded=0;orthogonalLoop=1;jettySize=auto;fontFamily=Verdana;fontSize=12;fontColor=default;fontStyle=0;labelBackgroundColor=none;" parent="HDfJIpf2rJyifLne6ltG-263" source="HDfJIpf2rJyifLne6ltG-127" target="HDfJIpf2rJyifLne6ltG-136" edge="1">
          <mxGeometry relative="1" as="geometry">
            <Array as="points">
              <mxPoint x="74" y="422" />
            </Array>
          </mxGeometry>
        </mxCell>
        <mxCell id="HDfJIpf2rJyifLne6ltG-260" value="nội dung tìm kiếm" style="edgeLabel;align=center;verticalAlign=middle;resizable=0;points=[];rounded=1;shadow=0;comic=0;strokeColor=default;strokeWidth=1;swimlaneFillColor=#ffffff;fontFamily=Verdana;fontSize=12;fontColor=default;fontStyle=0;labelBackgroundColor=none;fillColor=#e0e0e0;" parent="HDfJIpf2rJyifLne6ltG-256" vertex="1" connectable="0">
          <mxGeometry x="-0.1635" y="1" relative="1" as="geometry">
            <mxPoint x="69" y="-8" as="offset" />
          </mxGeometry>
        </mxCell>
        <mxCell id="HDfJIpf2rJyifLne6ltG-127" value="Nhân viên" style="whiteSpace=wrap;rounded=0;shadow=0;comic=0;labelBackgroundColor=none;strokeWidth=1;fontFamily=Verdana;fontSize=12;align=center;" parent="HDfJIpf2rJyifLne6ltG-263" vertex="1">
          <mxGeometry y="283" width="120" height="50" as="geometry" />
        </mxCell>
        <mxCell id="HDfJIpf2rJyifLne6ltG-241" value="" style="edgeStyle=orthogonalEdgeStyle;rounded=0;orthogonalLoop=1;jettySize=auto;fontFamily=Verdana;fontSize=12;fontColor=default;fontStyle=0;labelBackgroundColor=none;" parent="HDfJIpf2rJyifLne6ltG-263" source="HDfJIpf2rJyifLne6ltG-130" target="HDfJIpf2rJyifLne6ltG-236" edge="1">
          <mxGeometry relative="1" as="geometry">
            <Array as="points">
              <mxPoint x="736" y="232" />
            </Array>
          </mxGeometry>
        </mxCell>
        <mxCell id="HDfJIpf2rJyifLne6ltG-130" value="5.2" style="swimlane;fontStyle=0;childLayout=stackLayout;horizontal=1;startSize=26;fillColor=#e0e0e0;horizontalStack=0;resizeParent=1;resizeLast=0;collapsible=1;marginBottom=0;swimlaneFillColor=#ffffff;align=center;rounded=1;shadow=0;comic=0;labelBackgroundColor=none;strokeWidth=1;fontFamily=Verdana;fontSize=12" parent="HDfJIpf2rJyifLne6ltG-263" vertex="1">
          <mxGeometry x="363" y="204" width="150" height="65" as="geometry" />
        </mxCell>
        <mxCell id="HDfJIpf2rJyifLne6ltG-131" value="Hủy hóa đơn" style="text;strokeColor=none;fillColor=none;spacingLeft=4;spacingRight=4;whiteSpace=wrap;overflow=hidden;rotatable=0;points=[[0,0.5],[1,0.5]];portConstraint=eastwest;align=center;" parent="HDfJIpf2rJyifLne6ltG-130" vertex="1">
          <mxGeometry y="26" width="150" height="26" as="geometry" />
        </mxCell>
        <mxCell id="HDfJIpf2rJyifLne6ltG-248" value="" style="edgeStyle=orthogonalEdgeStyle;rounded=0;orthogonalLoop=1;jettySize=auto;fontFamily=Verdana;fontSize=12;fontColor=default;fontStyle=0;labelBackgroundColor=none;" parent="HDfJIpf2rJyifLne6ltG-263" source="HDfJIpf2rJyifLne6ltG-133" target="HDfJIpf2rJyifLne6ltG-236" edge="1">
          <mxGeometry relative="1" as="geometry">
            <Array as="points">
              <mxPoint x="648" y="311" />
              <mxPoint x="648" y="311" />
            </Array>
          </mxGeometry>
        </mxCell>
        <mxCell id="HDfJIpf2rJyifLne6ltG-254" value="" style="edgeStyle=orthogonalEdgeStyle;rounded=0;orthogonalLoop=1;jettySize=auto;fontFamily=Verdana;fontSize=12;fontColor=default;fontStyle=0;labelBackgroundColor=none;" parent="HDfJIpf2rJyifLne6ltG-263" source="HDfJIpf2rJyifLne6ltG-133" target="HDfJIpf2rJyifLne6ltG-127" edge="1">
          <mxGeometry relative="1" as="geometry">
            <Array as="points">
              <mxPoint x="299" y="319" />
              <mxPoint x="299" y="319" />
            </Array>
          </mxGeometry>
        </mxCell>
        <mxCell id="HDfJIpf2rJyifLne6ltG-133" value="5.3" style="swimlane;fontStyle=0;childLayout=stackLayout;horizontal=1;startSize=26;fillColor=#e0e0e0;horizontalStack=0;resizeParent=1;resizeLast=0;collapsible=1;marginBottom=0;swimlaneFillColor=#ffffff;align=center;rounded=1;shadow=0;comic=0;labelBackgroundColor=none;strokeWidth=1;fontFamily=Verdana;fontSize=12" parent="HDfJIpf2rJyifLne6ltG-263" vertex="1">
          <mxGeometry x="363" y="297" width="150" height="65" as="geometry" />
        </mxCell>
        <mxCell id="HDfJIpf2rJyifLne6ltG-134" value="Xem chi tiết hóa đơn" style="text;strokeColor=none;fillColor=none;spacingLeft=4;spacingRight=4;whiteSpace=wrap;overflow=hidden;rotatable=0;points=[[0,0.5],[1,0.5]];portConstraint=eastwest;align=center;" parent="HDfJIpf2rJyifLne6ltG-133" vertex="1">
          <mxGeometry y="26" width="150" height="26" as="geometry" />
        </mxCell>
        <mxCell id="HDfJIpf2rJyifLne6ltG-257" value="" style="edgeStyle=orthogonalEdgeStyle;rounded=0;orthogonalLoop=1;jettySize=auto;fontFamily=Verdana;fontSize=12;fontColor=default;fontStyle=0;labelBackgroundColor=none;" parent="HDfJIpf2rJyifLne6ltG-263" source="HDfJIpf2rJyifLne6ltG-136" target="HDfJIpf2rJyifLne6ltG-236" edge="1">
          <mxGeometry relative="1" as="geometry">
            <Array as="points">
              <mxPoint x="748" y="422" />
            </Array>
          </mxGeometry>
        </mxCell>
        <mxCell id="HDfJIpf2rJyifLne6ltG-259" value="" style="edgeStyle=orthogonalEdgeStyle;rounded=0;orthogonalLoop=1;jettySize=auto;fontFamily=Verdana;fontSize=12;fontColor=default;fontStyle=0;labelBackgroundColor=none;" parent="HDfJIpf2rJyifLne6ltG-263" source="HDfJIpf2rJyifLne6ltG-136" target="HDfJIpf2rJyifLne6ltG-127" edge="1">
          <mxGeometry relative="1" as="geometry">
            <Array as="points">
              <mxPoint x="60" y="436" />
            </Array>
          </mxGeometry>
        </mxCell>
        <mxCell id="HDfJIpf2rJyifLne6ltG-136" value="5.4" style="swimlane;fontStyle=0;childLayout=stackLayout;horizontal=1;startSize=26;fillColor=#e0e0e0;horizontalStack=0;resizeParent=1;resizeLast=0;collapsible=1;marginBottom=0;swimlaneFillColor=#ffffff;align=center;rounded=1;shadow=0;comic=0;labelBackgroundColor=none;strokeWidth=1;fontFamily=Verdana;fontSize=12" parent="HDfJIpf2rJyifLne6ltG-263" vertex="1">
          <mxGeometry x="363" y="389" width="150" height="65" as="geometry" />
        </mxCell>
        <mxCell id="HDfJIpf2rJyifLne6ltG-137" value="Tìm kiếm hóa đơn" style="text;strokeColor=none;fillColor=none;spacingLeft=4;spacingRight=4;whiteSpace=wrap;overflow=hidden;rotatable=0;points=[[0,0.5],[1,0.5]];portConstraint=eastwest;align=center;" parent="HDfJIpf2rJyifLne6ltG-136" vertex="1">
          <mxGeometry y="26" width="150" height="26" as="geometry" />
        </mxCell>
        <mxCell id="HDfJIpf2rJyifLne6ltG-232" value="" style="edgeStyle=orthogonalEdgeStyle;rounded=0;orthogonalLoop=1;jettySize=auto;fontFamily=Verdana;fontSize=12;fontColor=default;fontStyle=0;labelBackgroundColor=none;" parent="HDfJIpf2rJyifLne6ltG-263" source="HDfJIpf2rJyifLne6ltG-230" target="HDfJIpf2rJyifLne6ltG-117" edge="1">
          <mxGeometry relative="1" as="geometry">
            <Array as="points">
              <mxPoint x="425" y="75" />
              <mxPoint x="425" y="75" />
            </Array>
          </mxGeometry>
        </mxCell>
        <mxCell id="HDfJIpf2rJyifLne6ltG-233" value="thông tin khách hàng" style="edgeLabel;align=center;verticalAlign=middle;resizable=0;points=[];rounded=1;shadow=0;comic=0;strokeColor=default;strokeWidth=1;swimlaneFillColor=#ffffff;fontFamily=Verdana;fontSize=12;fontColor=default;fontStyle=0;labelBackgroundColor=none;fillColor=#e0e0e0;" parent="HDfJIpf2rJyifLne6ltG-232" vertex="1" connectable="0">
          <mxGeometry x="-0.0415" y="-2" relative="1" as="geometry">
            <mxPoint x="-67" y="-2" as="offset" />
          </mxGeometry>
        </mxCell>
        <mxCell id="HDfJIpf2rJyifLne6ltG-230" value="Khách hàng" style="whiteSpace=wrap;rounded=0;shadow=0;comic=0;labelBackgroundColor=none;strokeWidth=1;fontFamily=Verdana;fontSize=12;align=center;" parent="HDfJIpf2rJyifLne6ltG-263" vertex="1">
          <mxGeometry x="375" width="120" height="50" as="geometry" />
        </mxCell>
        <mxCell id="HDfJIpf2rJyifLne6ltG-242" value="" style="edgeStyle=orthogonalEdgeStyle;rounded=0;orthogonalLoop=1;jettySize=auto;fontFamily=Verdana;fontSize=12;fontColor=default;fontStyle=0;labelBackgroundColor=none;" parent="HDfJIpf2rJyifLne6ltG-263" source="HDfJIpf2rJyifLne6ltG-236" target="HDfJIpf2rJyifLne6ltG-130" edge="1">
          <mxGeometry relative="1" as="geometry">
            <Array as="points">
              <mxPoint x="721" y="245" />
            </Array>
          </mxGeometry>
        </mxCell>
        <mxCell id="HDfJIpf2rJyifLne6ltG-245" value="kết quả hủy hóa đơn" style="edgeLabel;align=center;verticalAlign=middle;resizable=0;points=[];rounded=1;shadow=0;comic=0;strokeColor=default;strokeWidth=1;swimlaneFillColor=#ffffff;fontFamily=Verdana;fontSize=12;fontColor=default;fontStyle=0;labelBackgroundColor=none;fillColor=#e0e0e0;" parent="HDfJIpf2rJyifLne6ltG-242" vertex="1" connectable="0">
          <mxGeometry x="-0.0017" y="-1" relative="1" as="geometry">
            <mxPoint x="-7" y="12" as="offset" />
          </mxGeometry>
        </mxCell>
        <mxCell id="HDfJIpf2rJyifLne6ltG-252" value="" style="edgeStyle=orthogonalEdgeStyle;rounded=0;orthogonalLoop=1;jettySize=auto;fontFamily=Verdana;fontSize=12;fontColor=default;fontStyle=0;labelBackgroundColor=none;" parent="HDfJIpf2rJyifLne6ltG-263" source="HDfJIpf2rJyifLne6ltG-236" target="HDfJIpf2rJyifLne6ltG-133" edge="1">
          <mxGeometry relative="1" as="geometry">
            <Array as="points">
              <mxPoint x="556" y="325" />
              <mxPoint x="556" y="325" />
            </Array>
          </mxGeometry>
        </mxCell>
        <mxCell id="HDfJIpf2rJyifLne6ltG-258" value="" style="edgeStyle=orthogonalEdgeStyle;rounded=0;orthogonalLoop=1;jettySize=auto;fontFamily=Verdana;fontSize=12;fontColor=default;fontStyle=0;labelBackgroundColor=none;" parent="HDfJIpf2rJyifLne6ltG-263" source="HDfJIpf2rJyifLne6ltG-236" target="HDfJIpf2rJyifLne6ltG-136" edge="1">
          <mxGeometry relative="1" as="geometry">
            <Array as="points">
              <mxPoint x="767" y="438" />
            </Array>
          </mxGeometry>
        </mxCell>
        <mxCell id="HDfJIpf2rJyifLne6ltG-261" value="danh sách kết quả" style="edgeLabel;align=center;verticalAlign=middle;resizable=0;points=[];rounded=1;shadow=0;comic=0;strokeColor=default;strokeWidth=1;swimlaneFillColor=#ffffff;fontFamily=Verdana;fontSize=12;fontColor=default;fontStyle=0;labelBackgroundColor=none;fillColor=#e0e0e0;" parent="HDfJIpf2rJyifLne6ltG-258" vertex="1" connectable="0">
          <mxGeometry x="0.3831" y="1" relative="1" as="geometry">
            <mxPoint x="13" y="10" as="offset" />
          </mxGeometry>
        </mxCell>
        <mxCell id="HDfJIpf2rJyifLne6ltG-236" value="Hóa đơn" style="rounded=0;shadow=0;comic=0;labelBackgroundColor=none;strokeWidth=2;fontFamily=Verdana;fontSize=12;align=center;shape=mxgraph.ios7ui.horLines;" parent="HDfJIpf2rJyifLne6ltG-263" vertex="1">
          <mxGeometry x="691" y="283" width="135" height="50" as="geometry" />
        </mxCell>
        <mxCell id="HDfJIpf2rJyifLne6ltG-239" value="thông tin hóa đơn" style="edgeLabel;align=center;verticalAlign=middle;resizable=0;points=[];rounded=1;shadow=0;comic=0;strokeColor=default;strokeWidth=1;swimlaneFillColor=#ffffff;fontFamily=Verdana;fontSize=12;fontColor=default;fontStyle=0;labelBackgroundColor=none;fillColor=#e0e0e0;" parent="HDfJIpf2rJyifLne6ltG-263" vertex="1" connectable="0">
          <mxGeometry x="636.9991304347825" y="135.99652173913046" as="geometry" />
        </mxCell>
        <mxCell id="HDfJIpf2rJyifLne6ltG-243" value="" style="edgeStyle=orthogonalEdgeStyle;rounded=0;orthogonalLoop=1;jettySize=auto;fontFamily=Verdana;fontSize=12;fontColor=default;fontStyle=0;labelBackgroundColor=none;" parent="HDfJIpf2rJyifLne6ltG-263" source="HDfJIpf2rJyifLne6ltG-131" target="HDfJIpf2rJyifLne6ltG-127" edge="1">
          <mxGeometry relative="1" as="geometry">
            <Array as="points">
              <mxPoint x="106" y="250" />
            </Array>
          </mxGeometry>
        </mxCell>
        <mxCell id="HDfJIpf2rJyifLne6ltG-246" value="kết quả hủy hóa đơn" style="edgeLabel;align=center;verticalAlign=middle;resizable=0;points=[];rounded=1;shadow=0;comic=0;strokeColor=default;strokeWidth=1;swimlaneFillColor=#ffffff;fontFamily=Verdana;fontSize=12;fontColor=default;fontStyle=0;labelBackgroundColor=none;fillColor=#e0e0e0;" parent="HDfJIpf2rJyifLne6ltG-263" vertex="1" connectable="0">
          <mxGeometry x="232.0021212121215" y="259.00030303030303" as="geometry" />
        </mxCell>
        <mxCell id="HDfJIpf2rJyifLne6ltG-253" value="thông tin hóa đơn" style="edgeLabel;align=center;verticalAlign=middle;resizable=0;points=[];rounded=1;shadow=0;comic=0;strokeColor=default;strokeWidth=1;swimlaneFillColor=#ffffff;fontFamily=Verdana;fontSize=12;fontColor=default;fontStyle=0;labelBackgroundColor=none;fillColor=#e0e0e0;" parent="HDfJIpf2rJyifLne6ltG-263" vertex="1" connectable="0">
          <mxGeometry x="598.0006060606063" y="333.00030303030303" as="geometry" />
        </mxCell>
        <mxCell id="HDfJIpf2rJyifLne6ltG-255" value="thông tin hóa đơn" style="edgeLabel;align=center;verticalAlign=middle;resizable=0;points=[];rounded=1;shadow=0;comic=0;strokeColor=default;strokeWidth=1;swimlaneFillColor=#ffffff;fontFamily=Verdana;fontSize=12;fontColor=default;fontStyle=0;labelBackgroundColor=none;fillColor=#e0e0e0;" parent="HDfJIpf2rJyifLne6ltG-263" vertex="1" connectable="0">
          <mxGeometry x="236.0006060606063" y="327.00030303030303" as="geometry" />
        </mxCell>
        <mxCell id="HDfJIpf2rJyifLne6ltG-262" value="danh sách kết quả" style="edgeLabel;align=center;verticalAlign=middle;resizable=0;points=[];rounded=1;shadow=0;comic=0;strokeColor=default;strokeWidth=1;swimlaneFillColor=#ffffff;fontFamily=Verdana;fontSize=12;fontColor=default;fontStyle=0;labelBackgroundColor=none;fillColor=#e0e0e0;" parent="HDfJIpf2rJyifLne6ltG-263" vertex="1" connectable="0">
          <mxGeometry x="211.99515151515152" y="445" as="geometry" />
        </mxCell>
        <mxCell id="HDfJIpf2rJyifLne6ltG-266" value="2.4 DFD Quản lý nhà cung cấp" style="swimlane;whiteSpace=wrap;rounded=1;shadow=0;comic=0;strokeColor=default;strokeWidth=1;align=center;verticalAlign=middle;swimlaneFillColor=#ffffff;fontFamily=Verdana;fontSize=12;fontColor=default;fontStyle=0;labelBackgroundColor=none;fillColor=#e0e0e0;" parent="1" vertex="1">
          <mxGeometry x="1567" y="815" width="1396" height="784" as="geometry" />
        </mxCell>
        <mxCell id="HDfJIpf2rJyifLne6ltG-313" value="thông tin nhà cung cấp" style="edgeLabel;align=center;verticalAlign=middle;resizable=0;points=[];rounded=1;shadow=0;comic=0;strokeColor=default;strokeWidth=1;swimlaneFillColor=#ffffff;fontFamily=Verdana;fontSize=12;fontColor=default;fontStyle=0;labelBackgroundColor=none;fillColor=#e0e0e0;" parent="HDfJIpf2rJyifLne6ltG-266" vertex="1" connectable="0">
          <mxGeometry x="886" y="513" as="geometry" />
        </mxCell>
        <mxCell id="HDfJIpf2rJyifLne6ltG-310" value="thông tin nhà cung cấp" style="edgeLabel;align=center;verticalAlign=middle;resizable=0;points=[];rounded=1;shadow=0;comic=0;strokeColor=default;strokeWidth=1;swimlaneFillColor=#ffffff;fontFamily=Verdana;fontSize=12;fontColor=default;fontStyle=0;labelBackgroundColor=none;fillColor=#e0e0e0;" parent="HDfJIpf2rJyifLne6ltG-266" vertex="1" connectable="0">
          <mxGeometry x="922" y="403" as="geometry" />
        </mxCell>
        <mxCell id="HDfJIpf2rJyifLne6ltG-267" value="" style="edgeStyle=orthogonalEdgeStyle;rounded=0;orthogonalLoop=1;jettySize=auto;fontFamily=Verdana;fontSize=12;fontColor=default;fontStyle=0;labelBackgroundColor=none;" parent="1" source="HDfJIpf2rJyifLne6ltG-270" target="HDfJIpf2rJyifLne6ltG-275" edge="1">
          <mxGeometry relative="1" as="geometry">
            <Array as="points">
              <mxPoint x="2456" y="1032.5" />
              <mxPoint x="2456" y="1032.5" />
            </Array>
          </mxGeometry>
        </mxCell>
        <mxCell id="HDfJIpf2rJyifLne6ltG-268" value="danh sách nhà cung cấp" style="edgeLabel;align=center;verticalAlign=middle;resizable=0;points=[];rounded=1;shadow=0;comic=0;strokeColor=default;strokeWidth=1;swimlaneFillColor=#ffffff;fontFamily=Verdana;fontSize=12;fontColor=default;fontStyle=0;labelBackgroundColor=none;fillColor=#e0e0e0;" parent="HDfJIpf2rJyifLne6ltG-267" vertex="1" connectable="0">
          <mxGeometry x="0.4435" y="1" relative="1" as="geometry">
            <mxPoint x="50" y="-14" as="offset" />
          </mxGeometry>
        </mxCell>
        <mxCell id="HDfJIpf2rJyifLne6ltG-269" value="" style="edgeStyle=orthogonalEdgeStyle;rounded=0;orthogonalLoop=1;jettySize=auto;fontFamily=Verdana;fontSize=12;fontColor=default;fontStyle=0;labelBackgroundColor=none;" parent="1" source="HDfJIpf2rJyifLne6ltG-270" target="HDfJIpf2rJyifLne6ltG-288" edge="1">
          <mxGeometry relative="1" as="geometry">
            <Array as="points">
              <mxPoint x="2651" y="1146.5" />
            </Array>
          </mxGeometry>
        </mxCell>
        <mxCell id="HDfJIpf2rJyifLne6ltG-270" value="Nhà cung cấp" style="rounded=0;shadow=0;comic=0;labelBackgroundColor=none;strokeWidth=2;fontFamily=Verdana;fontSize=12;align=center;shape=mxgraph.ios7ui.horLines;fixDash=0;" parent="1" vertex="1">
          <mxGeometry x="2570" y="1019.5" width="135" height="50" as="geometry" />
        </mxCell>
        <mxCell id="HDfJIpf2rJyifLne6ltG-271" value="" style="edgeStyle=orthogonalEdgeStyle;rounded=0;orthogonalLoop=1;jettySize=auto;fontFamily=Verdana;fontSize=12;fontColor=default;fontStyle=0;labelBackgroundColor=none;" parent="1" source="HDfJIpf2rJyifLne6ltG-275" target="HDfJIpf2rJyifLne6ltG-270" edge="1">
          <mxGeometry relative="1" as="geometry">
            <Array as="points">
              <mxPoint x="2458" y="1054.5" />
              <mxPoint x="2458" y="1054.5" />
            </Array>
          </mxGeometry>
        </mxCell>
        <mxCell id="HDfJIpf2rJyifLne6ltG-272" value="thông tin nhà cung cấp" style="edgeLabel;align=center;verticalAlign=middle;resizable=0;points=[];rounded=1;shadow=0;comic=0;strokeColor=default;strokeWidth=1;swimlaneFillColor=#ffffff;fontFamily=Verdana;fontSize=12;fontColor=default;fontStyle=0;labelBackgroundColor=none;fillColor=#e0e0e0;" parent="HDfJIpf2rJyifLne6ltG-271" vertex="1" connectable="0">
          <mxGeometry x="-0.1043" y="-3" relative="1" as="geometry">
            <mxPoint x="7" y="7" as="offset" />
          </mxGeometry>
        </mxCell>
        <mxCell id="HDfJIpf2rJyifLne6ltG-273" value="" style="edgeStyle=orthogonalEdgeStyle;rounded=0;orthogonalLoop=1;jettySize=auto;fontFamily=Verdana;fontSize=12;fontColor=default;fontStyle=0;labelBackgroundColor=none;" parent="1" source="HDfJIpf2rJyifLne6ltG-275" target="HDfJIpf2rJyifLne6ltG-285" edge="1">
          <mxGeometry relative="1" as="geometry">
            <Array as="points">
              <mxPoint x="1860" y="1034" />
            </Array>
          </mxGeometry>
        </mxCell>
        <mxCell id="HDfJIpf2rJyifLne6ltG-274" value="thông tin kết quả thêm nhà cung cấp" style="edgeLabel;align=center;verticalAlign=middle;resizable=0;points=[];rounded=1;shadow=0;comic=0;strokeColor=default;strokeWidth=1;swimlaneFillColor=#ffffff;fontFamily=Verdana;fontSize=12;fontColor=default;fontStyle=0;labelBackgroundColor=none;fillColor=#e0e0e0;" parent="HDfJIpf2rJyifLne6ltG-273" vertex="1" connectable="0">
          <mxGeometry x="-0.2156" y="-1" relative="1" as="geometry">
            <mxPoint x="42" y="-11" as="offset" />
          </mxGeometry>
        </mxCell>
        <mxCell id="HDfJIpf2rJyifLne6ltG-275" value="4.1" style="swimlane;fontStyle=0;childLayout=stackLayout;horizontal=1;startSize=26;fillColor=#e0e0e0;horizontalStack=0;resizeParent=1;resizeLast=0;collapsible=1;marginBottom=0;swimlaneFillColor=#ffffff;align=center;rounded=1;shadow=0;comic=0;labelBackgroundColor=none;strokeWidth=1;fontFamily=Verdana;fontSize=12" parent="1" vertex="1">
          <mxGeometry x="2190" y="1012" width="150" height="65" as="geometry" />
        </mxCell>
        <mxCell id="HDfJIpf2rJyifLne6ltG-276" value="Thêm nhà cung cấp" style="text;strokeColor=none;fillColor=none;spacingLeft=4;spacingRight=4;whiteSpace=wrap;overflow=hidden;rotatable=0;points=[[0,0.5],[1,0.5]];portConstraint=eastwest;align=center;" parent="HDfJIpf2rJyifLne6ltG-275" vertex="1">
          <mxGeometry y="26" width="150" height="26" as="geometry" />
        </mxCell>
        <mxCell id="HDfJIpf2rJyifLne6ltG-277" value="" style="edgeStyle=orthogonalEdgeStyle;rounded=0;orthogonalLoop=1;jettySize=auto;fontFamily=Verdana;fontSize=12;fontColor=default;fontStyle=0;labelBackgroundColor=none;" parent="1" source="HDfJIpf2rJyifLne6ltG-285" target="HDfJIpf2rJyifLne6ltG-275" edge="1">
          <mxGeometry relative="1" as="geometry">
            <Array as="points">
              <mxPoint x="1891" y="1059" />
            </Array>
          </mxGeometry>
        </mxCell>
        <mxCell id="HDfJIpf2rJyifLne6ltG-278" value="thông tin nhà cung cấp" style="edgeLabel;align=center;verticalAlign=middle;resizable=0;points=[];rounded=1;shadow=0;comic=0;strokeColor=default;strokeWidth=1;swimlaneFillColor=#ffffff;fontFamily=Verdana;fontSize=12;fontColor=default;fontStyle=0;labelBackgroundColor=none;fillColor=#e0e0e0;" parent="HDfJIpf2rJyifLne6ltG-277" vertex="1" connectable="0">
          <mxGeometry x="0.3411" y="-3" relative="1" as="geometry">
            <mxPoint x="10" y="6" as="offset" />
          </mxGeometry>
        </mxCell>
        <mxCell id="HDfJIpf2rJyifLne6ltG-279" value="" style="edgeStyle=orthogonalEdgeStyle;rounded=0;orthogonalLoop=1;jettySize=auto;fontFamily=Verdana;fontSize=12;fontColor=default;fontStyle=0;labelBackgroundColor=none;" parent="1" source="HDfJIpf2rJyifLne6ltG-285" target="HDfJIpf2rJyifLne6ltG-288" edge="1">
          <mxGeometry relative="1" as="geometry">
            <Array as="points">
              <mxPoint x="1944" y="1213" />
              <mxPoint x="1944" y="1129" />
            </Array>
          </mxGeometry>
        </mxCell>
        <mxCell id="HDfJIpf2rJyifLne6ltG-280" value="" style="edgeStyle=orthogonalEdgeStyle;rounded=0;orthogonalLoop=1;jettySize=auto;fontFamily=Verdana;fontSize=12;fontColor=default;fontStyle=0;labelBackgroundColor=none;" parent="1" source="HDfJIpf2rJyifLne6ltG-285" target="HDfJIpf2rJyifLne6ltG-291" edge="1">
          <mxGeometry relative="1" as="geometry">
            <Array as="points">
              <mxPoint x="2056" y="1231" />
              <mxPoint x="2056" y="1231" />
            </Array>
          </mxGeometry>
        </mxCell>
        <mxCell id="HDfJIpf2rJyifLne6ltG-281" value="" style="edgeStyle=orthogonalEdgeStyle;rounded=0;orthogonalLoop=1;jettySize=auto;fontFamily=Verdana;fontSize=12;fontColor=default;fontStyle=0;labelBackgroundColor=none;" parent="1" source="HDfJIpf2rJyifLne6ltG-285" target="HDfJIpf2rJyifLne6ltG-294" edge="1">
          <mxGeometry relative="1" as="geometry">
            <Array as="points">
              <mxPoint x="1898" y="1312" />
            </Array>
          </mxGeometry>
        </mxCell>
        <mxCell id="HDfJIpf2rJyifLne6ltG-282" value="chọn nhà cung cấp muốn xem" style="edgeLabel;align=center;verticalAlign=middle;resizable=0;points=[];rounded=1;shadow=0;comic=0;strokeColor=default;strokeWidth=1;swimlaneFillColor=#ffffff;fontFamily=Verdana;fontSize=12;fontColor=default;fontStyle=0;labelBackgroundColor=none;fillColor=#e0e0e0;" parent="HDfJIpf2rJyifLne6ltG-281" vertex="1" connectable="0">
          <mxGeometry x="-0.2182" y="3" relative="1" as="geometry">
            <mxPoint x="61" y="-5" as="offset" />
          </mxGeometry>
        </mxCell>
        <mxCell id="HDfJIpf2rJyifLne6ltG-283" value="" style="edgeStyle=orthogonalEdgeStyle;rounded=0;orthogonalLoop=1;jettySize=auto;fontFamily=Verdana;fontSize=12;fontColor=default;fontStyle=0;labelBackgroundColor=none;" parent="1" source="HDfJIpf2rJyifLne6ltG-285" target="HDfJIpf2rJyifLne6ltG-299" edge="1">
          <mxGeometry relative="1" as="geometry">
            <Array as="points">
              <mxPoint x="1860" y="1411" />
            </Array>
          </mxGeometry>
        </mxCell>
        <mxCell id="HDfJIpf2rJyifLne6ltG-284" value="nội dung tìm kiếm" style="edgeLabel;align=center;verticalAlign=middle;resizable=0;points=[];rounded=1;shadow=0;comic=0;strokeColor=default;strokeWidth=1;swimlaneFillColor=#ffffff;fontFamily=Verdana;fontSize=12;fontColor=default;fontStyle=0;labelBackgroundColor=none;fillColor=#e0e0e0;" parent="HDfJIpf2rJyifLne6ltG-283" vertex="1" connectable="0">
          <mxGeometry x="0.3041" y="-1" relative="1" as="geometry">
            <mxPoint x="1" y="-8" as="offset" />
          </mxGeometry>
        </mxCell>
        <mxCell id="HDfJIpf2rJyifLne6ltG-285" value="Nhân viên" style="whiteSpace=wrap;rounded=0;shadow=0;comic=0;labelBackgroundColor=none;strokeWidth=1;fontFamily=Verdana;fontSize=12;align=center;" parent="1" vertex="1">
          <mxGeometry x="1800" y="1206.5" width="120" height="50" as="geometry" />
        </mxCell>
        <mxCell id="HDfJIpf2rJyifLne6ltG-286" value="" style="edgeStyle=orthogonalEdgeStyle;rounded=0;orthogonalLoop=1;jettySize=auto;fontFamily=Verdana;fontSize=12;fontColor=default;fontStyle=0;labelBackgroundColor=none;" parent="1" source="HDfJIpf2rJyifLne6ltG-288" target="HDfJIpf2rJyifLne6ltG-270" edge="1">
          <mxGeometry relative="1" as="geometry">
            <Array as="points">
              <mxPoint x="2626" y="1125" />
            </Array>
          </mxGeometry>
        </mxCell>
        <mxCell id="HDfJIpf2rJyifLne6ltG-287" value="" style="edgeStyle=orthogonalEdgeStyle;rounded=0;orthogonalLoop=1;jettySize=auto;fontFamily=Verdana;fontSize=12;fontColor=default;fontStyle=0;labelBackgroundColor=none;" parent="1" source="HDfJIpf2rJyifLne6ltG-288" target="HDfJIpf2rJyifLne6ltG-285" edge="1">
          <mxGeometry relative="1" as="geometry">
            <Array as="points">
              <mxPoint x="1963" y="1152" />
              <mxPoint x="1963" y="1220" />
            </Array>
          </mxGeometry>
        </mxCell>
        <mxCell id="HDfJIpf2rJyifLne6ltG-288" value="4.2" style="swimlane;fontStyle=0;childLayout=stackLayout;horizontal=1;startSize=26;fillColor=#e0e0e0;horizontalStack=0;resizeParent=1;resizeLast=0;collapsible=1;marginBottom=0;swimlaneFillColor=#ffffff;align=center;rounded=1;shadow=0;comic=0;labelBackgroundColor=none;strokeWidth=1;fontFamily=Verdana;fontSize=12" parent="1" vertex="1">
          <mxGeometry x="2190" y="1104" width="150" height="65" as="geometry" />
        </mxCell>
        <mxCell id="HDfJIpf2rJyifLne6ltG-289" value="Chỉnh sửa nhà cung cấp" style="text;strokeColor=none;fillColor=none;spacingLeft=4;spacingRight=4;whiteSpace=wrap;overflow=hidden;rotatable=0;points=[[0,0.5],[1,0.5]];portConstraint=eastwest;align=center;" parent="HDfJIpf2rJyifLne6ltG-288" vertex="1">
          <mxGeometry y="26" width="150" height="26" as="geometry" />
        </mxCell>
        <mxCell id="HDfJIpf2rJyifLne6ltG-290" value="" style="edgeStyle=orthogonalEdgeStyle;rounded=0;orthogonalLoop=1;jettySize=auto;fontFamily=Verdana;fontSize=12;fontColor=default;fontStyle=0;labelBackgroundColor=none;" parent="1" source="HDfJIpf2rJyifLne6ltG-291" target="HDfJIpf2rJyifLne6ltG-285" edge="1">
          <mxGeometry relative="1" as="geometry">
            <Array as="points">
              <mxPoint x="2053" y="1242" />
              <mxPoint x="2053" y="1242" />
            </Array>
          </mxGeometry>
        </mxCell>
        <mxCell id="HDfJIpf2rJyifLne6ltG-291" value="4.3" style="swimlane;fontStyle=0;childLayout=stackLayout;horizontal=1;startSize=26;fillColor=#e0e0e0;horizontalStack=0;resizeParent=1;resizeLast=0;collapsible=1;marginBottom=0;swimlaneFillColor=#ffffff;align=center;rounded=1;shadow=0;comic=0;labelBackgroundColor=none;strokeWidth=1;fontFamily=Verdana;fontSize=12" parent="1" vertex="1">
          <mxGeometry x="2190" y="1197" width="150" height="65" as="geometry" />
        </mxCell>
        <mxCell id="HDfJIpf2rJyifLne6ltG-292" value="Xóa nhà cung cấp" style="text;strokeColor=none;fillColor=none;spacingLeft=4;spacingRight=4;whiteSpace=wrap;overflow=hidden;rotatable=0;points=[[0,0.5],[1,0.5]];portConstraint=eastwest;align=center;" parent="HDfJIpf2rJyifLne6ltG-291" vertex="1">
          <mxGeometry y="26" width="150" height="26" as="geometry" />
        </mxCell>
        <mxCell id="HDfJIpf2rJyifLne6ltG-293" value="" style="edgeStyle=orthogonalEdgeStyle;rounded=0;orthogonalLoop=1;jettySize=auto;fontFamily=Verdana;fontSize=12;fontColor=default;fontStyle=0;labelBackgroundColor=none;" parent="1" source="HDfJIpf2rJyifLne6ltG-294" target="HDfJIpf2rJyifLne6ltG-304" edge="1">
          <mxGeometry relative="1" as="geometry">
            <Array as="points">
              <mxPoint x="2478" y="1308" />
              <mxPoint x="2478" y="1308" />
            </Array>
          </mxGeometry>
        </mxCell>
        <mxCell id="HDfJIpf2rJyifLne6ltG-294" value="4.4" style="swimlane;fontStyle=0;childLayout=stackLayout;horizontal=1;startSize=26;fillColor=#e0e0e0;horizontalStack=0;resizeParent=1;resizeLast=0;collapsible=1;marginBottom=0;swimlaneFillColor=#ffffff;align=center;rounded=1;shadow=0;comic=0;labelBackgroundColor=none;strokeWidth=1;fontFamily=Verdana;fontSize=12" parent="1" vertex="1">
          <mxGeometry x="2190" y="1289" width="150" height="65" as="geometry" />
        </mxCell>
        <mxCell id="HDfJIpf2rJyifLne6ltG-295" value="Xem chi tiết nhà cung cấp" style="text;strokeColor=none;fillColor=none;spacingLeft=4;spacingRight=4;whiteSpace=wrap;overflow=hidden;rotatable=0;points=[[0,0.5],[1,0.5]];portConstraint=eastwest;align=center;" parent="HDfJIpf2rJyifLne6ltG-294" vertex="1">
          <mxGeometry y="26" width="150" height="26" as="geometry" />
        </mxCell>
        <mxCell id="HDfJIpf2rJyifLne6ltG-296" value="" style="edgeStyle=orthogonalEdgeStyle;rounded=0;orthogonalLoop=1;jettySize=auto;fontFamily=Verdana;fontSize=12;fontColor=default;fontStyle=0;labelBackgroundColor=none;" parent="1" source="HDfJIpf2rJyifLne6ltG-299" target="HDfJIpf2rJyifLne6ltG-304" edge="1">
          <mxGeometry relative="1" as="geometry">
            <Array as="points">
              <mxPoint x="2628" y="1413" />
            </Array>
          </mxGeometry>
        </mxCell>
        <mxCell id="HDfJIpf2rJyifLne6ltG-297" value="" style="edgeStyle=orthogonalEdgeStyle;rounded=0;orthogonalLoop=1;jettySize=auto;fontFamily=Verdana;fontSize=12;fontColor=default;fontStyle=0;labelBackgroundColor=none;" parent="1" source="HDfJIpf2rJyifLne6ltG-299" target="HDfJIpf2rJyifLne6ltG-285" edge="1">
          <mxGeometry relative="1" as="geometry">
            <Array as="points">
              <mxPoint x="1843" y="1429" />
            </Array>
          </mxGeometry>
        </mxCell>
        <mxCell id="HDfJIpf2rJyifLne6ltG-298" value="kết quả tìm kiếm" style="edgeLabel;align=center;verticalAlign=middle;resizable=0;points=[];rounded=1;shadow=0;comic=0;strokeColor=default;strokeWidth=1;swimlaneFillColor=#ffffff;fontFamily=Verdana;fontSize=12;fontColor=default;fontStyle=0;labelBackgroundColor=none;fillColor=#e0e0e0;" parent="HDfJIpf2rJyifLne6ltG-297" vertex="1" connectable="0">
          <mxGeometry x="-0.3031" y="3" relative="1" as="geometry">
            <mxPoint x="15" y="6" as="offset" />
          </mxGeometry>
        </mxCell>
        <mxCell id="HDfJIpf2rJyifLne6ltG-299" value="4.5" style="swimlane;fontStyle=0;childLayout=stackLayout;horizontal=1;startSize=26;fillColor=#e0e0e0;horizontalStack=0;resizeParent=1;resizeLast=0;collapsible=1;marginBottom=0;swimlaneFillColor=#ffffff;align=center;rounded=1;shadow=0;comic=0;labelBackgroundColor=none;strokeWidth=1;fontFamily=Verdana;fontSize=12" parent="1" vertex="1">
          <mxGeometry x="2190" y="1381" width="150" height="65" as="geometry" />
        </mxCell>
        <mxCell id="HDfJIpf2rJyifLne6ltG-300" value="Tìm kiếm nhà cung cấp " style="text;strokeColor=none;fillColor=none;spacingLeft=4;spacingRight=4;whiteSpace=wrap;overflow=hidden;rotatable=0;points=[[0,0.5],[1,0.5]];portConstraint=eastwest;align=center;" parent="HDfJIpf2rJyifLne6ltG-299" vertex="1">
          <mxGeometry y="26" width="150" height="26" as="geometry" />
        </mxCell>
        <mxCell id="HDfJIpf2rJyifLne6ltG-301" value="" style="edgeStyle=orthogonalEdgeStyle;rounded=0;orthogonalLoop=1;jettySize=auto;fontFamily=Verdana;fontSize=12;fontColor=default;fontStyle=0;labelBackgroundColor=none;" parent="1" source="HDfJIpf2rJyifLne6ltG-304" target="HDfJIpf2rJyifLne6ltG-291" edge="1">
          <mxGeometry relative="1" as="geometry">
            <Array as="points">
              <mxPoint x="2629" y="1242" />
            </Array>
          </mxGeometry>
        </mxCell>
        <mxCell id="HDfJIpf2rJyifLne6ltG-302" value="" style="edgeStyle=orthogonalEdgeStyle;rounded=0;orthogonalLoop=1;jettySize=auto;fontFamily=Verdana;fontSize=12;fontColor=default;fontStyle=0;labelBackgroundColor=none;" parent="1" source="HDfJIpf2rJyifLne6ltG-304" target="HDfJIpf2rJyifLne6ltG-294" edge="1">
          <mxGeometry relative="1" as="geometry">
            <Array as="points">
              <mxPoint x="2511" y="1322" />
              <mxPoint x="2511" y="1322" />
            </Array>
          </mxGeometry>
        </mxCell>
        <mxCell id="HDfJIpf2rJyifLne6ltG-303" value="" style="edgeStyle=orthogonalEdgeStyle;rounded=0;orthogonalLoop=1;jettySize=auto;fontFamily=Verdana;fontSize=12;fontColor=default;fontStyle=0;labelBackgroundColor=none;" parent="1" source="HDfJIpf2rJyifLne6ltG-304" target="HDfJIpf2rJyifLne6ltG-299" edge="1">
          <mxGeometry relative="1" as="geometry">
            <Array as="points">
              <mxPoint x="2644" y="1430" />
            </Array>
          </mxGeometry>
        </mxCell>
        <mxCell id="HDfJIpf2rJyifLne6ltG-304" value="Nhà cung cấp" style="rounded=0;shadow=0;comic=0;labelBackgroundColor=none;strokeWidth=2;fontFamily=Verdana;fontSize=12;align=center;shape=mxgraph.ios7ui.horLines;textDirection=ltr;" parent="1" vertex="1">
          <mxGeometry x="2570" y="1289" width="135" height="50" as="geometry" />
        </mxCell>
        <mxCell id="HDfJIpf2rJyifLne6ltG-305" value="thông tin nhà cung cấp" style="edgeLabel;align=center;verticalAlign=middle;resizable=0;points=[];rounded=1;shadow=0;comic=0;strokeColor=default;strokeWidth=1;swimlaneFillColor=#ffffff;fontFamily=Verdana;fontSize=12;fontColor=default;fontStyle=0;labelBackgroundColor=none;fillColor=#e0e0e0;" parent="1" vertex="1" connectable="0">
          <mxGeometry x="2056" y="1116.5" as="geometry" />
        </mxCell>
        <mxCell id="HDfJIpf2rJyifLne6ltG-306" value="thông tin nhà cung cấp" style="edgeLabel;align=center;verticalAlign=middle;resizable=0;points=[];rounded=1;shadow=0;comic=0;strokeColor=default;strokeWidth=1;swimlaneFillColor=#ffffff;fontFamily=Verdana;fontSize=12;fontColor=default;fontStyle=0;labelBackgroundColor=none;fillColor=#e0e0e0;" parent="1" vertex="1" connectable="0">
          <mxGeometry x="2478" y="1116.5" as="geometry" />
        </mxCell>
        <mxCell id="HDfJIpf2rJyifLne6ltG-307" value="thông tin kết quả sửa nhà cung cấp" style="edgeLabel;align=center;verticalAlign=middle;resizable=0;points=[];rounded=1;shadow=0;comic=0;strokeColor=default;strokeWidth=1;swimlaneFillColor=#ffffff;fontFamily=Verdana;fontSize=12;fontColor=default;fontStyle=0;labelBackgroundColor=none;fillColor=#e0e0e0;" parent="1" vertex="1" connectable="0">
          <mxGeometry x="2079" y="1162" as="geometry" />
        </mxCell>
        <mxCell id="HDfJIpf2rJyifLne6ltG-308" value="" style="edgeStyle=orthogonalEdgeStyle;rounded=0;orthogonalLoop=1;jettySize=auto;fontFamily=Verdana;fontSize=12;fontColor=default;fontStyle=0;labelBackgroundColor=none;" parent="1" source="HDfJIpf2rJyifLne6ltG-292" target="HDfJIpf2rJyifLne6ltG-304" edge="1">
          <mxGeometry relative="1" as="geometry">
            <Array as="points">
              <mxPoint x="2642" y="1229" />
            </Array>
          </mxGeometry>
        </mxCell>
        <mxCell id="HDfJIpf2rJyifLne6ltG-309" value="thông tin nhà cung cấp" style="edgeLabel;align=center;verticalAlign=middle;resizable=0;points=[];rounded=1;shadow=0;comic=0;strokeColor=default;strokeWidth=1;swimlaneFillColor=#ffffff;fontFamily=Verdana;fontSize=12;fontColor=default;fontStyle=0;labelBackgroundColor=none;fillColor=#e0e0e0;" parent="1" vertex="1" connectable="0">
          <mxGeometry x="2056" y="1222" as="geometry" />
        </mxCell>
        <mxCell id="HDfJIpf2rJyifLne6ltG-311" value="thông tin kết quả xóa nhà cung cấp" style="edgeLabel;align=center;verticalAlign=middle;resizable=0;points=[];rounded=1;shadow=0;comic=0;strokeColor=default;strokeWidth=1;swimlaneFillColor=#ffffff;fontFamily=Verdana;fontSize=12;fontColor=default;fontStyle=0;labelBackgroundColor=none;fillColor=#e0e0e0;" parent="1" vertex="1" connectable="0">
          <mxGeometry x="2063" y="1251" as="geometry" />
        </mxCell>
        <mxCell id="HDfJIpf2rJyifLne6ltG-312" value="" style="edgeStyle=orthogonalEdgeStyle;rounded=0;orthogonalLoop=1;jettySize=auto;fontFamily=Verdana;fontSize=12;fontColor=default;fontStyle=0;labelBackgroundColor=none;" parent="1" source="HDfJIpf2rJyifLne6ltG-295" target="HDfJIpf2rJyifLne6ltG-285" edge="1">
          <mxGeometry relative="1" as="geometry">
            <Array as="points">
              <mxPoint x="1878" y="1328" />
            </Array>
          </mxGeometry>
        </mxCell>
        <mxCell id="HDfJIpf2rJyifLne6ltG-314" value="thông tin nhà cung cấp" style="edgeLabel;align=center;verticalAlign=middle;resizable=0;points=[];rounded=1;shadow=0;comic=0;strokeColor=default;strokeWidth=1;swimlaneFillColor=#ffffff;fontFamily=Verdana;fontSize=12;fontColor=default;fontStyle=0;labelBackgroundColor=none;fillColor=#e0e0e0;" parent="1" vertex="1" connectable="0">
          <mxGeometry x="2039" y="1339" as="geometry" />
        </mxCell>
        <mxCell id="HDfJIpf2rJyifLne6ltG-315" value="danh sách nhà cung cấp" style="edgeLabel;align=center;verticalAlign=middle;resizable=0;points=[];rounded=1;shadow=0;comic=0;strokeColor=default;strokeWidth=1;swimlaneFillColor=#ffffff;fontFamily=Verdana;fontSize=12;fontColor=default;fontStyle=0;labelBackgroundColor=none;fillColor=#e0e0e0;" parent="1" vertex="1" connectable="0">
          <mxGeometry x="2478.003103448276" y="1438.0027586206897" as="geometry" />
        </mxCell>
        <mxCell id="HDfJIpf2rJyifLne6ltG-316" value="2.5 DFD Quản lý khách hàng" style="swimlane;whiteSpace=wrap;rounded=1;shadow=0;comic=0;strokeColor=default;strokeWidth=1;align=center;verticalAlign=middle;swimlaneFillColor=#ffffff;fontFamily=Verdana;fontSize=12;fontColor=default;fontStyle=0;labelBackgroundColor=none;fillColor=#e0e0e0;" parent="1" vertex="1">
          <mxGeometry x="-42" y="1741" width="1396" height="784" as="geometry" />
        </mxCell>
        <mxCell id="HDfJIpf2rJyifLne6ltG-360" value="thông tin khách hàng" style="edgeLabel;align=center;verticalAlign=middle;resizable=0;points=[];rounded=1;shadow=0;comic=0;strokeColor=default;strokeWidth=1;swimlaneFillColor=#ffffff;fontFamily=Verdana;fontSize=12;fontColor=default;fontStyle=0;labelBackgroundColor=none;fillColor=#e0e0e0;" parent="HDfJIpf2rJyifLne6ltG-316" vertex="1" connectable="0">
          <mxGeometry x="927" y="399" as="geometry" />
        </mxCell>
        <mxCell id="HDfJIpf2rJyifLne6ltG-317" value="" style="edgeStyle=orthogonalEdgeStyle;rounded=0;orthogonalLoop=1;jettySize=auto;fontFamily=Verdana;fontSize=12;fontColor=default;fontStyle=0;labelBackgroundColor=none;" parent="1" source="HDfJIpf2rJyifLne6ltG-320" target="HDfJIpf2rJyifLne6ltG-325" edge="1">
          <mxGeometry relative="1" as="geometry">
            <Array as="points">
              <mxPoint x="849" y="1955.5" />
              <mxPoint x="849" y="1955.5" />
            </Array>
          </mxGeometry>
        </mxCell>
        <mxCell id="HDfJIpf2rJyifLne6ltG-318" value="danh sách khách hàng" style="edgeLabel;align=center;verticalAlign=middle;resizable=0;points=[];rounded=1;shadow=0;comic=0;strokeColor=default;strokeWidth=1;swimlaneFillColor=#ffffff;fontFamily=Verdana;fontSize=12;fontColor=default;fontStyle=0;labelBackgroundColor=none;fillColor=#e0e0e0;" parent="HDfJIpf2rJyifLne6ltG-317" vertex="1" connectable="0">
          <mxGeometry x="0.4435" y="1" relative="1" as="geometry">
            <mxPoint x="50" y="-14" as="offset" />
          </mxGeometry>
        </mxCell>
        <mxCell id="HDfJIpf2rJyifLne6ltG-319" value="" style="edgeStyle=orthogonalEdgeStyle;rounded=0;orthogonalLoop=1;jettySize=auto;fontFamily=Verdana;fontSize=12;fontColor=default;fontStyle=0;labelBackgroundColor=none;" parent="1" source="HDfJIpf2rJyifLne6ltG-320" target="HDfJIpf2rJyifLne6ltG-338" edge="1">
          <mxGeometry relative="1" as="geometry">
            <Array as="points">
              <mxPoint x="1044" y="2069.5" />
            </Array>
          </mxGeometry>
        </mxCell>
        <mxCell id="HDfJIpf2rJyifLne6ltG-320" value="Khách hàng" style="rounded=0;shadow=0;comic=0;labelBackgroundColor=none;strokeWidth=2;fontFamily=Verdana;fontSize=12;align=center;shape=mxgraph.ios7ui.horLines;fixDash=0;" parent="1" vertex="1">
          <mxGeometry x="963" y="1942.5" width="135" height="50" as="geometry" />
        </mxCell>
        <mxCell id="HDfJIpf2rJyifLne6ltG-321" value="" style="edgeStyle=orthogonalEdgeStyle;rounded=0;orthogonalLoop=1;jettySize=auto;fontFamily=Verdana;fontSize=12;fontColor=default;fontStyle=0;labelBackgroundColor=none;" parent="1" source="HDfJIpf2rJyifLne6ltG-325" target="HDfJIpf2rJyifLne6ltG-320" edge="1">
          <mxGeometry relative="1" as="geometry">
            <Array as="points">
              <mxPoint x="851" y="1977.5" />
              <mxPoint x="851" y="1977.5" />
            </Array>
          </mxGeometry>
        </mxCell>
        <mxCell id="HDfJIpf2rJyifLne6ltG-322" value="thông tin khách hàng" style="edgeLabel;align=center;verticalAlign=middle;resizable=0;points=[];rounded=1;shadow=0;comic=0;strokeColor=default;strokeWidth=1;swimlaneFillColor=#ffffff;fontFamily=Verdana;fontSize=12;fontColor=default;fontStyle=0;labelBackgroundColor=none;fillColor=#e0e0e0;" parent="HDfJIpf2rJyifLne6ltG-321" vertex="1" connectable="0">
          <mxGeometry x="-0.1043" y="-3" relative="1" as="geometry">
            <mxPoint x="7" y="7" as="offset" />
          </mxGeometry>
        </mxCell>
        <mxCell id="HDfJIpf2rJyifLne6ltG-323" value="" style="edgeStyle=orthogonalEdgeStyle;rounded=0;orthogonalLoop=1;jettySize=auto;fontFamily=Verdana;fontSize=12;fontColor=default;fontStyle=0;labelBackgroundColor=none;" parent="1" source="HDfJIpf2rJyifLne6ltG-325" target="HDfJIpf2rJyifLne6ltG-335" edge="1">
          <mxGeometry relative="1" as="geometry">
            <Array as="points">
              <mxPoint x="253" y="1957" />
            </Array>
          </mxGeometry>
        </mxCell>
        <mxCell id="HDfJIpf2rJyifLne6ltG-324" value="thông tin kết quả thêm khách hàng" style="edgeLabel;align=center;verticalAlign=middle;resizable=0;points=[];rounded=1;shadow=0;comic=0;strokeColor=default;strokeWidth=1;swimlaneFillColor=#ffffff;fontFamily=Verdana;fontSize=12;fontColor=default;fontStyle=0;labelBackgroundColor=none;fillColor=#e0e0e0;" parent="HDfJIpf2rJyifLne6ltG-323" vertex="1" connectable="0">
          <mxGeometry x="-0.2156" y="-1" relative="1" as="geometry">
            <mxPoint x="42" y="-11" as="offset" />
          </mxGeometry>
        </mxCell>
        <mxCell id="HDfJIpf2rJyifLne6ltG-325" value="5.1" style="swimlane;fontStyle=0;childLayout=stackLayout;horizontal=1;startSize=26;fillColor=#e0e0e0;horizontalStack=0;resizeParent=1;resizeLast=0;collapsible=1;marginBottom=0;swimlaneFillColor=#ffffff;align=center;rounded=1;shadow=0;comic=0;labelBackgroundColor=none;strokeWidth=1;fontFamily=Verdana;fontSize=12" parent="1" vertex="1">
          <mxGeometry x="583" y="1935" width="150" height="65" as="geometry" />
        </mxCell>
        <mxCell id="HDfJIpf2rJyifLne6ltG-326" value="Thêm khách hàng" style="text;strokeColor=none;fillColor=none;spacingLeft=4;spacingRight=4;whiteSpace=wrap;overflow=hidden;rotatable=0;points=[[0,0.5],[1,0.5]];portConstraint=eastwest;align=center;" parent="HDfJIpf2rJyifLne6ltG-325" vertex="1">
          <mxGeometry y="26" width="150" height="26" as="geometry" />
        </mxCell>
        <mxCell id="HDfJIpf2rJyifLne6ltG-327" value="" style="edgeStyle=orthogonalEdgeStyle;rounded=0;orthogonalLoop=1;jettySize=auto;fontFamily=Verdana;fontSize=12;fontColor=default;fontStyle=0;labelBackgroundColor=none;" parent="1" source="HDfJIpf2rJyifLne6ltG-335" target="HDfJIpf2rJyifLne6ltG-325" edge="1">
          <mxGeometry relative="1" as="geometry">
            <Array as="points">
              <mxPoint x="284" y="1982" />
            </Array>
          </mxGeometry>
        </mxCell>
        <mxCell id="HDfJIpf2rJyifLne6ltG-328" value="thông tin khách hàng" style="edgeLabel;align=center;verticalAlign=middle;resizable=0;points=[];rounded=1;shadow=0;comic=0;strokeColor=default;strokeWidth=1;swimlaneFillColor=#ffffff;fontFamily=Verdana;fontSize=12;fontColor=default;fontStyle=0;labelBackgroundColor=none;fillColor=#e0e0e0;" parent="HDfJIpf2rJyifLne6ltG-327" vertex="1" connectable="0">
          <mxGeometry x="0.3411" y="-3" relative="1" as="geometry">
            <mxPoint x="10" y="6" as="offset" />
          </mxGeometry>
        </mxCell>
        <mxCell id="HDfJIpf2rJyifLne6ltG-329" value="" style="edgeStyle=orthogonalEdgeStyle;rounded=0;orthogonalLoop=1;jettySize=auto;fontFamily=Verdana;fontSize=12;fontColor=default;fontStyle=0;labelBackgroundColor=none;" parent="1" source="HDfJIpf2rJyifLne6ltG-335" target="HDfJIpf2rJyifLne6ltG-338" edge="1">
          <mxGeometry relative="1" as="geometry">
            <Array as="points">
              <mxPoint x="337" y="2136" />
              <mxPoint x="337" y="2052" />
            </Array>
          </mxGeometry>
        </mxCell>
        <mxCell id="HDfJIpf2rJyifLne6ltG-330" value="" style="edgeStyle=orthogonalEdgeStyle;rounded=0;orthogonalLoop=1;jettySize=auto;fontFamily=Verdana;fontSize=12;fontColor=default;fontStyle=0;labelBackgroundColor=none;" parent="1" source="HDfJIpf2rJyifLne6ltG-335" target="HDfJIpf2rJyifLne6ltG-341" edge="1">
          <mxGeometry relative="1" as="geometry">
            <Array as="points">
              <mxPoint x="449" y="2154" />
              <mxPoint x="449" y="2154" />
            </Array>
          </mxGeometry>
        </mxCell>
        <mxCell id="HDfJIpf2rJyifLne6ltG-331" value="" style="edgeStyle=orthogonalEdgeStyle;rounded=0;orthogonalLoop=1;jettySize=auto;fontFamily=Verdana;fontSize=12;fontColor=default;fontStyle=0;labelBackgroundColor=none;" parent="1" source="HDfJIpf2rJyifLne6ltG-335" target="HDfJIpf2rJyifLne6ltG-344" edge="1">
          <mxGeometry relative="1" as="geometry">
            <Array as="points">
              <mxPoint x="291" y="2235" />
            </Array>
          </mxGeometry>
        </mxCell>
        <mxCell id="HDfJIpf2rJyifLne6ltG-332" value="chọn khách hàng muốn xem" style="edgeLabel;align=center;verticalAlign=middle;resizable=0;points=[];rounded=1;shadow=0;comic=0;strokeColor=default;strokeWidth=1;swimlaneFillColor=#ffffff;fontFamily=Verdana;fontSize=12;fontColor=default;fontStyle=0;labelBackgroundColor=none;fillColor=#e0e0e0;" parent="HDfJIpf2rJyifLne6ltG-331" vertex="1" connectable="0">
          <mxGeometry x="-0.2182" y="3" relative="1" as="geometry">
            <mxPoint x="61" y="-5" as="offset" />
          </mxGeometry>
        </mxCell>
        <mxCell id="HDfJIpf2rJyifLne6ltG-333" value="" style="edgeStyle=orthogonalEdgeStyle;rounded=0;orthogonalLoop=1;jettySize=auto;fontFamily=Verdana;fontSize=12;fontColor=default;fontStyle=0;labelBackgroundColor=none;" parent="1" source="HDfJIpf2rJyifLne6ltG-335" target="HDfJIpf2rJyifLne6ltG-349" edge="1">
          <mxGeometry relative="1" as="geometry">
            <Array as="points">
              <mxPoint x="253" y="2334" />
            </Array>
          </mxGeometry>
        </mxCell>
        <mxCell id="HDfJIpf2rJyifLne6ltG-334" value="nội dung tìm kiếm" style="edgeLabel;align=center;verticalAlign=middle;resizable=0;points=[];rounded=1;shadow=0;comic=0;strokeColor=default;strokeWidth=1;swimlaneFillColor=#ffffff;fontFamily=Verdana;fontSize=12;fontColor=default;fontStyle=0;labelBackgroundColor=none;fillColor=#e0e0e0;" parent="HDfJIpf2rJyifLne6ltG-333" vertex="1" connectable="0">
          <mxGeometry x="0.3041" y="-1" relative="1" as="geometry">
            <mxPoint x="1" y="-8" as="offset" />
          </mxGeometry>
        </mxCell>
        <mxCell id="HDfJIpf2rJyifLne6ltG-335" value="Nhân viên" style="whiteSpace=wrap;rounded=0;shadow=0;comic=0;labelBackgroundColor=none;strokeWidth=1;fontFamily=Verdana;fontSize=12;align=center;" parent="1" vertex="1">
          <mxGeometry x="193" y="2129.5" width="120" height="50" as="geometry" />
        </mxCell>
        <mxCell id="HDfJIpf2rJyifLne6ltG-336" value="" style="edgeStyle=orthogonalEdgeStyle;rounded=0;orthogonalLoop=1;jettySize=auto;fontFamily=Verdana;fontSize=12;fontColor=default;fontStyle=0;labelBackgroundColor=none;" parent="1" source="HDfJIpf2rJyifLne6ltG-338" target="HDfJIpf2rJyifLne6ltG-320" edge="1">
          <mxGeometry relative="1" as="geometry">
            <Array as="points">
              <mxPoint x="1019" y="2048" />
            </Array>
          </mxGeometry>
        </mxCell>
        <mxCell id="HDfJIpf2rJyifLne6ltG-337" value="" style="edgeStyle=orthogonalEdgeStyle;rounded=0;orthogonalLoop=1;jettySize=auto;fontFamily=Verdana;fontSize=12;fontColor=default;fontStyle=0;labelBackgroundColor=none;" parent="1" source="HDfJIpf2rJyifLne6ltG-338" target="HDfJIpf2rJyifLne6ltG-335" edge="1">
          <mxGeometry relative="1" as="geometry">
            <Array as="points">
              <mxPoint x="364" y="2075" />
              <mxPoint x="364" y="2143" />
            </Array>
          </mxGeometry>
        </mxCell>
        <mxCell id="HDfJIpf2rJyifLne6ltG-338" value="5.2" style="swimlane;fontStyle=0;childLayout=stackLayout;horizontal=1;startSize=26;fillColor=#e0e0e0;horizontalStack=0;resizeParent=1;resizeLast=0;collapsible=1;marginBottom=0;swimlaneFillColor=#ffffff;align=center;rounded=1;shadow=0;comic=0;labelBackgroundColor=none;strokeWidth=1;fontFamily=Verdana;fontSize=12" parent="1" vertex="1">
          <mxGeometry x="583" y="2027" width="150" height="65" as="geometry" />
        </mxCell>
        <mxCell id="HDfJIpf2rJyifLne6ltG-339" value="Chỉnh sửa khách hàng" style="text;strokeColor=none;fillColor=none;spacingLeft=4;spacingRight=4;whiteSpace=wrap;overflow=hidden;rotatable=0;points=[[0,0.5],[1,0.5]];portConstraint=eastwest;align=center;" parent="HDfJIpf2rJyifLne6ltG-338" vertex="1">
          <mxGeometry y="26" width="150" height="26" as="geometry" />
        </mxCell>
        <mxCell id="HDfJIpf2rJyifLne6ltG-340" value="" style="edgeStyle=orthogonalEdgeStyle;rounded=0;orthogonalLoop=1;jettySize=auto;fontFamily=Verdana;fontSize=12;fontColor=default;fontStyle=0;labelBackgroundColor=none;" parent="1" source="HDfJIpf2rJyifLne6ltG-341" target="HDfJIpf2rJyifLne6ltG-335" edge="1">
          <mxGeometry relative="1" as="geometry">
            <Array as="points">
              <mxPoint x="446" y="2165" />
              <mxPoint x="446" y="2165" />
            </Array>
          </mxGeometry>
        </mxCell>
        <mxCell id="HDfJIpf2rJyifLne6ltG-341" value="5.3" style="swimlane;fontStyle=0;childLayout=stackLayout;horizontal=1;startSize=26;fillColor=#e0e0e0;horizontalStack=0;resizeParent=1;resizeLast=0;collapsible=1;marginBottom=0;swimlaneFillColor=#ffffff;align=center;rounded=1;shadow=0;comic=0;labelBackgroundColor=none;strokeWidth=1;fontFamily=Verdana;fontSize=12" parent="1" vertex="1">
          <mxGeometry x="583" y="2120" width="150" height="65" as="geometry" />
        </mxCell>
        <mxCell id="HDfJIpf2rJyifLne6ltG-342" value="Xóa khách hàng" style="text;strokeColor=none;fillColor=none;spacingLeft=4;spacingRight=4;whiteSpace=wrap;overflow=hidden;rotatable=0;points=[[0,0.5],[1,0.5]];portConstraint=eastwest;align=center;" parent="HDfJIpf2rJyifLne6ltG-341" vertex="1">
          <mxGeometry y="26" width="150" height="26" as="geometry" />
        </mxCell>
        <mxCell id="HDfJIpf2rJyifLne6ltG-343" value="" style="edgeStyle=orthogonalEdgeStyle;rounded=0;orthogonalLoop=1;jettySize=auto;fontFamily=Verdana;fontSize=12;fontColor=default;fontStyle=0;labelBackgroundColor=none;" parent="1" source="HDfJIpf2rJyifLne6ltG-344" target="HDfJIpf2rJyifLne6ltG-354" edge="1">
          <mxGeometry relative="1" as="geometry">
            <Array as="points">
              <mxPoint x="871" y="2231" />
              <mxPoint x="871" y="2231" />
            </Array>
          </mxGeometry>
        </mxCell>
        <mxCell id="HDfJIpf2rJyifLne6ltG-344" value="5.4" style="swimlane;fontStyle=0;childLayout=stackLayout;horizontal=1;startSize=26;fillColor=#e0e0e0;horizontalStack=0;resizeParent=1;resizeLast=0;collapsible=1;marginBottom=0;swimlaneFillColor=#ffffff;align=center;rounded=1;shadow=0;comic=0;labelBackgroundColor=none;strokeWidth=1;fontFamily=Verdana;fontSize=12" parent="1" vertex="1">
          <mxGeometry x="583" y="2212" width="150" height="65" as="geometry" />
        </mxCell>
        <mxCell id="HDfJIpf2rJyifLne6ltG-345" value="Xem chi tiết khách hàng" style="text;strokeColor=none;fillColor=none;spacingLeft=4;spacingRight=4;whiteSpace=wrap;overflow=hidden;rotatable=0;points=[[0,0.5],[1,0.5]];portConstraint=eastwest;align=center;" parent="HDfJIpf2rJyifLne6ltG-344" vertex="1">
          <mxGeometry y="26" width="150" height="26" as="geometry" />
        </mxCell>
        <mxCell id="HDfJIpf2rJyifLne6ltG-346" value="" style="edgeStyle=orthogonalEdgeStyle;rounded=0;orthogonalLoop=1;jettySize=auto;fontFamily=Verdana;fontSize=12;fontColor=default;fontStyle=0;labelBackgroundColor=none;" parent="1" source="HDfJIpf2rJyifLne6ltG-349" target="HDfJIpf2rJyifLne6ltG-354" edge="1">
          <mxGeometry relative="1" as="geometry">
            <Array as="points">
              <mxPoint x="1021" y="2336" />
            </Array>
          </mxGeometry>
        </mxCell>
        <mxCell id="HDfJIpf2rJyifLne6ltG-347" value="" style="edgeStyle=orthogonalEdgeStyle;rounded=0;orthogonalLoop=1;jettySize=auto;fontFamily=Verdana;fontSize=12;fontColor=default;fontStyle=0;labelBackgroundColor=none;" parent="1" source="HDfJIpf2rJyifLne6ltG-349" target="HDfJIpf2rJyifLne6ltG-335" edge="1">
          <mxGeometry relative="1" as="geometry">
            <Array as="points">
              <mxPoint x="236" y="2352" />
            </Array>
          </mxGeometry>
        </mxCell>
        <mxCell id="HDfJIpf2rJyifLne6ltG-348" value="kết quả tìm kiếm" style="edgeLabel;align=center;verticalAlign=middle;resizable=0;points=[];rounded=1;shadow=0;comic=0;strokeColor=default;strokeWidth=1;swimlaneFillColor=#ffffff;fontFamily=Verdana;fontSize=12;fontColor=default;fontStyle=0;labelBackgroundColor=none;fillColor=#e0e0e0;" parent="HDfJIpf2rJyifLne6ltG-347" vertex="1" connectable="0">
          <mxGeometry x="-0.3031" y="3" relative="1" as="geometry">
            <mxPoint x="15" y="6" as="offset" />
          </mxGeometry>
        </mxCell>
        <mxCell id="HDfJIpf2rJyifLne6ltG-349" value="5.5" style="swimlane;fontStyle=0;childLayout=stackLayout;horizontal=1;startSize=26;fillColor=#e0e0e0;horizontalStack=0;resizeParent=1;resizeLast=0;collapsible=1;marginBottom=0;swimlaneFillColor=#ffffff;align=center;rounded=1;shadow=0;comic=0;labelBackgroundColor=none;strokeWidth=1;fontFamily=Verdana;fontSize=12" parent="1" vertex="1">
          <mxGeometry x="583" y="2304" width="150" height="65" as="geometry" />
        </mxCell>
        <mxCell id="HDfJIpf2rJyifLne6ltG-350" value="Tìm kiếm khách hàng" style="text;strokeColor=none;fillColor=none;spacingLeft=4;spacingRight=4;whiteSpace=wrap;overflow=hidden;rotatable=0;points=[[0,0.5],[1,0.5]];portConstraint=eastwest;align=center;" parent="HDfJIpf2rJyifLne6ltG-349" vertex="1">
          <mxGeometry y="26" width="150" height="26" as="geometry" />
        </mxCell>
        <mxCell id="HDfJIpf2rJyifLne6ltG-351" value="" style="edgeStyle=orthogonalEdgeStyle;rounded=0;orthogonalLoop=1;jettySize=auto;fontFamily=Verdana;fontSize=12;fontColor=default;fontStyle=0;labelBackgroundColor=none;" parent="1" source="HDfJIpf2rJyifLne6ltG-354" target="HDfJIpf2rJyifLne6ltG-341" edge="1">
          <mxGeometry relative="1" as="geometry">
            <Array as="points">
              <mxPoint x="1022" y="2165" />
            </Array>
          </mxGeometry>
        </mxCell>
        <mxCell id="HDfJIpf2rJyifLne6ltG-352" value="" style="edgeStyle=orthogonalEdgeStyle;rounded=0;orthogonalLoop=1;jettySize=auto;fontFamily=Verdana;fontSize=12;fontColor=default;fontStyle=0;labelBackgroundColor=none;" parent="1" source="HDfJIpf2rJyifLne6ltG-354" target="HDfJIpf2rJyifLne6ltG-344" edge="1">
          <mxGeometry relative="1" as="geometry">
            <Array as="points">
              <mxPoint x="904" y="2245" />
              <mxPoint x="904" y="2245" />
            </Array>
          </mxGeometry>
        </mxCell>
        <mxCell id="HDfJIpf2rJyifLne6ltG-353" value="" style="edgeStyle=orthogonalEdgeStyle;rounded=0;orthogonalLoop=1;jettySize=auto;fontFamily=Verdana;fontSize=12;fontColor=default;fontStyle=0;labelBackgroundColor=none;" parent="1" source="HDfJIpf2rJyifLne6ltG-354" target="HDfJIpf2rJyifLne6ltG-349" edge="1">
          <mxGeometry relative="1" as="geometry">
            <Array as="points">
              <mxPoint x="1037" y="2353" />
            </Array>
          </mxGeometry>
        </mxCell>
        <mxCell id="HDfJIpf2rJyifLne6ltG-354" value="Khách hàng" style="rounded=0;shadow=0;comic=0;labelBackgroundColor=none;strokeWidth=2;fontFamily=Verdana;fontSize=12;align=center;shape=mxgraph.ios7ui.horLines;" parent="1" vertex="1">
          <mxGeometry x="963" y="2212" width="135" height="50" as="geometry" />
        </mxCell>
        <mxCell id="HDfJIpf2rJyifLne6ltG-355" value="thông tin khách hàng" style="edgeLabel;align=center;verticalAlign=middle;resizable=0;points=[];rounded=1;shadow=0;comic=0;strokeColor=default;strokeWidth=1;swimlaneFillColor=#ffffff;fontFamily=Verdana;fontSize=12;fontColor=default;fontStyle=0;labelBackgroundColor=none;fillColor=#e0e0e0;" parent="1" vertex="1" connectable="0">
          <mxGeometry x="449" y="2039.5" as="geometry" />
        </mxCell>
        <mxCell id="HDfJIpf2rJyifLne6ltG-356" value="thông tin khách hàng" style="edgeLabel;align=center;verticalAlign=middle;resizable=0;points=[];rounded=1;shadow=0;comic=0;strokeColor=default;strokeWidth=1;swimlaneFillColor=#ffffff;fontFamily=Verdana;fontSize=12;fontColor=default;fontStyle=0;labelBackgroundColor=none;fillColor=#e0e0e0;" parent="1" vertex="1" connectable="0">
          <mxGeometry x="871" y="2039.5" as="geometry" />
        </mxCell>
        <mxCell id="HDfJIpf2rJyifLne6ltG-357" value="thông tin kết quả sửa khách hàng" style="edgeLabel;align=center;verticalAlign=middle;resizable=0;points=[];rounded=1;shadow=0;comic=0;strokeColor=default;strokeWidth=1;swimlaneFillColor=#ffffff;fontFamily=Verdana;fontSize=12;fontColor=default;fontStyle=0;labelBackgroundColor=none;fillColor=#e0e0e0;" parent="1" vertex="1" connectable="0">
          <mxGeometry x="472" y="2085" as="geometry" />
        </mxCell>
        <mxCell id="HDfJIpf2rJyifLne6ltG-358" value="" style="edgeStyle=orthogonalEdgeStyle;rounded=0;orthogonalLoop=1;jettySize=auto;fontFamily=Verdana;fontSize=12;fontColor=default;fontStyle=0;labelBackgroundColor=none;" parent="1" source="HDfJIpf2rJyifLne6ltG-342" target="HDfJIpf2rJyifLne6ltG-354" edge="1">
          <mxGeometry relative="1" as="geometry">
            <Array as="points">
              <mxPoint x="1035" y="2152" />
            </Array>
          </mxGeometry>
        </mxCell>
        <mxCell id="HDfJIpf2rJyifLne6ltG-359" value="thông tin khách hàng" style="edgeLabel;align=center;verticalAlign=middle;resizable=0;points=[];rounded=1;shadow=0;comic=0;strokeColor=default;strokeWidth=1;swimlaneFillColor=#ffffff;fontFamily=Verdana;fontSize=12;fontColor=default;fontStyle=0;labelBackgroundColor=none;fillColor=#e0e0e0;" parent="1" vertex="1" connectable="0">
          <mxGeometry x="449" y="2145" as="geometry" />
        </mxCell>
        <mxCell id="HDfJIpf2rJyifLne6ltG-361" value="thông tin kết quả xóa khách hàng" style="edgeLabel;align=center;verticalAlign=middle;resizable=0;points=[];rounded=1;shadow=0;comic=0;strokeColor=default;strokeWidth=1;swimlaneFillColor=#ffffff;fontFamily=Verdana;fontSize=12;fontColor=default;fontStyle=0;labelBackgroundColor=none;fillColor=#e0e0e0;" parent="1" vertex="1" connectable="0">
          <mxGeometry x="456" y="2174" as="geometry" />
        </mxCell>
        <mxCell id="HDfJIpf2rJyifLne6ltG-362" value="" style="edgeStyle=orthogonalEdgeStyle;rounded=0;orthogonalLoop=1;jettySize=auto;fontFamily=Verdana;fontSize=12;fontColor=default;fontStyle=0;labelBackgroundColor=none;" parent="1" source="HDfJIpf2rJyifLne6ltG-345" target="HDfJIpf2rJyifLne6ltG-335" edge="1">
          <mxGeometry relative="1" as="geometry">
            <Array as="points">
              <mxPoint x="271" y="2251" />
            </Array>
          </mxGeometry>
        </mxCell>
        <mxCell id="HDfJIpf2rJyifLne6ltG-363" value="thông tin khách hàng" style="edgeLabel;align=center;verticalAlign=middle;resizable=0;points=[];rounded=1;shadow=0;comic=0;strokeColor=default;strokeWidth=1;swimlaneFillColor=#ffffff;fontFamily=Verdana;fontSize=12;fontColor=default;fontStyle=0;labelBackgroundColor=none;fillColor=#e0e0e0;" parent="1" vertex="1" connectable="0">
          <mxGeometry x="842" y="2256" as="geometry" />
        </mxCell>
        <mxCell id="HDfJIpf2rJyifLne6ltG-364" value="thông tin khách hàng" style="edgeLabel;align=center;verticalAlign=middle;resizable=0;points=[];rounded=1;shadow=0;comic=0;strokeColor=default;strokeWidth=1;swimlaneFillColor=#ffffff;fontFamily=Verdana;fontSize=12;fontColor=default;fontStyle=0;labelBackgroundColor=none;fillColor=#e0e0e0;" parent="1" vertex="1" connectable="0">
          <mxGeometry x="432" y="2262" as="geometry" />
        </mxCell>
        <mxCell id="HDfJIpf2rJyifLne6ltG-365" value="danh sách khách hàng" style="edgeLabel;align=center;verticalAlign=middle;resizable=0;points=[];rounded=1;shadow=0;comic=0;strokeColor=default;strokeWidth=1;swimlaneFillColor=#ffffff;fontFamily=Verdana;fontSize=12;fontColor=default;fontStyle=0;labelBackgroundColor=none;fillColor=#e0e0e0;" parent="1" vertex="1" connectable="0">
          <mxGeometry x="871.0031034482759" y="2361.0027586206897" as="geometry" />
        </mxCell>
        <mxCell id="HDfJIpf2rJyifLne6ltG-366" value="2.6 DFD Quản lý nhân viên" style="swimlane;whiteSpace=wrap;rounded=1;shadow=0;comic=0;strokeColor=default;strokeWidth=1;align=center;verticalAlign=middle;swimlaneFillColor=#ffffff;fontFamily=Verdana;fontSize=12;fontColor=default;fontStyle=0;labelBackgroundColor=none;fillColor=#e0e0e0;" parent="1" vertex="1">
          <mxGeometry x="1567" y="1738" width="1396" height="784" as="geometry" />
        </mxCell>
        <mxCell id="HDfJIpf2rJyifLne6ltG-367" value="" style="edgeStyle=orthogonalEdgeStyle;rounded=0;orthogonalLoop=1;jettySize=auto;fontFamily=Verdana;fontSize=12;fontColor=default;fontStyle=0;labelBackgroundColor=none;" parent="1" source="HDfJIpf2rJyifLne6ltG-370" target="HDfJIpf2rJyifLne6ltG-375" edge="1">
          <mxGeometry relative="1" as="geometry">
            <Array as="points">
              <mxPoint x="2456" y="1955.5" />
              <mxPoint x="2456" y="1955.5" />
            </Array>
          </mxGeometry>
        </mxCell>
        <mxCell id="HDfJIpf2rJyifLne6ltG-368" value="danh sách nhân viên" style="edgeLabel;align=center;verticalAlign=middle;resizable=0;points=[];rounded=1;shadow=0;comic=0;strokeColor=default;strokeWidth=1;swimlaneFillColor=#ffffff;fontFamily=Verdana;fontSize=12;fontColor=default;fontStyle=0;labelBackgroundColor=none;fillColor=#e0e0e0;" parent="HDfJIpf2rJyifLne6ltG-367" vertex="1" connectable="0">
          <mxGeometry x="0.4435" y="1" relative="1" as="geometry">
            <mxPoint x="50" y="-14" as="offset" />
          </mxGeometry>
        </mxCell>
        <mxCell id="HDfJIpf2rJyifLne6ltG-369" value="" style="edgeStyle=orthogonalEdgeStyle;rounded=0;orthogonalLoop=1;jettySize=auto;fontFamily=Verdana;fontSize=12;fontColor=default;fontStyle=0;labelBackgroundColor=none;" parent="1" source="HDfJIpf2rJyifLne6ltG-370" target="HDfJIpf2rJyifLne6ltG-388" edge="1">
          <mxGeometry relative="1" as="geometry">
            <Array as="points">
              <mxPoint x="2651" y="2069.5" />
            </Array>
          </mxGeometry>
        </mxCell>
        <mxCell id="HDfJIpf2rJyifLne6ltG-370" value="Nhân viên" style="rounded=0;shadow=0;comic=0;labelBackgroundColor=none;strokeWidth=2;fontFamily=Verdana;fontSize=12;align=center;shape=mxgraph.ios7ui.horLines;fixDash=0;" parent="1" vertex="1">
          <mxGeometry x="2570" y="1942.5" width="135" height="50" as="geometry" />
        </mxCell>
        <mxCell id="HDfJIpf2rJyifLne6ltG-371" value="" style="edgeStyle=orthogonalEdgeStyle;rounded=0;orthogonalLoop=1;jettySize=auto;fontFamily=Verdana;fontSize=12;fontColor=default;fontStyle=0;labelBackgroundColor=none;" parent="1" source="HDfJIpf2rJyifLne6ltG-375" target="HDfJIpf2rJyifLne6ltG-370" edge="1">
          <mxGeometry relative="1" as="geometry">
            <Array as="points">
              <mxPoint x="2458" y="1977.5" />
              <mxPoint x="2458" y="1977.5" />
            </Array>
          </mxGeometry>
        </mxCell>
        <mxCell id="HDfJIpf2rJyifLne6ltG-372" value="thông tin nhân viên" style="edgeLabel;align=center;verticalAlign=middle;resizable=0;points=[];rounded=1;shadow=0;comic=0;strokeColor=default;strokeWidth=1;swimlaneFillColor=#ffffff;fontFamily=Verdana;fontSize=12;fontColor=default;fontStyle=0;labelBackgroundColor=none;fillColor=#e0e0e0;" parent="HDfJIpf2rJyifLne6ltG-371" vertex="1" connectable="0">
          <mxGeometry x="-0.1043" y="-3" relative="1" as="geometry">
            <mxPoint x="7" y="7" as="offset" />
          </mxGeometry>
        </mxCell>
        <mxCell id="HDfJIpf2rJyifLne6ltG-373" value="" style="edgeStyle=orthogonalEdgeStyle;rounded=0;orthogonalLoop=1;jettySize=auto;fontFamily=Verdana;fontSize=12;fontColor=default;fontStyle=0;labelBackgroundColor=none;" parent="1" source="HDfJIpf2rJyifLne6ltG-375" target="HDfJIpf2rJyifLne6ltG-385" edge="1">
          <mxGeometry relative="1" as="geometry">
            <Array as="points">
              <mxPoint x="1860" y="1957" />
            </Array>
          </mxGeometry>
        </mxCell>
        <mxCell id="HDfJIpf2rJyifLne6ltG-374" value="thông tin kết quả thêm nhân viên" style="edgeLabel;align=center;verticalAlign=middle;resizable=0;points=[];rounded=1;shadow=0;comic=0;strokeColor=default;strokeWidth=1;swimlaneFillColor=#ffffff;fontFamily=Verdana;fontSize=12;fontColor=default;fontStyle=0;labelBackgroundColor=none;fillColor=#e0e0e0;" parent="HDfJIpf2rJyifLne6ltG-373" vertex="1" connectable="0">
          <mxGeometry x="-0.2156" y="-1" relative="1" as="geometry">
            <mxPoint x="42" y="-11" as="offset" />
          </mxGeometry>
        </mxCell>
        <mxCell id="HDfJIpf2rJyifLne6ltG-375" value="6.1" style="swimlane;fontStyle=0;childLayout=stackLayout;horizontal=1;startSize=26;fillColor=#e0e0e0;horizontalStack=0;resizeParent=1;resizeLast=0;collapsible=1;marginBottom=0;swimlaneFillColor=#ffffff;align=center;rounded=1;shadow=0;comic=0;labelBackgroundColor=none;strokeWidth=1;fontFamily=Verdana;fontSize=12" parent="1" vertex="1">
          <mxGeometry x="2190" y="1935" width="150" height="65" as="geometry" />
        </mxCell>
        <mxCell id="HDfJIpf2rJyifLne6ltG-376" value="Thêm nhân viên" style="text;strokeColor=none;fillColor=none;spacingLeft=4;spacingRight=4;whiteSpace=wrap;overflow=hidden;rotatable=0;points=[[0,0.5],[1,0.5]];portConstraint=eastwest;align=center;" parent="HDfJIpf2rJyifLne6ltG-375" vertex="1">
          <mxGeometry y="26" width="150" height="26" as="geometry" />
        </mxCell>
        <mxCell id="HDfJIpf2rJyifLne6ltG-377" value="" style="edgeStyle=orthogonalEdgeStyle;rounded=0;orthogonalLoop=1;jettySize=auto;fontFamily=Verdana;fontSize=12;fontColor=default;fontStyle=0;labelBackgroundColor=none;" parent="1" source="HDfJIpf2rJyifLne6ltG-385" target="HDfJIpf2rJyifLne6ltG-375" edge="1">
          <mxGeometry relative="1" as="geometry">
            <Array as="points">
              <mxPoint x="1891" y="1982" />
            </Array>
          </mxGeometry>
        </mxCell>
        <mxCell id="HDfJIpf2rJyifLne6ltG-378" value="thông tin nhân viên" style="edgeLabel;align=center;verticalAlign=middle;resizable=0;points=[];rounded=1;shadow=0;comic=0;strokeColor=default;strokeWidth=1;swimlaneFillColor=#ffffff;fontFamily=Verdana;fontSize=12;fontColor=default;fontStyle=0;labelBackgroundColor=none;fillColor=#e0e0e0;" parent="HDfJIpf2rJyifLne6ltG-377" vertex="1" connectable="0">
          <mxGeometry x="0.3411" y="-3" relative="1" as="geometry">
            <mxPoint x="10" y="6" as="offset" />
          </mxGeometry>
        </mxCell>
        <mxCell id="HDfJIpf2rJyifLne6ltG-379" value="" style="edgeStyle=orthogonalEdgeStyle;rounded=0;orthogonalLoop=1;jettySize=auto;fontFamily=Verdana;fontSize=12;fontColor=default;fontStyle=0;labelBackgroundColor=none;" parent="1" source="HDfJIpf2rJyifLne6ltG-385" target="HDfJIpf2rJyifLne6ltG-388" edge="1">
          <mxGeometry relative="1" as="geometry">
            <Array as="points">
              <mxPoint x="1944" y="2136" />
              <mxPoint x="1944" y="2052" />
            </Array>
          </mxGeometry>
        </mxCell>
        <mxCell id="HDfJIpf2rJyifLne6ltG-380" value="" style="edgeStyle=orthogonalEdgeStyle;rounded=0;orthogonalLoop=1;jettySize=auto;fontFamily=Verdana;fontSize=12;fontColor=default;fontStyle=0;labelBackgroundColor=none;" parent="1" source="HDfJIpf2rJyifLne6ltG-385" target="HDfJIpf2rJyifLne6ltG-391" edge="1">
          <mxGeometry relative="1" as="geometry">
            <Array as="points">
              <mxPoint x="2056" y="2154" />
              <mxPoint x="2056" y="2154" />
            </Array>
          </mxGeometry>
        </mxCell>
        <mxCell id="HDfJIpf2rJyifLne6ltG-381" value="" style="edgeStyle=orthogonalEdgeStyle;rounded=0;orthogonalLoop=1;jettySize=auto;fontFamily=Verdana;fontSize=12;fontColor=default;fontStyle=0;labelBackgroundColor=none;" parent="1" source="HDfJIpf2rJyifLne6ltG-385" target="HDfJIpf2rJyifLne6ltG-394" edge="1">
          <mxGeometry relative="1" as="geometry">
            <Array as="points">
              <mxPoint x="1898" y="2235" />
            </Array>
          </mxGeometry>
        </mxCell>
        <mxCell id="HDfJIpf2rJyifLne6ltG-382" value="chọn nhân viên muốn xem" style="edgeLabel;align=center;verticalAlign=middle;resizable=0;points=[];rounded=1;shadow=0;comic=0;strokeColor=default;strokeWidth=1;swimlaneFillColor=#ffffff;fontFamily=Verdana;fontSize=12;fontColor=default;fontStyle=0;labelBackgroundColor=none;fillColor=#e0e0e0;" parent="HDfJIpf2rJyifLne6ltG-381" vertex="1" connectable="0">
          <mxGeometry x="-0.2182" y="3" relative="1" as="geometry">
            <mxPoint x="61" y="-5" as="offset" />
          </mxGeometry>
        </mxCell>
        <mxCell id="HDfJIpf2rJyifLne6ltG-383" value="" style="edgeStyle=orthogonalEdgeStyle;rounded=0;orthogonalLoop=1;jettySize=auto;fontFamily=Verdana;fontSize=12;fontColor=default;fontStyle=0;labelBackgroundColor=none;" parent="1" source="HDfJIpf2rJyifLne6ltG-385" target="HDfJIpf2rJyifLne6ltG-399" edge="1">
          <mxGeometry relative="1" as="geometry">
            <Array as="points">
              <mxPoint x="1860" y="2334" />
            </Array>
          </mxGeometry>
        </mxCell>
        <mxCell id="HDfJIpf2rJyifLne6ltG-384" value="nội dung tìm kiếm" style="edgeLabel;align=center;verticalAlign=middle;resizable=0;points=[];rounded=1;shadow=0;comic=0;strokeColor=default;strokeWidth=1;swimlaneFillColor=#ffffff;fontFamily=Verdana;fontSize=12;fontColor=default;fontStyle=0;labelBackgroundColor=none;fillColor=#e0e0e0;" parent="HDfJIpf2rJyifLne6ltG-383" vertex="1" connectable="0">
          <mxGeometry x="0.3041" y="-1" relative="1" as="geometry">
            <mxPoint x="1" y="-8" as="offset" />
          </mxGeometry>
        </mxCell>
        <mxCell id="HDfJIpf2rJyifLne6ltG-385" value="Quản lý" style="whiteSpace=wrap;rounded=0;shadow=0;comic=0;labelBackgroundColor=none;strokeWidth=1;fontFamily=Verdana;fontSize=12;align=center;" parent="1" vertex="1">
          <mxGeometry x="1800" y="2129.5" width="120" height="50" as="geometry" />
        </mxCell>
        <mxCell id="HDfJIpf2rJyifLne6ltG-386" value="" style="edgeStyle=orthogonalEdgeStyle;rounded=0;orthogonalLoop=1;jettySize=auto;fontFamily=Verdana;fontSize=12;fontColor=default;fontStyle=0;labelBackgroundColor=none;" parent="1" source="HDfJIpf2rJyifLne6ltG-388" target="HDfJIpf2rJyifLne6ltG-370" edge="1">
          <mxGeometry relative="1" as="geometry">
            <Array as="points">
              <mxPoint x="2626" y="2048" />
            </Array>
          </mxGeometry>
        </mxCell>
        <mxCell id="HDfJIpf2rJyifLne6ltG-387" value="" style="edgeStyle=orthogonalEdgeStyle;rounded=0;orthogonalLoop=1;jettySize=auto;fontFamily=Verdana;fontSize=12;fontColor=default;fontStyle=0;labelBackgroundColor=none;" parent="1" source="HDfJIpf2rJyifLne6ltG-388" target="HDfJIpf2rJyifLne6ltG-385" edge="1">
          <mxGeometry relative="1" as="geometry">
            <Array as="points">
              <mxPoint x="1971" y="2075" />
              <mxPoint x="1971" y="2143" />
            </Array>
          </mxGeometry>
        </mxCell>
        <mxCell id="HDfJIpf2rJyifLne6ltG-388" value="6.2" style="swimlane;fontStyle=0;childLayout=stackLayout;horizontal=1;startSize=26;fillColor=#e0e0e0;horizontalStack=0;resizeParent=1;resizeLast=0;collapsible=1;marginBottom=0;swimlaneFillColor=#ffffff;align=center;rounded=1;shadow=0;comic=0;labelBackgroundColor=none;strokeWidth=1;fontFamily=Verdana;fontSize=12" parent="1" vertex="1">
          <mxGeometry x="2190" y="2027" width="150" height="65" as="geometry" />
        </mxCell>
        <mxCell id="HDfJIpf2rJyifLne6ltG-389" value="Chỉnh sửa nhân viên" style="text;strokeColor=none;fillColor=none;spacingLeft=4;spacingRight=4;whiteSpace=wrap;overflow=hidden;rotatable=0;points=[[0,0.5],[1,0.5]];portConstraint=eastwest;align=center;" parent="HDfJIpf2rJyifLne6ltG-388" vertex="1">
          <mxGeometry y="26" width="150" height="26" as="geometry" />
        </mxCell>
        <mxCell id="HDfJIpf2rJyifLne6ltG-390" value="" style="edgeStyle=orthogonalEdgeStyle;rounded=0;orthogonalLoop=1;jettySize=auto;fontFamily=Verdana;fontSize=12;fontColor=default;fontStyle=0;labelBackgroundColor=none;" parent="1" source="HDfJIpf2rJyifLne6ltG-391" target="HDfJIpf2rJyifLne6ltG-385" edge="1">
          <mxGeometry relative="1" as="geometry">
            <Array as="points">
              <mxPoint x="2053" y="2165" />
              <mxPoint x="2053" y="2165" />
            </Array>
          </mxGeometry>
        </mxCell>
        <mxCell id="HDfJIpf2rJyifLne6ltG-391" value="6.3" style="swimlane;fontStyle=0;childLayout=stackLayout;horizontal=1;startSize=26;fillColor=#e0e0e0;horizontalStack=0;resizeParent=1;resizeLast=0;collapsible=1;marginBottom=0;swimlaneFillColor=#ffffff;align=center;rounded=1;shadow=0;comic=0;labelBackgroundColor=none;strokeWidth=1;fontFamily=Verdana;fontSize=12" parent="1" vertex="1">
          <mxGeometry x="2190" y="2120" width="150" height="65" as="geometry" />
        </mxCell>
        <mxCell id="HDfJIpf2rJyifLne6ltG-392" value="Xóa nhân viên" style="text;strokeColor=none;fillColor=none;spacingLeft=4;spacingRight=4;whiteSpace=wrap;overflow=hidden;rotatable=0;points=[[0,0.5],[1,0.5]];portConstraint=eastwest;align=center;" parent="HDfJIpf2rJyifLne6ltG-391" vertex="1">
          <mxGeometry y="26" width="150" height="26" as="geometry" />
        </mxCell>
        <mxCell id="HDfJIpf2rJyifLne6ltG-393" value="" style="edgeStyle=orthogonalEdgeStyle;rounded=0;orthogonalLoop=1;jettySize=auto;fontFamily=Verdana;fontSize=12;fontColor=default;fontStyle=0;labelBackgroundColor=none;" parent="1" source="HDfJIpf2rJyifLne6ltG-394" target="HDfJIpf2rJyifLne6ltG-404" edge="1">
          <mxGeometry relative="1" as="geometry">
            <Array as="points">
              <mxPoint x="2478" y="2231" />
              <mxPoint x="2478" y="2231" />
            </Array>
          </mxGeometry>
        </mxCell>
        <mxCell id="HDfJIpf2rJyifLne6ltG-394" value="6.4" style="swimlane;fontStyle=0;childLayout=stackLayout;horizontal=1;startSize=26;fillColor=#e0e0e0;horizontalStack=0;resizeParent=1;resizeLast=0;collapsible=1;marginBottom=0;swimlaneFillColor=#ffffff;align=center;rounded=1;shadow=0;comic=0;labelBackgroundColor=none;strokeWidth=1;fontFamily=Verdana;fontSize=12" parent="1" vertex="1">
          <mxGeometry x="2190" y="2212" width="150" height="65" as="geometry" />
        </mxCell>
        <mxCell id="HDfJIpf2rJyifLne6ltG-395" value="Xem chi tiết nhân viên" style="text;strokeColor=none;fillColor=none;spacingLeft=4;spacingRight=4;whiteSpace=wrap;overflow=hidden;rotatable=0;points=[[0,0.5],[1,0.5]];portConstraint=eastwest;align=center;" parent="HDfJIpf2rJyifLne6ltG-394" vertex="1">
          <mxGeometry y="26" width="150" height="26" as="geometry" />
        </mxCell>
        <mxCell id="HDfJIpf2rJyifLne6ltG-396" value="" style="edgeStyle=orthogonalEdgeStyle;rounded=0;orthogonalLoop=1;jettySize=auto;fontFamily=Verdana;fontSize=12;fontColor=default;fontStyle=0;labelBackgroundColor=none;" parent="1" source="HDfJIpf2rJyifLne6ltG-399" target="HDfJIpf2rJyifLne6ltG-404" edge="1">
          <mxGeometry relative="1" as="geometry">
            <Array as="points">
              <mxPoint x="2628" y="2336" />
            </Array>
          </mxGeometry>
        </mxCell>
        <mxCell id="HDfJIpf2rJyifLne6ltG-397" value="" style="edgeStyle=orthogonalEdgeStyle;rounded=0;orthogonalLoop=1;jettySize=auto;fontFamily=Verdana;fontSize=12;fontColor=default;fontStyle=0;labelBackgroundColor=none;" parent="1" source="HDfJIpf2rJyifLne6ltG-399" target="HDfJIpf2rJyifLne6ltG-385" edge="1">
          <mxGeometry relative="1" as="geometry">
            <Array as="points">
              <mxPoint x="1843" y="2352" />
            </Array>
          </mxGeometry>
        </mxCell>
        <mxCell id="HDfJIpf2rJyifLne6ltG-398" value="kết quả tìm kiếm" style="edgeLabel;align=center;verticalAlign=middle;resizable=0;points=[];rounded=1;shadow=0;comic=0;strokeColor=default;strokeWidth=1;swimlaneFillColor=#ffffff;fontFamily=Verdana;fontSize=12;fontColor=default;fontStyle=0;labelBackgroundColor=none;fillColor=#e0e0e0;" parent="HDfJIpf2rJyifLne6ltG-397" vertex="1" connectable="0">
          <mxGeometry x="-0.3031" y="3" relative="1" as="geometry">
            <mxPoint x="15" y="6" as="offset" />
          </mxGeometry>
        </mxCell>
        <mxCell id="HDfJIpf2rJyifLne6ltG-399" value="6.5" style="swimlane;fontStyle=0;childLayout=stackLayout;horizontal=1;startSize=26;fillColor=#e0e0e0;horizontalStack=0;resizeParent=1;resizeLast=0;collapsible=1;marginBottom=0;swimlaneFillColor=#ffffff;align=center;rounded=1;shadow=0;comic=0;labelBackgroundColor=none;strokeWidth=1;fontFamily=Verdana;fontSize=12" parent="1" vertex="1">
          <mxGeometry x="2190" y="2304" width="150" height="65" as="geometry" />
        </mxCell>
        <mxCell id="HDfJIpf2rJyifLne6ltG-400" value="Tìm kiếm nhân viên" style="text;strokeColor=none;fillColor=none;spacingLeft=4;spacingRight=4;whiteSpace=wrap;overflow=hidden;rotatable=0;points=[[0,0.5],[1,0.5]];portConstraint=eastwest;align=center;" parent="HDfJIpf2rJyifLne6ltG-399" vertex="1">
          <mxGeometry y="26" width="150" height="26" as="geometry" />
        </mxCell>
        <mxCell id="HDfJIpf2rJyifLne6ltG-401" value="" style="edgeStyle=orthogonalEdgeStyle;rounded=0;orthogonalLoop=1;jettySize=auto;fontFamily=Verdana;fontSize=12;fontColor=default;fontStyle=0;labelBackgroundColor=none;" parent="1" source="HDfJIpf2rJyifLne6ltG-404" target="HDfJIpf2rJyifLne6ltG-391" edge="1">
          <mxGeometry relative="1" as="geometry">
            <Array as="points">
              <mxPoint x="2629" y="2165" />
            </Array>
          </mxGeometry>
        </mxCell>
        <mxCell id="HDfJIpf2rJyifLne6ltG-402" value="" style="edgeStyle=orthogonalEdgeStyle;rounded=0;orthogonalLoop=1;jettySize=auto;fontFamily=Verdana;fontSize=12;fontColor=default;fontStyle=0;labelBackgroundColor=none;" parent="1" source="HDfJIpf2rJyifLne6ltG-404" target="HDfJIpf2rJyifLne6ltG-394" edge="1">
          <mxGeometry relative="1" as="geometry">
            <Array as="points">
              <mxPoint x="2511" y="2245" />
              <mxPoint x="2511" y="2245" />
            </Array>
          </mxGeometry>
        </mxCell>
        <mxCell id="HDfJIpf2rJyifLne6ltG-403" value="" style="edgeStyle=orthogonalEdgeStyle;rounded=0;orthogonalLoop=1;jettySize=auto;fontFamily=Verdana;fontSize=12;fontColor=default;fontStyle=0;labelBackgroundColor=none;" parent="1" source="HDfJIpf2rJyifLne6ltG-404" target="HDfJIpf2rJyifLne6ltG-399" edge="1">
          <mxGeometry relative="1" as="geometry">
            <Array as="points">
              <mxPoint x="2644" y="2353" />
            </Array>
          </mxGeometry>
        </mxCell>
        <mxCell id="HDfJIpf2rJyifLne6ltG-404" value="Nhân viên" style="rounded=0;shadow=0;comic=0;labelBackgroundColor=none;strokeWidth=2;fontFamily=Verdana;fontSize=12;align=center;shape=mxgraph.ios7ui.horLines;" parent="1" vertex="1">
          <mxGeometry x="2570" y="2212" width="135" height="50" as="geometry" />
        </mxCell>
        <mxCell id="HDfJIpf2rJyifLne6ltG-405" value="thông tin nhân viên" style="edgeLabel;align=center;verticalAlign=middle;resizable=0;points=[];rounded=1;shadow=0;comic=0;strokeColor=default;strokeWidth=1;swimlaneFillColor=#ffffff;fontFamily=Verdana;fontSize=12;fontColor=default;fontStyle=0;labelBackgroundColor=none;fillColor=#e0e0e0;" parent="1" vertex="1" connectable="0">
          <mxGeometry x="2056" y="2039.5" as="geometry" />
        </mxCell>
        <mxCell id="HDfJIpf2rJyifLne6ltG-406" value="thông tin nhân viên" style="edgeLabel;align=center;verticalAlign=middle;resizable=0;points=[];rounded=1;shadow=0;comic=0;strokeColor=default;strokeWidth=1;swimlaneFillColor=#ffffff;fontFamily=Verdana;fontSize=12;fontColor=default;fontStyle=0;labelBackgroundColor=none;fillColor=#e0e0e0;" parent="1" vertex="1" connectable="0">
          <mxGeometry x="2478" y="2039.5" as="geometry" />
        </mxCell>
        <mxCell id="HDfJIpf2rJyifLne6ltG-407" value="thông tin kết quả sửa nhân viên" style="edgeLabel;align=center;verticalAlign=middle;resizable=0;points=[];rounded=1;shadow=0;comic=0;strokeColor=default;strokeWidth=1;swimlaneFillColor=#ffffff;fontFamily=Verdana;fontSize=12;fontColor=default;fontStyle=0;labelBackgroundColor=none;fillColor=#e0e0e0;" parent="1" vertex="1" connectable="0">
          <mxGeometry x="2079" y="2085" as="geometry" />
        </mxCell>
        <mxCell id="HDfJIpf2rJyifLne6ltG-408" value="" style="edgeStyle=orthogonalEdgeStyle;rounded=0;orthogonalLoop=1;jettySize=auto;fontFamily=Verdana;fontSize=12;fontColor=default;fontStyle=0;labelBackgroundColor=none;" parent="1" source="HDfJIpf2rJyifLne6ltG-392" target="HDfJIpf2rJyifLne6ltG-404" edge="1">
          <mxGeometry relative="1" as="geometry">
            <Array as="points">
              <mxPoint x="2642" y="2152" />
            </Array>
          </mxGeometry>
        </mxCell>
        <mxCell id="HDfJIpf2rJyifLne6ltG-409" value="thông tin nhân viên" style="edgeLabel;align=center;verticalAlign=middle;resizable=0;points=[];rounded=1;shadow=0;comic=0;strokeColor=default;strokeWidth=1;swimlaneFillColor=#ffffff;fontFamily=Verdana;fontSize=12;fontColor=default;fontStyle=0;labelBackgroundColor=none;fillColor=#e0e0e0;" parent="1" vertex="1" connectable="0">
          <mxGeometry x="2056" y="2145" as="geometry" />
        </mxCell>
        <mxCell id="HDfJIpf2rJyifLne6ltG-410" value="thông tin nhân viên" style="edgeLabel;align=center;verticalAlign=middle;resizable=0;points=[];rounded=1;shadow=0;comic=0;strokeColor=default;strokeWidth=1;swimlaneFillColor=#ffffff;fontFamily=Verdana;fontSize=12;fontColor=default;fontStyle=0;labelBackgroundColor=none;fillColor=#e0e0e0;" parent="1" vertex="1" connectable="0">
          <mxGeometry x="2492" y="2145" as="geometry" />
        </mxCell>
        <mxCell id="HDfJIpf2rJyifLne6ltG-411" value="thông tin kết quả xóa nhân viên" style="edgeLabel;align=center;verticalAlign=middle;resizable=0;points=[];rounded=1;shadow=0;comic=0;strokeColor=default;strokeWidth=1;swimlaneFillColor=#ffffff;fontFamily=Verdana;fontSize=12;fontColor=default;fontStyle=0;labelBackgroundColor=none;fillColor=#e0e0e0;" parent="1" vertex="1" connectable="0">
          <mxGeometry x="2063" y="2174" as="geometry" />
        </mxCell>
        <mxCell id="HDfJIpf2rJyifLne6ltG-412" value="" style="edgeStyle=orthogonalEdgeStyle;rounded=0;orthogonalLoop=1;jettySize=auto;fontFamily=Verdana;fontSize=12;fontColor=default;fontStyle=0;labelBackgroundColor=none;" parent="1" source="HDfJIpf2rJyifLne6ltG-395" target="HDfJIpf2rJyifLne6ltG-385" edge="1">
          <mxGeometry relative="1" as="geometry">
            <Array as="points">
              <mxPoint x="1878" y="2251" />
            </Array>
          </mxGeometry>
        </mxCell>
        <mxCell id="HDfJIpf2rJyifLne6ltG-413" value="thông tin nhân viên" style="edgeLabel;align=center;verticalAlign=middle;resizable=0;points=[];rounded=1;shadow=0;comic=0;strokeColor=default;strokeWidth=1;swimlaneFillColor=#ffffff;fontFamily=Verdana;fontSize=12;fontColor=default;fontStyle=0;labelBackgroundColor=none;fillColor=#e0e0e0;" parent="1" vertex="1" connectable="0">
          <mxGeometry x="2449" y="2256" as="geometry" />
        </mxCell>
        <mxCell id="HDfJIpf2rJyifLne6ltG-414" value="thông tin nhân viên" style="edgeLabel;align=center;verticalAlign=middle;resizable=0;points=[];rounded=1;shadow=0;comic=0;strokeColor=default;strokeWidth=1;swimlaneFillColor=#ffffff;fontFamily=Verdana;fontSize=12;fontColor=default;fontStyle=0;labelBackgroundColor=none;fillColor=#e0e0e0;" parent="1" vertex="1" connectable="0">
          <mxGeometry x="2039" y="2262" as="geometry" />
        </mxCell>
        <mxCell id="HDfJIpf2rJyifLne6ltG-415" value="danh sách nhân viên" style="edgeLabel;align=center;verticalAlign=middle;resizable=0;points=[];rounded=1;shadow=0;comic=0;strokeColor=default;strokeWidth=1;swimlaneFillColor=#ffffff;fontFamily=Verdana;fontSize=12;fontColor=default;fontStyle=0;labelBackgroundColor=none;fillColor=#e0e0e0;" parent="1" vertex="1" connectable="0">
          <mxGeometry x="2478.003103448276" y="2361.0027586206897" as="geometry" />
        </mxCell>
        <mxCell id="HDfJIpf2rJyifLne6ltG-466" value="2.8 DFD Quản lý quyền" style="swimlane;whiteSpace=wrap;rounded=1;shadow=0;comic=0;strokeColor=default;strokeWidth=1;align=center;verticalAlign=middle;swimlaneFillColor=#ffffff;fontFamily=Verdana;fontSize=12;fontColor=default;fontStyle=0;labelBackgroundColor=none;fillColor=#e0e0e0;" parent="1" vertex="1">
          <mxGeometry x="1567" y="2697" width="1396" height="784" as="geometry" />
        </mxCell>
        <mxCell id="HDfJIpf2rJyifLne6ltG-467" value="" style="edgeStyle=orthogonalEdgeStyle;rounded=0;orthogonalLoop=1;jettySize=auto;fontFamily=Verdana;fontSize=12;fontColor=default;fontStyle=0;labelBackgroundColor=none;" parent="1" source="HDfJIpf2rJyifLne6ltG-470" target="HDfJIpf2rJyifLne6ltG-475" edge="1">
          <mxGeometry relative="1" as="geometry">
            <Array as="points">
              <mxPoint x="2456" y="2914.5" />
              <mxPoint x="2456" y="2914.5" />
            </Array>
          </mxGeometry>
        </mxCell>
        <mxCell id="HDfJIpf2rJyifLne6ltG-468" value="danh sách quyền" style="edgeLabel;align=center;verticalAlign=middle;resizable=0;points=[];rounded=1;shadow=0;comic=0;strokeColor=default;strokeWidth=1;swimlaneFillColor=#ffffff;fontFamily=Verdana;fontSize=12;fontColor=default;fontStyle=0;labelBackgroundColor=none;fillColor=#e0e0e0;" parent="HDfJIpf2rJyifLne6ltG-467" vertex="1" connectable="0">
          <mxGeometry x="0.4435" y="1" relative="1" as="geometry">
            <mxPoint x="50" y="-14" as="offset" />
          </mxGeometry>
        </mxCell>
        <mxCell id="HDfJIpf2rJyifLne6ltG-469" value="" style="edgeStyle=orthogonalEdgeStyle;rounded=0;orthogonalLoop=1;jettySize=auto;fontFamily=Verdana;fontSize=12;fontColor=default;fontStyle=0;labelBackgroundColor=none;" parent="1" source="HDfJIpf2rJyifLne6ltG-470" target="HDfJIpf2rJyifLne6ltG-488" edge="1">
          <mxGeometry relative="1" as="geometry">
            <Array as="points">
              <mxPoint x="2651" y="3028.5" />
            </Array>
          </mxGeometry>
        </mxCell>
        <mxCell id="HDfJIpf2rJyifLne6ltG-470" value="Quyền" style="rounded=0;shadow=0;comic=0;labelBackgroundColor=none;strokeWidth=2;fontFamily=Verdana;fontSize=12;align=center;shape=mxgraph.ios7ui.horLines;fixDash=0;" parent="1" vertex="1">
          <mxGeometry x="2570" y="2901.5" width="135" height="50" as="geometry" />
        </mxCell>
        <mxCell id="HDfJIpf2rJyifLne6ltG-471" value="" style="edgeStyle=orthogonalEdgeStyle;rounded=0;orthogonalLoop=1;jettySize=auto;fontFamily=Verdana;fontSize=12;fontColor=default;fontStyle=0;labelBackgroundColor=none;" parent="1" source="HDfJIpf2rJyifLne6ltG-475" target="HDfJIpf2rJyifLne6ltG-470" edge="1">
          <mxGeometry relative="1" as="geometry">
            <Array as="points">
              <mxPoint x="2458" y="2936.5" />
              <mxPoint x="2458" y="2936.5" />
            </Array>
          </mxGeometry>
        </mxCell>
        <mxCell id="HDfJIpf2rJyifLne6ltG-472" value="thông tin quyền" style="edgeLabel;align=center;verticalAlign=middle;resizable=0;points=[];rounded=1;shadow=0;comic=0;strokeColor=default;strokeWidth=1;swimlaneFillColor=#ffffff;fontFamily=Verdana;fontSize=12;fontColor=default;fontStyle=0;labelBackgroundColor=none;fillColor=#e0e0e0;" parent="HDfJIpf2rJyifLne6ltG-471" vertex="1" connectable="0">
          <mxGeometry x="-0.1043" y="-3" relative="1" as="geometry">
            <mxPoint x="7" y="7" as="offset" />
          </mxGeometry>
        </mxCell>
        <mxCell id="HDfJIpf2rJyifLne6ltG-473" value="" style="edgeStyle=orthogonalEdgeStyle;rounded=0;orthogonalLoop=1;jettySize=auto;fontFamily=Verdana;fontSize=12;fontColor=default;fontStyle=0;labelBackgroundColor=none;" parent="1" source="HDfJIpf2rJyifLne6ltG-475" target="HDfJIpf2rJyifLne6ltG-485" edge="1">
          <mxGeometry relative="1" as="geometry">
            <Array as="points">
              <mxPoint x="1860" y="2916" />
            </Array>
          </mxGeometry>
        </mxCell>
        <mxCell id="HDfJIpf2rJyifLne6ltG-474" value="thông tin kết quả thêm quyền" style="edgeLabel;align=center;verticalAlign=middle;resizable=0;points=[];rounded=1;shadow=0;comic=0;strokeColor=default;strokeWidth=1;swimlaneFillColor=#ffffff;fontFamily=Verdana;fontSize=12;fontColor=default;fontStyle=0;labelBackgroundColor=none;fillColor=#e0e0e0;" parent="HDfJIpf2rJyifLne6ltG-473" vertex="1" connectable="0">
          <mxGeometry x="-0.2156" y="-1" relative="1" as="geometry">
            <mxPoint x="42" y="-11" as="offset" />
          </mxGeometry>
        </mxCell>
        <mxCell id="HDfJIpf2rJyifLne6ltG-475" value="8.1" style="swimlane;fontStyle=0;childLayout=stackLayout;horizontal=1;startSize=26;fillColor=#e0e0e0;horizontalStack=0;resizeParent=1;resizeLast=0;collapsible=1;marginBottom=0;swimlaneFillColor=#ffffff;align=center;rounded=1;shadow=0;comic=0;labelBackgroundColor=none;strokeWidth=1;fontFamily=Verdana;fontSize=12" parent="1" vertex="1">
          <mxGeometry x="2190" y="2894" width="150" height="65" as="geometry" />
        </mxCell>
        <mxCell id="HDfJIpf2rJyifLne6ltG-476" value="Thêm quyền" style="text;strokeColor=none;fillColor=none;spacingLeft=4;spacingRight=4;whiteSpace=wrap;overflow=hidden;rotatable=0;points=[[0,0.5],[1,0.5]];portConstraint=eastwest;align=center;" parent="HDfJIpf2rJyifLne6ltG-475" vertex="1">
          <mxGeometry y="26" width="150" height="26" as="geometry" />
        </mxCell>
        <mxCell id="HDfJIpf2rJyifLne6ltG-477" value="" style="edgeStyle=orthogonalEdgeStyle;rounded=0;orthogonalLoop=1;jettySize=auto;fontFamily=Verdana;fontSize=12;fontColor=default;fontStyle=0;labelBackgroundColor=none;" parent="1" source="HDfJIpf2rJyifLne6ltG-485" target="HDfJIpf2rJyifLne6ltG-475" edge="1">
          <mxGeometry relative="1" as="geometry">
            <Array as="points">
              <mxPoint x="1891" y="2941" />
            </Array>
          </mxGeometry>
        </mxCell>
        <mxCell id="HDfJIpf2rJyifLne6ltG-478" value="thông tin quyền" style="edgeLabel;align=center;verticalAlign=middle;resizable=0;points=[];rounded=1;shadow=0;comic=0;strokeColor=default;strokeWidth=1;swimlaneFillColor=#ffffff;fontFamily=Verdana;fontSize=12;fontColor=default;fontStyle=0;labelBackgroundColor=none;fillColor=#e0e0e0;" parent="HDfJIpf2rJyifLne6ltG-477" vertex="1" connectable="0">
          <mxGeometry x="0.3411" y="-3" relative="1" as="geometry">
            <mxPoint x="10" y="6" as="offset" />
          </mxGeometry>
        </mxCell>
        <mxCell id="HDfJIpf2rJyifLne6ltG-479" value="" style="edgeStyle=orthogonalEdgeStyle;rounded=0;orthogonalLoop=1;jettySize=auto;fontFamily=Verdana;fontSize=12;fontColor=default;fontStyle=0;labelBackgroundColor=none;" parent="1" source="HDfJIpf2rJyifLne6ltG-485" target="HDfJIpf2rJyifLne6ltG-488" edge="1">
          <mxGeometry relative="1" as="geometry">
            <Array as="points">
              <mxPoint x="1944" y="3095" />
              <mxPoint x="1944" y="3011" />
            </Array>
          </mxGeometry>
        </mxCell>
        <mxCell id="HDfJIpf2rJyifLne6ltG-480" value="" style="edgeStyle=orthogonalEdgeStyle;rounded=0;orthogonalLoop=1;jettySize=auto;fontFamily=Verdana;fontSize=12;fontColor=default;fontStyle=0;labelBackgroundColor=none;" parent="1" source="HDfJIpf2rJyifLne6ltG-485" target="HDfJIpf2rJyifLne6ltG-491" edge="1">
          <mxGeometry relative="1" as="geometry">
            <Array as="points">
              <mxPoint x="2056" y="3113" />
              <mxPoint x="2056" y="3113" />
            </Array>
          </mxGeometry>
        </mxCell>
        <mxCell id="HDfJIpf2rJyifLne6ltG-481" value="" style="edgeStyle=orthogonalEdgeStyle;rounded=0;orthogonalLoop=1;jettySize=auto;fontFamily=Verdana;fontSize=12;fontColor=default;fontStyle=0;labelBackgroundColor=none;" parent="1" source="HDfJIpf2rJyifLne6ltG-485" target="HDfJIpf2rJyifLne6ltG-494" edge="1">
          <mxGeometry relative="1" as="geometry">
            <Array as="points">
              <mxPoint x="1898" y="3194" />
            </Array>
          </mxGeometry>
        </mxCell>
        <mxCell id="HDfJIpf2rJyifLne6ltG-482" value="chọn quyền muốn xem" style="edgeLabel;align=center;verticalAlign=middle;resizable=0;points=[];rounded=1;shadow=0;comic=0;strokeColor=default;strokeWidth=1;swimlaneFillColor=#ffffff;fontFamily=Verdana;fontSize=12;fontColor=default;fontStyle=0;labelBackgroundColor=none;fillColor=#e0e0e0;" parent="HDfJIpf2rJyifLne6ltG-481" vertex="1" connectable="0">
          <mxGeometry x="-0.2182" y="3" relative="1" as="geometry">
            <mxPoint x="61" y="-5" as="offset" />
          </mxGeometry>
        </mxCell>
        <mxCell id="HDfJIpf2rJyifLne6ltG-483" value="" style="edgeStyle=orthogonalEdgeStyle;rounded=0;orthogonalLoop=1;jettySize=auto;fontFamily=Verdana;fontSize=12;fontColor=default;fontStyle=0;labelBackgroundColor=none;" parent="1" source="HDfJIpf2rJyifLne6ltG-485" target="HDfJIpf2rJyifLne6ltG-499" edge="1">
          <mxGeometry relative="1" as="geometry">
            <Array as="points">
              <mxPoint x="1860" y="3293" />
            </Array>
          </mxGeometry>
        </mxCell>
        <mxCell id="HDfJIpf2rJyifLne6ltG-484" value="nội dung tìm kiếm" style="edgeLabel;align=center;verticalAlign=middle;resizable=0;points=[];rounded=1;shadow=0;comic=0;strokeColor=default;strokeWidth=1;swimlaneFillColor=#ffffff;fontFamily=Verdana;fontSize=12;fontColor=default;fontStyle=0;labelBackgroundColor=none;fillColor=#e0e0e0;" parent="HDfJIpf2rJyifLne6ltG-483" vertex="1" connectable="0">
          <mxGeometry x="0.3041" y="-1" relative="1" as="geometry">
            <mxPoint x="1" y="-8" as="offset" />
          </mxGeometry>
        </mxCell>
        <mxCell id="HDfJIpf2rJyifLne6ltG-485" value="Quản lý" style="whiteSpace=wrap;rounded=0;shadow=0;comic=0;labelBackgroundColor=none;strokeWidth=1;fontFamily=Verdana;fontSize=12;align=center;" parent="1" vertex="1">
          <mxGeometry x="1800" y="3088.5" width="120" height="50" as="geometry" />
        </mxCell>
        <mxCell id="HDfJIpf2rJyifLne6ltG-486" value="" style="edgeStyle=orthogonalEdgeStyle;rounded=0;orthogonalLoop=1;jettySize=auto;fontFamily=Verdana;fontSize=12;fontColor=default;fontStyle=0;labelBackgroundColor=none;" parent="1" source="HDfJIpf2rJyifLne6ltG-488" target="HDfJIpf2rJyifLne6ltG-470" edge="1">
          <mxGeometry relative="1" as="geometry">
            <Array as="points">
              <mxPoint x="2626" y="3007" />
            </Array>
          </mxGeometry>
        </mxCell>
        <mxCell id="HDfJIpf2rJyifLne6ltG-487" value="" style="edgeStyle=orthogonalEdgeStyle;rounded=0;orthogonalLoop=1;jettySize=auto;fontFamily=Verdana;fontSize=12;fontColor=default;fontStyle=0;labelBackgroundColor=none;" parent="1" source="HDfJIpf2rJyifLne6ltG-488" target="HDfJIpf2rJyifLne6ltG-485" edge="1">
          <mxGeometry relative="1" as="geometry">
            <Array as="points">
              <mxPoint x="1971" y="3034" />
              <mxPoint x="1971" y="3102" />
            </Array>
          </mxGeometry>
        </mxCell>
        <mxCell id="HDfJIpf2rJyifLne6ltG-488" value="8.2" style="swimlane;fontStyle=0;childLayout=stackLayout;horizontal=1;startSize=26;fillColor=#e0e0e0;horizontalStack=0;resizeParent=1;resizeLast=0;collapsible=1;marginBottom=0;swimlaneFillColor=#ffffff;align=center;rounded=1;shadow=0;comic=0;labelBackgroundColor=none;strokeWidth=1;fontFamily=Verdana;fontSize=12" parent="1" vertex="1">
          <mxGeometry x="2190" y="2986" width="150" height="65" as="geometry" />
        </mxCell>
        <mxCell id="HDfJIpf2rJyifLne6ltG-489" value="Chỉnh sửa quyền" style="text;strokeColor=none;fillColor=none;spacingLeft=4;spacingRight=4;whiteSpace=wrap;overflow=hidden;rotatable=0;points=[[0,0.5],[1,0.5]];portConstraint=eastwest;align=center;" parent="HDfJIpf2rJyifLne6ltG-488" vertex="1">
          <mxGeometry y="26" width="150" height="26" as="geometry" />
        </mxCell>
        <mxCell id="HDfJIpf2rJyifLne6ltG-490" value="" style="edgeStyle=orthogonalEdgeStyle;rounded=0;orthogonalLoop=1;jettySize=auto;fontFamily=Verdana;fontSize=12;fontColor=default;fontStyle=0;labelBackgroundColor=none;" parent="1" source="HDfJIpf2rJyifLne6ltG-491" target="HDfJIpf2rJyifLne6ltG-485" edge="1">
          <mxGeometry relative="1" as="geometry">
            <Array as="points">
              <mxPoint x="2053" y="3124" />
              <mxPoint x="2053" y="3124" />
            </Array>
          </mxGeometry>
        </mxCell>
        <mxCell id="HDfJIpf2rJyifLne6ltG-491" value="8.3" style="swimlane;fontStyle=0;childLayout=stackLayout;horizontal=1;startSize=26;fillColor=#e0e0e0;horizontalStack=0;resizeParent=1;resizeLast=0;collapsible=1;marginBottom=0;swimlaneFillColor=#ffffff;align=center;rounded=1;shadow=0;comic=0;labelBackgroundColor=none;strokeWidth=1;fontFamily=Verdana;fontSize=12" parent="1" vertex="1">
          <mxGeometry x="2190" y="3079" width="150" height="65" as="geometry" />
        </mxCell>
        <mxCell id="HDfJIpf2rJyifLne6ltG-492" value="Xóa quyền" style="text;strokeColor=none;fillColor=none;spacingLeft=4;spacingRight=4;whiteSpace=wrap;overflow=hidden;rotatable=0;points=[[0,0.5],[1,0.5]];portConstraint=eastwest;align=center;" parent="HDfJIpf2rJyifLne6ltG-491" vertex="1">
          <mxGeometry y="26" width="150" height="26" as="geometry" />
        </mxCell>
        <mxCell id="HDfJIpf2rJyifLne6ltG-493" value="" style="edgeStyle=orthogonalEdgeStyle;rounded=0;orthogonalLoop=1;jettySize=auto;fontFamily=Verdana;fontSize=12;fontColor=default;fontStyle=0;labelBackgroundColor=none;" parent="1" source="HDfJIpf2rJyifLne6ltG-494" target="HDfJIpf2rJyifLne6ltG-504" edge="1">
          <mxGeometry relative="1" as="geometry">
            <Array as="points">
              <mxPoint x="2478" y="3190" />
              <mxPoint x="2478" y="3190" />
            </Array>
          </mxGeometry>
        </mxCell>
        <mxCell id="HDfJIpf2rJyifLne6ltG-494" value="8.4" style="swimlane;fontStyle=0;childLayout=stackLayout;horizontal=1;startSize=26;fillColor=#e0e0e0;horizontalStack=0;resizeParent=1;resizeLast=0;collapsible=1;marginBottom=0;swimlaneFillColor=#ffffff;align=center;rounded=1;shadow=0;comic=0;labelBackgroundColor=none;strokeWidth=1;fontFamily=Verdana;fontSize=12" parent="1" vertex="1">
          <mxGeometry x="2190" y="3171" width="150" height="65" as="geometry" />
        </mxCell>
        <mxCell id="HDfJIpf2rJyifLne6ltG-495" value="Xem chi tiết quyền" style="text;strokeColor=none;fillColor=none;spacingLeft=4;spacingRight=4;whiteSpace=wrap;overflow=hidden;rotatable=0;points=[[0,0.5],[1,0.5]];portConstraint=eastwest;align=center;" parent="HDfJIpf2rJyifLne6ltG-494" vertex="1">
          <mxGeometry y="26" width="150" height="26" as="geometry" />
        </mxCell>
        <mxCell id="HDfJIpf2rJyifLne6ltG-496" value="" style="edgeStyle=orthogonalEdgeStyle;rounded=0;orthogonalLoop=1;jettySize=auto;fontFamily=Verdana;fontSize=12;fontColor=default;fontStyle=0;labelBackgroundColor=none;" parent="1" source="HDfJIpf2rJyifLne6ltG-499" target="HDfJIpf2rJyifLne6ltG-504" edge="1">
          <mxGeometry relative="1" as="geometry">
            <Array as="points">
              <mxPoint x="2628" y="3295" />
            </Array>
          </mxGeometry>
        </mxCell>
        <mxCell id="HDfJIpf2rJyifLne6ltG-497" value="" style="edgeStyle=orthogonalEdgeStyle;rounded=0;orthogonalLoop=1;jettySize=auto;fontFamily=Verdana;fontSize=12;fontColor=default;fontStyle=0;labelBackgroundColor=none;" parent="1" source="HDfJIpf2rJyifLne6ltG-499" target="HDfJIpf2rJyifLne6ltG-485" edge="1">
          <mxGeometry relative="1" as="geometry">
            <Array as="points">
              <mxPoint x="1843" y="3311" />
            </Array>
          </mxGeometry>
        </mxCell>
        <mxCell id="HDfJIpf2rJyifLne6ltG-498" value="kết quả tìm kiếm" style="edgeLabel;align=center;verticalAlign=middle;resizable=0;points=[];rounded=1;shadow=0;comic=0;strokeColor=default;strokeWidth=1;swimlaneFillColor=#ffffff;fontFamily=Verdana;fontSize=12;fontColor=default;fontStyle=0;labelBackgroundColor=none;fillColor=#e0e0e0;" parent="HDfJIpf2rJyifLne6ltG-497" vertex="1" connectable="0">
          <mxGeometry x="-0.3031" y="3" relative="1" as="geometry">
            <mxPoint x="15" y="6" as="offset" />
          </mxGeometry>
        </mxCell>
        <mxCell id="HDfJIpf2rJyifLne6ltG-499" value="8.5" style="swimlane;fontStyle=0;childLayout=stackLayout;horizontal=1;startSize=26;fillColor=#e0e0e0;horizontalStack=0;resizeParent=1;resizeLast=0;collapsible=1;marginBottom=0;swimlaneFillColor=#ffffff;align=center;rounded=1;shadow=0;comic=0;labelBackgroundColor=none;strokeWidth=1;fontFamily=Verdana;fontSize=12" parent="1" vertex="1">
          <mxGeometry x="2190" y="3263" width="150" height="65" as="geometry" />
        </mxCell>
        <mxCell id="HDfJIpf2rJyifLne6ltG-500" value="Tìm kiếm quyền" style="text;strokeColor=none;fillColor=none;spacingLeft=4;spacingRight=4;whiteSpace=wrap;overflow=hidden;rotatable=0;points=[[0,0.5],[1,0.5]];portConstraint=eastwest;align=center;" parent="HDfJIpf2rJyifLne6ltG-499" vertex="1">
          <mxGeometry y="26" width="150" height="26" as="geometry" />
        </mxCell>
        <mxCell id="HDfJIpf2rJyifLne6ltG-501" value="" style="edgeStyle=orthogonalEdgeStyle;rounded=0;orthogonalLoop=1;jettySize=auto;fontFamily=Verdana;fontSize=12;fontColor=default;fontStyle=0;labelBackgroundColor=none;" parent="1" source="HDfJIpf2rJyifLne6ltG-504" target="HDfJIpf2rJyifLne6ltG-491" edge="1">
          <mxGeometry relative="1" as="geometry">
            <Array as="points">
              <mxPoint x="2629" y="3124" />
            </Array>
          </mxGeometry>
        </mxCell>
        <mxCell id="HDfJIpf2rJyifLne6ltG-502" value="" style="edgeStyle=orthogonalEdgeStyle;rounded=0;orthogonalLoop=1;jettySize=auto;fontFamily=Verdana;fontSize=12;fontColor=default;fontStyle=0;labelBackgroundColor=none;" parent="1" source="HDfJIpf2rJyifLne6ltG-504" target="HDfJIpf2rJyifLne6ltG-494" edge="1">
          <mxGeometry relative="1" as="geometry">
            <Array as="points">
              <mxPoint x="2511" y="3204" />
              <mxPoint x="2511" y="3204" />
            </Array>
          </mxGeometry>
        </mxCell>
        <mxCell id="HDfJIpf2rJyifLne6ltG-503" value="" style="edgeStyle=orthogonalEdgeStyle;rounded=0;orthogonalLoop=1;jettySize=auto;fontFamily=Verdana;fontSize=12;fontColor=default;fontStyle=0;labelBackgroundColor=none;" parent="1" source="HDfJIpf2rJyifLne6ltG-504" target="HDfJIpf2rJyifLne6ltG-499" edge="1">
          <mxGeometry relative="1" as="geometry">
            <Array as="points">
              <mxPoint x="2644" y="3312" />
            </Array>
          </mxGeometry>
        </mxCell>
        <mxCell id="HDfJIpf2rJyifLne6ltG-504" value="Quyền" style="rounded=0;shadow=0;comic=0;labelBackgroundColor=none;strokeWidth=2;fontFamily=Verdana;fontSize=12;align=center;shape=mxgraph.ios7ui.horLines;" parent="1" vertex="1">
          <mxGeometry x="2570" y="3171" width="135" height="50" as="geometry" />
        </mxCell>
        <mxCell id="HDfJIpf2rJyifLne6ltG-505" value="thông tin quyền" style="edgeLabel;align=center;verticalAlign=middle;resizable=0;points=[];rounded=1;shadow=0;comic=0;strokeColor=default;strokeWidth=1;swimlaneFillColor=#ffffff;fontFamily=Verdana;fontSize=12;fontColor=default;fontStyle=0;labelBackgroundColor=none;fillColor=#e0e0e0;" parent="1" vertex="1" connectable="0">
          <mxGeometry x="2056" y="2998.5" as="geometry" />
        </mxCell>
        <mxCell id="HDfJIpf2rJyifLne6ltG-506" value="thông tin quyền" style="edgeLabel;align=center;verticalAlign=middle;resizable=0;points=[];rounded=1;shadow=0;comic=0;strokeColor=default;strokeWidth=1;swimlaneFillColor=#ffffff;fontFamily=Verdana;fontSize=12;fontColor=default;fontStyle=0;labelBackgroundColor=none;fillColor=#e0e0e0;" parent="1" vertex="1" connectable="0">
          <mxGeometry x="2478" y="2998.5" as="geometry" />
        </mxCell>
        <mxCell id="HDfJIpf2rJyifLne6ltG-507" value="thông tin kết quả sửa quyền" style="edgeLabel;align=center;verticalAlign=middle;resizable=0;points=[];rounded=1;shadow=0;comic=0;strokeColor=default;strokeWidth=1;swimlaneFillColor=#ffffff;fontFamily=Verdana;fontSize=12;fontColor=default;fontStyle=0;labelBackgroundColor=none;fillColor=#e0e0e0;" parent="1" vertex="1" connectable="0">
          <mxGeometry x="2079" y="3044" as="geometry" />
        </mxCell>
        <mxCell id="HDfJIpf2rJyifLne6ltG-508" value="" style="edgeStyle=orthogonalEdgeStyle;rounded=0;orthogonalLoop=1;jettySize=auto;fontFamily=Verdana;fontSize=12;fontColor=default;fontStyle=0;labelBackgroundColor=none;" parent="1" source="HDfJIpf2rJyifLne6ltG-492" target="HDfJIpf2rJyifLne6ltG-504" edge="1">
          <mxGeometry relative="1" as="geometry">
            <Array as="points">
              <mxPoint x="2642" y="3111" />
            </Array>
          </mxGeometry>
        </mxCell>
        <mxCell id="HDfJIpf2rJyifLne6ltG-509" value="thông tin quyền" style="edgeLabel;align=center;verticalAlign=middle;resizable=0;points=[];rounded=1;shadow=0;comic=0;strokeColor=default;strokeWidth=1;swimlaneFillColor=#ffffff;fontFamily=Verdana;fontSize=12;fontColor=default;fontStyle=0;labelBackgroundColor=none;fillColor=#e0e0e0;" parent="1" vertex="1" connectable="0">
          <mxGeometry x="2056" y="3104" as="geometry" />
        </mxCell>
        <mxCell id="HDfJIpf2rJyifLne6ltG-510" value="thông tin quyền" style="edgeLabel;align=center;verticalAlign=middle;resizable=0;points=[];rounded=1;shadow=0;comic=0;strokeColor=default;strokeWidth=1;swimlaneFillColor=#ffffff;fontFamily=Verdana;fontSize=12;fontColor=default;fontStyle=0;labelBackgroundColor=none;fillColor=#e0e0e0;" parent="1" vertex="1" connectable="0">
          <mxGeometry x="2492" y="3104" as="geometry" />
        </mxCell>
        <mxCell id="HDfJIpf2rJyifLne6ltG-511" value="thông tin kết quả xóa quyền" style="edgeLabel;align=center;verticalAlign=middle;resizable=0;points=[];rounded=1;shadow=0;comic=0;strokeColor=default;strokeWidth=1;swimlaneFillColor=#ffffff;fontFamily=Verdana;fontSize=12;fontColor=default;fontStyle=0;labelBackgroundColor=none;fillColor=#e0e0e0;" parent="1" vertex="1" connectable="0">
          <mxGeometry x="2063" y="3133" as="geometry" />
        </mxCell>
        <mxCell id="HDfJIpf2rJyifLne6ltG-512" value="" style="edgeStyle=orthogonalEdgeStyle;rounded=0;orthogonalLoop=1;jettySize=auto;fontFamily=Verdana;fontSize=12;fontColor=default;fontStyle=0;labelBackgroundColor=none;" parent="1" source="HDfJIpf2rJyifLne6ltG-495" target="HDfJIpf2rJyifLne6ltG-485" edge="1">
          <mxGeometry relative="1" as="geometry">
            <Array as="points">
              <mxPoint x="1878" y="3210" />
            </Array>
          </mxGeometry>
        </mxCell>
        <mxCell id="HDfJIpf2rJyifLne6ltG-513" value="thông tin quyền" style="edgeLabel;align=center;verticalAlign=middle;resizable=0;points=[];rounded=1;shadow=0;comic=0;strokeColor=default;strokeWidth=1;swimlaneFillColor=#ffffff;fontFamily=Verdana;fontSize=12;fontColor=default;fontStyle=0;labelBackgroundColor=none;fillColor=#e0e0e0;" parent="1" vertex="1" connectable="0">
          <mxGeometry x="2449" y="3215" as="geometry" />
        </mxCell>
        <mxCell id="HDfJIpf2rJyifLne6ltG-514" value="thông tin quyền" style="edgeLabel;align=center;verticalAlign=middle;resizable=0;points=[];rounded=1;shadow=0;comic=0;strokeColor=default;strokeWidth=1;swimlaneFillColor=#ffffff;fontFamily=Verdana;fontSize=12;fontColor=default;fontStyle=0;labelBackgroundColor=none;fillColor=#e0e0e0;" parent="1" vertex="1" connectable="0">
          <mxGeometry x="2039" y="3221" as="geometry" />
        </mxCell>
        <mxCell id="HDfJIpf2rJyifLne6ltG-515" value="danh sách quyền" style="edgeLabel;align=center;verticalAlign=middle;resizable=0;points=[];rounded=1;shadow=0;comic=0;strokeColor=default;strokeWidth=1;swimlaneFillColor=#ffffff;fontFamily=Verdana;fontSize=12;fontColor=default;fontStyle=0;labelBackgroundColor=none;fillColor=#e0e0e0;" parent="1" vertex="1" connectable="0">
          <mxGeometry x="2478.003103448276" y="3320.0027586206897" as="geometry" />
        </mxCell>
        <mxCell id="HDfJIpf2rJyifLne6ltG-568" value="2.7 DFD Quản lý tài khoản" style="swimlane;whiteSpace=wrap;rounded=1;shadow=0;comic=0;strokeColor=default;strokeWidth=1;align=center;verticalAlign=middle;swimlaneFillColor=#ffffff;fontFamily=Verdana;fontSize=12;fontColor=default;fontStyle=0;labelBackgroundColor=none;fillColor=#e0e0e0;" parent="1" vertex="1">
          <mxGeometry x="-65" y="2697" width="1396" height="784" as="geometry" />
        </mxCell>
        <mxCell id="HDfJIpf2rJyifLne6ltG-611" value="thông tin tài khoản" style="edgeLabel;align=center;verticalAlign=middle;resizable=0;points=[];rounded=1;shadow=0;comic=0;strokeColor=default;strokeWidth=1;swimlaneFillColor=#ffffff;fontFamily=Verdana;fontSize=12;fontColor=default;fontStyle=0;labelBackgroundColor=none;fillColor=#e0e0e0;" parent="HDfJIpf2rJyifLne6ltG-568" vertex="1" connectable="0">
          <mxGeometry x="489" y="404.5" as="geometry" />
        </mxCell>
        <mxCell id="HDfJIpf2rJyifLne6ltG-569" value="" style="edgeStyle=orthogonalEdgeStyle;rounded=0;orthogonalLoop=1;jettySize=auto;fontFamily=Verdana;fontSize=12;fontColor=default;fontStyle=0;labelBackgroundColor=none;" parent="1" source="HDfJIpf2rJyifLne6ltG-572" target="HDfJIpf2rJyifLne6ltG-577" edge="1">
          <mxGeometry relative="1" as="geometry">
            <Array as="points">
              <mxPoint x="824" y="2914.5" />
              <mxPoint x="824" y="2914.5" />
            </Array>
          </mxGeometry>
        </mxCell>
        <mxCell id="HDfJIpf2rJyifLne6ltG-570" value="danh sách tài khoản" style="edgeLabel;align=center;verticalAlign=middle;resizable=0;points=[];rounded=1;shadow=0;comic=0;strokeColor=default;strokeWidth=1;swimlaneFillColor=#ffffff;fontFamily=Verdana;fontSize=12;fontColor=default;fontStyle=0;labelBackgroundColor=none;fillColor=#e0e0e0;" parent="HDfJIpf2rJyifLne6ltG-569" vertex="1" connectable="0">
          <mxGeometry x="0.4435" y="1" relative="1" as="geometry">
            <mxPoint x="50" y="-14" as="offset" />
          </mxGeometry>
        </mxCell>
        <mxCell id="HDfJIpf2rJyifLne6ltG-571" value="" style="edgeStyle=orthogonalEdgeStyle;rounded=0;orthogonalLoop=1;jettySize=auto;fontFamily=Verdana;fontSize=12;fontColor=default;fontStyle=0;labelBackgroundColor=none;" parent="1" source="HDfJIpf2rJyifLne6ltG-572" target="HDfJIpf2rJyifLne6ltG-590" edge="1">
          <mxGeometry relative="1" as="geometry">
            <Array as="points">
              <mxPoint x="1019" y="3028.5" />
            </Array>
          </mxGeometry>
        </mxCell>
        <mxCell id="HDfJIpf2rJyifLne6ltG-572" value="Quyền" style="rounded=0;shadow=0;comic=0;labelBackgroundColor=none;strokeWidth=2;fontFamily=Verdana;fontSize=12;align=center;shape=mxgraph.ios7ui.horLines;fixDash=0;" parent="1" vertex="1">
          <mxGeometry x="938" y="2901.5" width="135" height="50" as="geometry" />
        </mxCell>
        <mxCell id="HDfJIpf2rJyifLne6ltG-573" value="" style="edgeStyle=orthogonalEdgeStyle;rounded=0;orthogonalLoop=1;jettySize=auto;fontFamily=Verdana;fontSize=12;fontColor=default;fontStyle=0;labelBackgroundColor=none;" parent="1" source="HDfJIpf2rJyifLne6ltG-577" target="HDfJIpf2rJyifLne6ltG-572" edge="1">
          <mxGeometry relative="1" as="geometry">
            <Array as="points">
              <mxPoint x="826" y="2936.5" />
              <mxPoint x="826" y="2936.5" />
            </Array>
          </mxGeometry>
        </mxCell>
        <mxCell id="HDfJIpf2rJyifLne6ltG-574" value="thông tin tài khoản" style="edgeLabel;align=center;verticalAlign=middle;resizable=0;points=[];rounded=1;shadow=0;comic=0;strokeColor=default;strokeWidth=1;swimlaneFillColor=#ffffff;fontFamily=Verdana;fontSize=12;fontColor=default;fontStyle=0;labelBackgroundColor=none;fillColor=#e0e0e0;" parent="HDfJIpf2rJyifLne6ltG-573" vertex="1" connectable="0">
          <mxGeometry x="-0.1043" y="-3" relative="1" as="geometry">
            <mxPoint x="7" y="7" as="offset" />
          </mxGeometry>
        </mxCell>
        <mxCell id="HDfJIpf2rJyifLne6ltG-575" value="" style="edgeStyle=orthogonalEdgeStyle;rounded=0;orthogonalLoop=1;jettySize=auto;fontFamily=Verdana;fontSize=12;fontColor=default;fontStyle=0;labelBackgroundColor=none;" parent="1" source="HDfJIpf2rJyifLne6ltG-577" target="HDfJIpf2rJyifLne6ltG-587" edge="1">
          <mxGeometry relative="1" as="geometry">
            <Array as="points">
              <mxPoint x="228" y="2916" />
            </Array>
          </mxGeometry>
        </mxCell>
        <mxCell id="HDfJIpf2rJyifLne6ltG-576" value="thông tin kết quả thêm tài khoản" style="edgeLabel;align=center;verticalAlign=middle;resizable=0;points=[];rounded=1;shadow=0;comic=0;strokeColor=default;strokeWidth=1;swimlaneFillColor=#ffffff;fontFamily=Verdana;fontSize=12;fontColor=default;fontStyle=0;labelBackgroundColor=none;fillColor=#e0e0e0;" parent="HDfJIpf2rJyifLne6ltG-575" vertex="1" connectable="0">
          <mxGeometry x="-0.2156" y="-1" relative="1" as="geometry">
            <mxPoint x="42" y="-11" as="offset" />
          </mxGeometry>
        </mxCell>
        <mxCell id="HDfJIpf2rJyifLne6ltG-577" value="7.1" style="swimlane;fontStyle=0;childLayout=stackLayout;horizontal=1;startSize=26;fillColor=#e0e0e0;horizontalStack=0;resizeParent=1;resizeLast=0;collapsible=1;marginBottom=0;swimlaneFillColor=#ffffff;align=center;rounded=1;shadow=0;comic=0;labelBackgroundColor=none;strokeWidth=1;fontFamily=Verdana;fontSize=12" parent="1" vertex="1">
          <mxGeometry x="558" y="2894" width="150" height="65" as="geometry" />
        </mxCell>
        <mxCell id="HDfJIpf2rJyifLne6ltG-578" value="Thêm quyền" style="text;strokeColor=none;fillColor=none;spacingLeft=4;spacingRight=4;whiteSpace=wrap;overflow=hidden;rotatable=0;points=[[0,0.5],[1,0.5]];portConstraint=eastwest;align=center;" parent="HDfJIpf2rJyifLne6ltG-577" vertex="1">
          <mxGeometry y="26" width="150" height="26" as="geometry" />
        </mxCell>
        <mxCell id="HDfJIpf2rJyifLne6ltG-579" value="" style="edgeStyle=orthogonalEdgeStyle;rounded=0;orthogonalLoop=1;jettySize=auto;fontFamily=Verdana;fontSize=12;fontColor=default;fontStyle=0;labelBackgroundColor=none;" parent="1" source="HDfJIpf2rJyifLne6ltG-587" target="HDfJIpf2rJyifLne6ltG-577" edge="1">
          <mxGeometry relative="1" as="geometry">
            <Array as="points">
              <mxPoint x="259" y="2941" />
            </Array>
          </mxGeometry>
        </mxCell>
        <mxCell id="HDfJIpf2rJyifLne6ltG-580" value="thông tin tài khoản" style="edgeLabel;align=center;verticalAlign=middle;resizable=0;points=[];rounded=1;shadow=0;comic=0;strokeColor=default;strokeWidth=1;swimlaneFillColor=#ffffff;fontFamily=Verdana;fontSize=12;fontColor=default;fontStyle=0;labelBackgroundColor=none;fillColor=#e0e0e0;" parent="HDfJIpf2rJyifLne6ltG-579" vertex="1" connectable="0">
          <mxGeometry x="0.3411" y="-3" relative="1" as="geometry">
            <mxPoint x="10" y="6" as="offset" />
          </mxGeometry>
        </mxCell>
        <mxCell id="HDfJIpf2rJyifLne6ltG-581" value="" style="edgeStyle=orthogonalEdgeStyle;rounded=0;orthogonalLoop=1;jettySize=auto;fontFamily=Verdana;fontSize=12;fontColor=default;fontStyle=0;labelBackgroundColor=none;" parent="1" source="HDfJIpf2rJyifLne6ltG-587" target="HDfJIpf2rJyifLne6ltG-590" edge="1">
          <mxGeometry relative="1" as="geometry">
            <Array as="points">
              <mxPoint x="312" y="3095" />
              <mxPoint x="312" y="3011" />
            </Array>
          </mxGeometry>
        </mxCell>
        <mxCell id="HDfJIpf2rJyifLne6ltG-582" value="" style="edgeStyle=orthogonalEdgeStyle;rounded=0;orthogonalLoop=1;jettySize=auto;fontFamily=Verdana;fontSize=12;fontColor=default;fontStyle=0;labelBackgroundColor=none;" parent="1" source="HDfJIpf2rJyifLne6ltG-587" target="HDfJIpf2rJyifLne6ltG-593" edge="1">
          <mxGeometry relative="1" as="geometry">
            <Array as="points">
              <mxPoint x="424" y="3113" />
              <mxPoint x="424" y="3113" />
            </Array>
          </mxGeometry>
        </mxCell>
        <mxCell id="HDfJIpf2rJyifLne6ltG-583" value="" style="edgeStyle=orthogonalEdgeStyle;rounded=0;orthogonalLoop=1;jettySize=auto;fontFamily=Verdana;fontSize=12;fontColor=default;fontStyle=0;labelBackgroundColor=none;" parent="1" source="HDfJIpf2rJyifLne6ltG-587" target="HDfJIpf2rJyifLne6ltG-596" edge="1">
          <mxGeometry relative="1" as="geometry">
            <Array as="points">
              <mxPoint x="266" y="3194" />
            </Array>
          </mxGeometry>
        </mxCell>
        <mxCell id="HDfJIpf2rJyifLne6ltG-584" value="chọn tài khoản muốn xem" style="edgeLabel;align=center;verticalAlign=middle;resizable=0;points=[];rounded=1;shadow=0;comic=0;strokeColor=default;strokeWidth=1;swimlaneFillColor=#ffffff;fontFamily=Verdana;fontSize=12;fontColor=default;fontStyle=0;labelBackgroundColor=none;fillColor=#e0e0e0;" parent="HDfJIpf2rJyifLne6ltG-583" vertex="1" connectable="0">
          <mxGeometry x="-0.2182" y="3" relative="1" as="geometry">
            <mxPoint x="61" y="-5" as="offset" />
          </mxGeometry>
        </mxCell>
        <mxCell id="HDfJIpf2rJyifLne6ltG-585" value="" style="edgeStyle=orthogonalEdgeStyle;rounded=0;orthogonalLoop=1;jettySize=auto;fontFamily=Verdana;fontSize=12;fontColor=default;fontStyle=0;labelBackgroundColor=none;" parent="1" source="HDfJIpf2rJyifLne6ltG-587" target="HDfJIpf2rJyifLne6ltG-601" edge="1">
          <mxGeometry relative="1" as="geometry">
            <Array as="points">
              <mxPoint x="228" y="3293" />
            </Array>
          </mxGeometry>
        </mxCell>
        <mxCell id="HDfJIpf2rJyifLne6ltG-586" value="nội dung tìm kiếm" style="edgeLabel;align=center;verticalAlign=middle;resizable=0;points=[];rounded=1;shadow=0;comic=0;strokeColor=default;strokeWidth=1;swimlaneFillColor=#ffffff;fontFamily=Verdana;fontSize=12;fontColor=default;fontStyle=0;labelBackgroundColor=none;fillColor=#e0e0e0;" parent="HDfJIpf2rJyifLne6ltG-585" vertex="1" connectable="0">
          <mxGeometry x="0.3041" y="-1" relative="1" as="geometry">
            <mxPoint x="1" y="-8" as="offset" />
          </mxGeometry>
        </mxCell>
        <mxCell id="HDfJIpf2rJyifLne6ltG-587" value="Quản lý" style="whiteSpace=wrap;rounded=0;shadow=0;comic=0;labelBackgroundColor=none;strokeWidth=1;fontFamily=Verdana;fontSize=12;align=center;" parent="1" vertex="1">
          <mxGeometry x="168" y="3088.5" width="120" height="50" as="geometry" />
        </mxCell>
        <mxCell id="HDfJIpf2rJyifLne6ltG-588" value="" style="edgeStyle=orthogonalEdgeStyle;rounded=0;orthogonalLoop=1;jettySize=auto;fontFamily=Verdana;fontSize=12;fontColor=default;fontStyle=0;labelBackgroundColor=none;" parent="1" source="HDfJIpf2rJyifLne6ltG-590" target="HDfJIpf2rJyifLne6ltG-572" edge="1">
          <mxGeometry relative="1" as="geometry">
            <Array as="points">
              <mxPoint x="994" y="3007" />
            </Array>
          </mxGeometry>
        </mxCell>
        <mxCell id="HDfJIpf2rJyifLne6ltG-589" value="" style="edgeStyle=orthogonalEdgeStyle;rounded=0;orthogonalLoop=1;jettySize=auto;fontFamily=Verdana;fontSize=12;fontColor=default;fontStyle=0;labelBackgroundColor=none;" parent="1" source="HDfJIpf2rJyifLne6ltG-590" target="HDfJIpf2rJyifLne6ltG-587" edge="1">
          <mxGeometry relative="1" as="geometry">
            <Array as="points">
              <mxPoint x="339" y="3034" />
              <mxPoint x="339" y="3102" />
            </Array>
          </mxGeometry>
        </mxCell>
        <mxCell id="HDfJIpf2rJyifLne6ltG-590" value="7.2" style="swimlane;fontStyle=0;childLayout=stackLayout;horizontal=1;startSize=26;fillColor=#e0e0e0;horizontalStack=0;resizeParent=1;resizeLast=0;collapsible=1;marginBottom=0;swimlaneFillColor=#ffffff;align=center;rounded=1;shadow=0;comic=0;labelBackgroundColor=none;strokeWidth=1;fontFamily=Verdana;fontSize=12" parent="1" vertex="1">
          <mxGeometry x="558" y="2986" width="150" height="65" as="geometry" />
        </mxCell>
        <mxCell id="HDfJIpf2rJyifLne6ltG-591" value="Chỉnh sửa quyền" style="text;strokeColor=none;fillColor=none;spacingLeft=4;spacingRight=4;whiteSpace=wrap;overflow=hidden;rotatable=0;points=[[0,0.5],[1,0.5]];portConstraint=eastwest;align=center;" parent="HDfJIpf2rJyifLne6ltG-590" vertex="1">
          <mxGeometry y="26" width="150" height="26" as="geometry" />
        </mxCell>
        <mxCell id="HDfJIpf2rJyifLne6ltG-592" value="" style="edgeStyle=orthogonalEdgeStyle;rounded=0;orthogonalLoop=1;jettySize=auto;fontFamily=Verdana;fontSize=12;fontColor=default;fontStyle=0;labelBackgroundColor=none;" parent="1" source="HDfJIpf2rJyifLne6ltG-593" target="HDfJIpf2rJyifLne6ltG-587" edge="1">
          <mxGeometry relative="1" as="geometry">
            <Array as="points">
              <mxPoint x="421" y="3124" />
              <mxPoint x="421" y="3124" />
            </Array>
          </mxGeometry>
        </mxCell>
        <mxCell id="HDfJIpf2rJyifLne6ltG-593" value="7.3" style="swimlane;fontStyle=0;childLayout=stackLayout;horizontal=1;startSize=26;fillColor=#e0e0e0;horizontalStack=0;resizeParent=1;resizeLast=0;collapsible=1;marginBottom=0;swimlaneFillColor=#ffffff;align=center;rounded=1;shadow=0;comic=0;labelBackgroundColor=none;strokeWidth=1;fontFamily=Verdana;fontSize=12" parent="1" vertex="1">
          <mxGeometry x="558" y="3079" width="150" height="65" as="geometry" />
        </mxCell>
        <mxCell id="HDfJIpf2rJyifLne6ltG-594" value="Xóa quyền" style="text;strokeColor=none;fillColor=none;spacingLeft=4;spacingRight=4;whiteSpace=wrap;overflow=hidden;rotatable=0;points=[[0,0.5],[1,0.5]];portConstraint=eastwest;align=center;" parent="HDfJIpf2rJyifLne6ltG-593" vertex="1">
          <mxGeometry y="26" width="150" height="26" as="geometry" />
        </mxCell>
        <mxCell id="HDfJIpf2rJyifLne6ltG-595" value="" style="edgeStyle=orthogonalEdgeStyle;rounded=0;orthogonalLoop=1;jettySize=auto;fontFamily=Verdana;fontSize=12;fontColor=default;fontStyle=0;labelBackgroundColor=none;" parent="1" source="HDfJIpf2rJyifLne6ltG-596" target="HDfJIpf2rJyifLne6ltG-606" edge="1">
          <mxGeometry relative="1" as="geometry">
            <Array as="points">
              <mxPoint x="846" y="3190" />
              <mxPoint x="846" y="3190" />
            </Array>
          </mxGeometry>
        </mxCell>
        <mxCell id="HDfJIpf2rJyifLne6ltG-596" value="7.4" style="swimlane;fontStyle=0;childLayout=stackLayout;horizontal=1;startSize=26;fillColor=#e0e0e0;horizontalStack=0;resizeParent=1;resizeLast=0;collapsible=1;marginBottom=0;swimlaneFillColor=#ffffff;align=center;rounded=1;shadow=0;comic=0;labelBackgroundColor=none;strokeWidth=1;fontFamily=Verdana;fontSize=12" parent="1" vertex="1">
          <mxGeometry x="558" y="3171" width="150" height="65" as="geometry" />
        </mxCell>
        <mxCell id="HDfJIpf2rJyifLne6ltG-597" value="Xem chi tiết quyền" style="text;strokeColor=none;fillColor=none;spacingLeft=4;spacingRight=4;whiteSpace=wrap;overflow=hidden;rotatable=0;points=[[0,0.5],[1,0.5]];portConstraint=eastwest;align=center;" parent="HDfJIpf2rJyifLne6ltG-596" vertex="1">
          <mxGeometry y="26" width="150" height="26" as="geometry" />
        </mxCell>
        <mxCell id="HDfJIpf2rJyifLne6ltG-598" value="" style="edgeStyle=orthogonalEdgeStyle;rounded=0;orthogonalLoop=1;jettySize=auto;fontFamily=Verdana;fontSize=12;fontColor=default;fontStyle=0;labelBackgroundColor=none;" parent="1" source="HDfJIpf2rJyifLne6ltG-601" target="HDfJIpf2rJyifLne6ltG-606" edge="1">
          <mxGeometry relative="1" as="geometry">
            <Array as="points">
              <mxPoint x="996" y="3295" />
            </Array>
          </mxGeometry>
        </mxCell>
        <mxCell id="HDfJIpf2rJyifLne6ltG-599" value="" style="edgeStyle=orthogonalEdgeStyle;rounded=0;orthogonalLoop=1;jettySize=auto;fontFamily=Verdana;fontSize=12;fontColor=default;fontStyle=0;labelBackgroundColor=none;" parent="1" source="HDfJIpf2rJyifLne6ltG-601" target="HDfJIpf2rJyifLne6ltG-587" edge="1">
          <mxGeometry relative="1" as="geometry">
            <Array as="points">
              <mxPoint x="211" y="3311" />
            </Array>
          </mxGeometry>
        </mxCell>
        <mxCell id="HDfJIpf2rJyifLne6ltG-600" value="kết quả tìm kiếm" style="edgeLabel;align=center;verticalAlign=middle;resizable=0;points=[];rounded=1;shadow=0;comic=0;strokeColor=default;strokeWidth=1;swimlaneFillColor=#ffffff;fontFamily=Verdana;fontSize=12;fontColor=default;fontStyle=0;labelBackgroundColor=none;fillColor=#e0e0e0;" parent="HDfJIpf2rJyifLne6ltG-599" vertex="1" connectable="0">
          <mxGeometry x="-0.3031" y="3" relative="1" as="geometry">
            <mxPoint x="15" y="6" as="offset" />
          </mxGeometry>
        </mxCell>
        <mxCell id="HDfJIpf2rJyifLne6ltG-601" value="7.5" style="swimlane;fontStyle=0;childLayout=stackLayout;horizontal=1;startSize=26;fillColor=#e0e0e0;horizontalStack=0;resizeParent=1;resizeLast=0;collapsible=1;marginBottom=0;swimlaneFillColor=#ffffff;align=center;rounded=1;shadow=0;comic=0;labelBackgroundColor=none;strokeWidth=1;fontFamily=Verdana;fontSize=12" parent="1" vertex="1">
          <mxGeometry x="558" y="3263" width="150" height="65" as="geometry" />
        </mxCell>
        <mxCell id="HDfJIpf2rJyifLne6ltG-602" value="Tìm kiếm tài khoản" style="text;strokeColor=none;fillColor=none;spacingLeft=4;spacingRight=4;whiteSpace=wrap;overflow=hidden;rotatable=0;points=[[0,0.5],[1,0.5]];portConstraint=eastwest;align=center;" parent="HDfJIpf2rJyifLne6ltG-601" vertex="1">
          <mxGeometry y="26" width="150" height="26" as="geometry" />
        </mxCell>
        <mxCell id="HDfJIpf2rJyifLne6ltG-603" value="" style="edgeStyle=orthogonalEdgeStyle;rounded=0;orthogonalLoop=1;jettySize=auto;fontFamily=Verdana;fontSize=12;fontColor=default;fontStyle=0;labelBackgroundColor=none;" parent="1" source="HDfJIpf2rJyifLne6ltG-606" target="HDfJIpf2rJyifLne6ltG-593" edge="1">
          <mxGeometry relative="1" as="geometry">
            <Array as="points">
              <mxPoint x="997" y="3124" />
            </Array>
          </mxGeometry>
        </mxCell>
        <mxCell id="HDfJIpf2rJyifLne6ltG-604" value="" style="edgeStyle=orthogonalEdgeStyle;rounded=0;orthogonalLoop=1;jettySize=auto;fontFamily=Verdana;fontSize=12;fontColor=default;fontStyle=0;labelBackgroundColor=none;" parent="1" source="HDfJIpf2rJyifLne6ltG-606" target="HDfJIpf2rJyifLne6ltG-596" edge="1">
          <mxGeometry relative="1" as="geometry">
            <Array as="points">
              <mxPoint x="879" y="3204" />
              <mxPoint x="879" y="3204" />
            </Array>
          </mxGeometry>
        </mxCell>
        <mxCell id="HDfJIpf2rJyifLne6ltG-605" value="" style="edgeStyle=orthogonalEdgeStyle;rounded=0;orthogonalLoop=1;jettySize=auto;fontFamily=Verdana;fontSize=12;fontColor=default;fontStyle=0;labelBackgroundColor=none;" parent="1" source="HDfJIpf2rJyifLne6ltG-606" target="HDfJIpf2rJyifLne6ltG-601" edge="1">
          <mxGeometry relative="1" as="geometry">
            <Array as="points">
              <mxPoint x="1012" y="3312" />
            </Array>
          </mxGeometry>
        </mxCell>
        <mxCell id="HDfJIpf2rJyifLne6ltG-606" value="Tài khoản" style="rounded=0;shadow=0;comic=0;labelBackgroundColor=none;strokeWidth=2;fontFamily=Verdana;fontSize=12;align=center;shape=mxgraph.ios7ui.horLines;" parent="1" vertex="1">
          <mxGeometry x="938" y="3171" width="135" height="50" as="geometry" />
        </mxCell>
        <mxCell id="HDfJIpf2rJyifLne6ltG-607" value="thông tin tài khoản" style="edgeLabel;align=center;verticalAlign=middle;resizable=0;points=[];rounded=1;shadow=0;comic=0;strokeColor=default;strokeWidth=1;swimlaneFillColor=#ffffff;fontFamily=Verdana;fontSize=12;fontColor=default;fontStyle=0;labelBackgroundColor=none;fillColor=#e0e0e0;" parent="1" vertex="1" connectable="0">
          <mxGeometry x="424" y="2998.5" as="geometry" />
        </mxCell>
        <mxCell id="HDfJIpf2rJyifLne6ltG-608" value="thông tin tài khoản" style="edgeLabel;align=center;verticalAlign=middle;resizable=0;points=[];rounded=1;shadow=0;comic=0;strokeColor=default;strokeWidth=1;swimlaneFillColor=#ffffff;fontFamily=Verdana;fontSize=12;fontColor=default;fontStyle=0;labelBackgroundColor=none;fillColor=#e0e0e0;" parent="1" vertex="1" connectable="0">
          <mxGeometry x="846" y="2998.5" as="geometry" />
        </mxCell>
        <mxCell id="HDfJIpf2rJyifLne6ltG-609" value="thông tin kết quả sửa tài khoản" style="edgeLabel;align=center;verticalAlign=middle;resizable=0;points=[];rounded=1;shadow=0;comic=0;strokeColor=default;strokeWidth=1;swimlaneFillColor=#ffffff;fontFamily=Verdana;fontSize=12;fontColor=default;fontStyle=0;labelBackgroundColor=none;fillColor=#e0e0e0;" parent="1" vertex="1" connectable="0">
          <mxGeometry x="447" y="3044" as="geometry" />
        </mxCell>
        <mxCell id="HDfJIpf2rJyifLne6ltG-610" value="" style="edgeStyle=orthogonalEdgeStyle;rounded=0;orthogonalLoop=1;jettySize=auto;fontFamily=Verdana;fontSize=12;fontColor=default;fontStyle=0;labelBackgroundColor=none;" parent="1" source="HDfJIpf2rJyifLne6ltG-594" target="HDfJIpf2rJyifLne6ltG-606" edge="1">
          <mxGeometry relative="1" as="geometry">
            <Array as="points">
              <mxPoint x="1010" y="3111" />
            </Array>
          </mxGeometry>
        </mxCell>
        <mxCell id="HDfJIpf2rJyifLne6ltG-612" value="thông tin tài khoản" style="edgeLabel;align=center;verticalAlign=middle;resizable=0;points=[];rounded=1;shadow=0;comic=0;strokeColor=default;strokeWidth=1;swimlaneFillColor=#ffffff;fontFamily=Verdana;fontSize=12;fontColor=default;fontStyle=0;labelBackgroundColor=none;fillColor=#e0e0e0;" parent="1" vertex="1" connectable="0">
          <mxGeometry x="860" y="3104" as="geometry" />
        </mxCell>
        <mxCell id="HDfJIpf2rJyifLne6ltG-613" value="thông tin kết quả xóa tài khoảnn" style="edgeLabel;align=center;verticalAlign=middle;resizable=0;points=[];rounded=1;shadow=0;comic=0;strokeColor=default;strokeWidth=1;swimlaneFillColor=#ffffff;fontFamily=Verdana;fontSize=12;fontColor=default;fontStyle=0;labelBackgroundColor=none;fillColor=#e0e0e0;" parent="1" vertex="1" connectable="0">
          <mxGeometry x="431" y="3133" as="geometry" />
        </mxCell>
        <mxCell id="HDfJIpf2rJyifLne6ltG-614" value="" style="edgeStyle=orthogonalEdgeStyle;rounded=0;orthogonalLoop=1;jettySize=auto;fontFamily=Verdana;fontSize=12;fontColor=default;fontStyle=0;labelBackgroundColor=none;" parent="1" source="HDfJIpf2rJyifLne6ltG-597" target="HDfJIpf2rJyifLne6ltG-587" edge="1">
          <mxGeometry relative="1" as="geometry">
            <Array as="points">
              <mxPoint x="246" y="3210" />
            </Array>
          </mxGeometry>
        </mxCell>
        <mxCell id="HDfJIpf2rJyifLne6ltG-615" value="thông tin tài khoản" style="edgeLabel;align=center;verticalAlign=middle;resizable=0;points=[];rounded=1;shadow=0;comic=0;strokeColor=default;strokeWidth=1;swimlaneFillColor=#ffffff;fontFamily=Verdana;fontSize=12;fontColor=default;fontStyle=0;labelBackgroundColor=none;fillColor=#e0e0e0;" parent="1" vertex="1" connectable="0">
          <mxGeometry x="817" y="3215" as="geometry" />
        </mxCell>
        <mxCell id="HDfJIpf2rJyifLne6ltG-616" value="thông tin tài khoản" style="edgeLabel;align=center;verticalAlign=middle;resizable=0;points=[];rounded=1;shadow=0;comic=0;strokeColor=default;strokeWidth=1;swimlaneFillColor=#ffffff;fontFamily=Verdana;fontSize=12;fontColor=default;fontStyle=0;labelBackgroundColor=none;fillColor=#e0e0e0;" parent="1" vertex="1" connectable="0">
          <mxGeometry x="407" y="3221" as="geometry" />
        </mxCell>
        <mxCell id="HDfJIpf2rJyifLne6ltG-617" value="danh sách tài khoản" style="edgeLabel;align=center;verticalAlign=middle;resizable=0;points=[];rounded=1;shadow=0;comic=0;strokeColor=default;strokeWidth=1;swimlaneFillColor=#ffffff;fontFamily=Verdana;fontSize=12;fontColor=default;fontStyle=0;labelBackgroundColor=none;fillColor=#e0e0e0;" parent="1" vertex="1" connectable="0">
          <mxGeometry x="846.0031034482759" y="3320.0027586206897" as="geometry" />
        </mxCell>
      </root>
    </mxGraphModel>
  </diagram>
</mxfile>
